<svg width="20" height="20" viewBox="0, 0, 20, 20" style="fill:none;" xmlns="http://www.w3.org/2000/svg" xmlns:xlink="http://www.w3.org/1999/xlink" xmlns:xml="http://www.w3.org/XML/1998/namespace" version="1.1"><path d="M14.5118 2.98816 C15.1627 3.63903 15.1627 4.69431 14.5118 5.34518 C13.8609 5.99605 12.8057 5.99605 12.1548 5.34518 C11.5039 4.69431 11.5039 3.63903 12.1548 2.98816 C12.8057 2.33728 13.8609 2.33728 14.5118 2.98816 z" stroke-width="1.5" stroke-linecap="round" stroke-linejoin="round" style="stroke:#171D23;" /><path d="M8.21667 15.4167 L10.0917 15.4167" stroke-width="1.5" stroke-linecap="round" stroke-linejoin="round" style="stroke:#171D23;" /><path d="M13.3333 8.33332 L13.3333 15.8333 C13.3333 16.7542 12.5875 17.5 11.6667 17.5 L6.66667 17.5 C5.74583 17.5 5 16.7542 5 15.8333 L5 5.83332 C5 4.91249 5.74583 4.16666 6.66667 4.16666 L9.16667 4.16666" stroke-width="1.5" stroke-linecap="round" stroke-linejoin="round" style="stroke:#171D23;" /></svg>