<svg width="20" height="20" viewBox="0, 0, 20, 20" style="fill:none;" xmlns="http://www.w3.org/2000/svg" xmlns:xlink="http://www.w3.org/1999/xlink" xmlns:xml="http://www.w3.org/XML/1998/namespace" version="1.1"><path d="M3 7.67468 L3 16.5276" stroke-width="1.5" stroke-linecap="round" stroke-linejoin="round" style="stroke:#171D23;" /><path d="M9.649 3.678 L6 8.429 L6 11.693 L6 14.957 L7.232 16.283 C7.572 16.649 8.05 16.857 8.55 16.857 L14.839 16.857 C15.641 16.857 16.346 16.326 16.568 15.555 L17.927 10.833 C18.074 10.324 17.988 9.775 17.693 9.334 L17.364 8.843 C17.03 8.344 16.469 8.044 15.868 8.044 L12.772 8.044 L12.772 4.773 C12.772 4.357 12.628 3.953 12.363 3.632 C11.654 2.771 10.328 2.793 9.649 3.678 z" stroke-width="1.5" stroke-linecap="round" stroke-linejoin="round" style="stroke:#171D23;" /></svg>