<svg width="21" height="20" viewBox="0, 0, 21, 20" style="fill:none;" xmlns="http://www.w3.org/2000/svg" xmlns:xlink="http://www.w3.org/1999/xlink" xmlns:xml="http://www.w3.org/XML/1998/namespace" version="1.1"><path d="M17 17.5 L3.66667 17.5 C2.74583 17.5 2 16.7542 2 15.8333 L2 4.16667 C2 3.24583 2.74583 2.5 3.66667 2.5 L17 2.5 C17.9208 2.5 18.6667 3.24583 18.6667 4.16667 L18.6667 15.8333 C18.6667 16.7542 17.9208 17.5 17 17.5 z" stroke-width="1.5" stroke-linecap="round" stroke-linejoin="round" style="stroke:#171D23;" /><path d="M2 6.66666 L18.6667 6.66666" stroke-width="1.5" stroke-linecap="round" stroke-linejoin="round" style="stroke:#171D23;" /><path d="M4.31581 4.57501 C4.31331 4.57501 4.31165 4.57668 4.31165 4.57918 C4.31165 4.58168 4.31331 4.58335 4.31581 4.58335 C4.31831 4.58335 4.31998 4.58168 4.31998 4.57918 C4.31998 4.57668 4.31831 4.57501 4.31581 4.57501 z" stroke-width="1.5" stroke-linecap="round" stroke-linejoin="round" style="stroke:#171D23;" /><path d="M6.43501 4.57501 C6.43251 4.57501 6.43085 4.57668 6.43085 4.57918 C6.43085 4.58168 6.43335 4.58335 6.43501 4.58335 C6.43751 4.58335 6.43918 4.58168 6.43918 4.57918 C6.43918 4.57668 6.43751 4.57501 6.43501 4.57501 z" stroke-width="1.5" stroke-linecap="round" stroke-linejoin="round" style="stroke:#171D23;" /><path d="M8.55086 4.57501 C8.54836 4.57501 8.54669 4.57668 8.54669 4.57918 C8.54669 4.58168 8.54836 4.58335 8.55086 4.58335 C8.55336 4.58335 8.55503 4.58168 8.55503 4.57918 C8.55503 4.57668 8.55336 4.57501 8.55086 4.57501 z" stroke-width="1.5" stroke-linecap="round" stroke-linejoin="round" style="stroke:#171D23;" /><path d="M14.4383 10 L12 13.3333 L8.66667 10.8333 L6.22833 14.1667" stroke-width="1.5" stroke-linecap="round" stroke-linejoin="round" style="stroke:#171D23;" /></svg>