<svg width="20" height="20" viewBox="0, 0, 20, 20" style="fill:none;" xmlns="http://www.w3.org/2000/svg" xmlns:xlink="http://www.w3.org/1999/xlink" xmlns:xml="http://www.w3.org/XML/1998/namespace" version="1.1"><path d="M18.3332 7.50006 L16.1499 8.33339" stroke-width="1.5" stroke-linecap="round" stroke-linejoin="round" style="stroke:#171D23;" /><path d="M3.85829 8.33339 L1.66663 7.50006" stroke-width="1.5" stroke-linecap="round" stroke-linejoin="round" style="stroke:#171D23;" /><path d="M15.2083 11.6667 L13.125 11.6667" stroke-width="1.5" stroke-linecap="round" stroke-linejoin="round" style="stroke:#171D23;" /><path d="M6.87496 11.6667 L4.79163 11.6667" stroke-width="1.5" stroke-linecap="round" stroke-linejoin="round" style="stroke:#171D23;" /><path d="M16.1492 8.33337 L15.45 4.99004 C15.2475 4.02504 14.3967 3.33337 13.41 3.33337 L6.67667 3.33337 C5.70917 3.33337 4.86834 4.00004 4.64834 4.94254 L3.85583 8.33337" stroke-width="1.5" stroke-linecap="round" stroke-linejoin="round" style="stroke:#171D23;" /><path d="M2.70829 16.6667 L4.58329 16.6667 C5.27329 16.6667 5.83329 16.1067 5.83329 15.4167 L5.83329 14.5834 L14.1666 14.5834 L14.1666 15.4167 C14.1666 16.1067 14.7266 16.6667 15.4166 16.6667 L17.2916 16.6667 C17.8666 16.6667 18.3333 16.2 18.3333 15.625 L18.3333 10.8334 C18.3333 9.45254 17.2141 8.33337 15.8333 8.33337 L4.16663 8.33337 C2.78579 8.33337 1.66663 9.45254 1.66663 10.8334 L1.66663 15.625 C1.66663 16.2 2.13329 16.6667 2.70829 16.6667 z" stroke-width="1.5" stroke-linecap="round" stroke-linejoin="round" style="stroke:#171D23;" /><path d="M1.66663 14.5834 L18.3333 14.5834" stroke-width="1.5" stroke-linecap="round" stroke-linejoin="round" style="stroke:#171D23;" /></svg>