<svg width="20" height="20" viewBox="0, 0, 20, 20" style="fill:none;" xmlns="http://www.w3.org/2000/svg" xmlns:xlink="http://www.w3.org/1999/xlink" xmlns:xml="http://www.w3.org/XML/1998/namespace" version="1.1"><path d="M6.80527 17.3769 C5.66727 15.7901 4.9978 13.8595 4.9978 11.775 C4.9978 9.07543 7.2363 6.88745 9.99753 6.88745 C12.7588 6.88745 14.9972 9.07543 14.9972 11.775" stroke-width="1.5" stroke-linecap="round" stroke-linejoin="round" style="stroke:#171D23;" /><path d="M15.2683 16.6494 C15.1782 16.6543 15.0899 16.6624 14.999 16.6624 C12.2378 16.6624 9.99927 14.4744 9.99927 11.7749" stroke-width="1.5" stroke-linecap="round" stroke-linejoin="round" style="stroke:#171D23;" /><path d="M11.038 18 C8.91368 16.7056 7.49889 14.402 7.49889 11.7749 C7.49889 10.4252 8.61855 9.33118 9.99917 9.33118 C11.3798 9.33118 12.4994 10.4252 12.4994 11.7749 C12.4994 13.1247 13.6191 14.2187 14.9997 14.2187 C16.3803 14.2187 17.5 13.1247 17.5 11.7749 C17.5 7.72563 14.1418 4.44366 10 4.44366 C5.85816 4.44366 2.5 7.72563 2.5 11.7749 C2.5 12.6775 2.60338 13.5564 2.79346 14.4036" stroke-width="1.5" stroke-linecap="round" stroke-linejoin="round" style="stroke:#171D23;" /><path d="M16.9789 5.09054 C15.274 3.19826 12.7812 2 9.9983 2 C7.2154 2 4.72262 3.19826 3.0177 5.09054" stroke-width="1.5" stroke-linecap="round" stroke-linejoin="round" style="stroke:#171D23;" /></svg>