<svg width="20" height="20" viewBox="0, 0, 20, 20" style="fill:none;" xmlns="http://www.w3.org/2000/svg" xmlns:xlink="http://www.w3.org/1999/xlink" xmlns:xml="http://www.w3.org/XML/1998/namespace" version="1.1"><path d="M11.0503 14.3453 L12.7201 14.3453 M12.7201 14.3453 L12.9981 14.3453 C13.3596 14.3453 13.7111 14.2244 14 14 L15.9762 12.7223 C16.4796 12.3321 17.1843 12.3839 17.6293 12.844 C18.1236 13.3551 18.1236 14.183 17.6293 14.6931 L15.8986 16.4827 C15.4327 16.9644 14.8382 17.2933 14.192 17.4271 L11.7458 17.933 C11.2607 18.0331 10.7606 18.021 10.2805 17.8967 L8.06804 17.3252 C7.80338 17.2562 7.53204 17.2216 7.25903 17.2216 L6 17.2216 L6 12.844 C6.68935 12.4328 8.20405 11.4442 8.92215 11.1788 C10.2805 10.6767 11.6651 11.0684 12.5 11.5 C13.3349 11.9316 13.5141 12.042 13.5141 13.3369 C13.5141 14.3729 12.9984 14.3453 12.7201 14.3453 z" stroke-width="1.5" stroke-linecap="round" stroke-linejoin="round" style="stroke:#171D23;" /><path d="M12.2494 2.88477 C11.0486 1.70508 9.10133 1.70508 7.90057 2.88477 C6.69981 4.06447 6.69981 5.97763 7.90057 7.15732 C8.49407 7.74041 9.2691 8.03398 10.0448 8.04109 C10.1942 8.43272 10.4293 8.8 10.7499 9.11503 C11.951 10.295 13.8982 10.295 15.0992 9.11503 C16.3003 7.93507 16.3003 6.02198 15.0992 4.84202 C14.5051 4.25827 13.7282 3.96331 12.9495 3.95715 C12.8022 3.5677 12.5706 3.20029 12.2494 2.88477 z M12.5604 5.2568 C12.5649 5.25617 12.5693 5.25549 12.5738 5.25477 C12.5889 5.25233 12.6037 5.2494 12.6184 5.24599 C13.1722 5.15199 13.7624 5.31507 14.1901 5.73521 C14.889 6.42188 14.889 7.53518 14.1901 8.22184 C13.4912 8.90851 12.358 8.90851 11.6591 8.22184 C11.4023 7.96958 11.2399 7.65975 11.1718 7.33463 C11.1702 7.30656 11.1668 7.27826 11.1613 7.24988 C11.1578 7.23182 11.1536 7.21408 11.1486 7.1967 C11.0829 6.67708 11.253 6.13415 11.6591 5.73521 C11.9154 5.48339 12.2301 5.32392 12.5604 5.2568 z M11.6661 4.22071 C11.5841 4.06046 11.4757 3.91098 11.3403 3.77796 C10.6416 3.09156 9.50836 3.09156 8.8097 3.77796 C8.11104 4.46437 8.11104 5.57773 8.8097 6.26414 C9.10335 6.55264 9.47346 6.71983 9.85678 6.76539 C9.90691 6.06463 10.2046 5.37776 10.7499 4.84202 C11.0227 4.57407 11.3339 4.36696 11.6661 4.22071 z" clip-rule="evenodd" fill-rule="evenodd" style="fill:#171D23;" /><rect x="2" y="11" width="4" height="7" rx="1" stroke-width="1.5" stroke-linecap="round" stroke-linejoin="round" style="stroke:#171D23;" /></svg>