<svg width="40" height="40" fill="none" xmlns="http://www.w3.org/2000/svg"><rect width="40" height="40" rx="12" fill="#9C3"/><path d="M17.677 27.499c.238.74.53 1.245.885 1.517.4.323.9.484 1.5.484.68 0 1.226-.192 1.635-.581.163-.162.3-.363.409-.604.107-.237.261-.675.463-1.314l2.628-8.677 1.432 8.686c.128.805.316 1.373.57 1.706.39.522.95.783 1.677.783.507 0 .966-.16 1.375-.483.5-.417.749-.956.749-1.624 0-.227-.043-.591-.135-1.093L28.48 12.715c-.098-.594-.4-1.103-.899-1.528a2.955 2.955 0 0 0-1.908-.673c-.628 0-1.18.175-1.66.526-.546.395-.932.953-1.159 1.676l-2.874 9.097-3.133-9.503a2.458 2.458 0 0 0-.913-1.27c-.49-.36-1.073-.54-1.744-.54-.797 0-1.475.24-2.03.717-.426.367-.704.934-.831 1.701l-2.206 13.42c-.082.477-.123.824-.123 1.041 0 .695.254 1.24.762 1.651.398.312.849.47 1.348.47.736 0 1.29-.261 1.664-.783.244-.34.429-.912.557-1.706l1.39-8.686 2.956 9.174z" fill="#fff"/></svg>