<svg width="40" height="40" viewBox="0 0 40 40" fill="none" xmlns="http://www.w3.org/2000/svg">
<rect width="40" height="40" rx="12" fill="#6E50E1"/>
<path d="M22.1308 14.3509C22.0514 14.1128 21.8926 13.7952 21.7339 13.4777L18.8759 8H14.4303L17.447 13.3983H8.71448L8 16.7325H16.6531L10.7785 22.8453H15.9386L21.1782 17.1294C21.4957 16.8119 21.7339 16.4943 21.972 16.1768C22.2102 15.8593 22.3689 15.4623 22.3689 15.1448C22.2896 14.8272 22.2896 14.5891 22.1308 14.3509Z" fill="white"/>
<path d="M32.9915 23.454H24.259L29.8955 17.5H25.0529L20.4485 22.7395C20.0516 23.2158 19.734 23.6128 19.4165 23.9303C19.1783 24.3272 19.0195 24.6448 19.0195 25.1211C19.0195 25.3593 19.0195 25.518 19.0989 25.6768C19.1783 25.8356 19.2577 26.0737 19.4165 26.3913L22.6713 32.1865H27.2757L24.0209 26.7088H32.1977L32.9915 23.454Z" fill="#32E17D"/>
</svg>
