<svg width="40" height="40" viewBox="0 0 40 40" fill="none" xmlns="http://www.w3.org/2000/svg">
<rect width="40" height="40" rx="12" fill="#FF8127"/>
<path d="M7.82031 11.5013C7.82031 10.8169 8.13717 10.5254 8.88497 10.5254H31.1159C31.8511 10.5254 32.1806 10.8169 32.1806 11.5013V14.9361C32.1806 15.6205 31.8637 15.912 31.1159 15.912H8.88497C8.14985 15.912 7.82031 15.6205 7.82031 14.9361V11.5013Z" fill="white"/>
<path d="M7.82031 25.0247C7.82031 24.3276 8.13717 24.0361 8.88497 24.0361H31.1159C31.8511 24.0361 32.1806 24.3276 32.1806 25.0247V28.4849C32.1806 29.182 31.8637 29.4735 31.1159 29.4735H8.88497C8.14985 29.4735 7.82031 29.182 7.82031 28.4849V25.0247Z" fill="white"/>
</svg>
