<svg width="40" height="40" viewBox="0 0 40 40" fill="none" xmlns="http://www.w3.org/2000/svg">
<rect width="40" height="40" rx="12" fill="white"/>
<path fill-rule="evenodd" clip-rule="evenodd" d="M20.108 7C27.3479 7 33.216 12.8197 33.216 20C33.216 27.1803 27.3479 33 20.108 33C12.868 33 7 27.1803 7 20C7 12.8197 12.868 7 20.108 7ZM20.108 8.75211C26.3707 8.75211 31.4493 13.7889 31.4493 20C31.4493 26.2111 26.3707 31.2479 20.108 31.2479C13.8452 31.2479 8.76666 26.2111 8.76666 20C8.76666 13.7889 13.8452 8.75211 20.108 8.75211Z" fill="#97C11F"/>
<path fill-rule="evenodd" clip-rule="evenodd" d="M13.2734 13.2203C15.1605 11.3488 17.6347 10.4131 20.109 10.4131V19.9996L13.2734 13.2203Z" fill="#5C7812"/>
<path fill-rule="evenodd" clip-rule="evenodd" d="M10.4453 20C10.4453 17.3551 11.5284 14.9585 13.2758 13.2207L20.1114 20H10.4453Z" fill="#638014"/>
<path fill-rule="evenodd" clip-rule="evenodd" d="M13.2758 26.7744C11.3888 24.9029 10.4453 22.449 10.4453 19.9951H20.1114L13.2758 26.7744Z" fill="#678815"/>
<path fill-rule="evenodd" clip-rule="evenodd" d="M20.109 29.5816C17.4422 29.5816 15.0257 28.5074 13.2734 26.7744L20.109 19.9951V29.5816Z" fill="#749717"/>
<path fill-rule="evenodd" clip-rule="evenodd" d="M29.7716 20C29.7716 17.3551 28.6885 14.9585 26.9411 13.2207L20.1055 20H29.7716Z" fill="#97C11F"/>
<path fill-rule="evenodd" clip-rule="evenodd" d="M26.9411 26.7734C28.8281 24.902 29.7716 22.4481 29.7716 19.9941H20.1055L26.9411 26.7734Z" fill="#8BB31E"/>
<path fill-rule="evenodd" clip-rule="evenodd" d="M20.1094 29.5797C22.7762 29.5797 25.1927 28.5055 26.945 26.7725L20.1094 19.9932V29.5797Z" fill="#80A51A"/>
</svg>
