<svg width="40" height="40" viewBox="0 0 40 40" fill="none" xmlns="http://www.w3.org/2000/svg">
<rect width="40" height="40" rx="12" fill="#4039EA"/>
<path fill-rule="evenodd" clip-rule="evenodd" d="M28.0984 32H11.8984V8H28.0984V32ZM13.6984 30.2H26.2984V9.8H13.6984V30.2ZM19.9444 24.296C20.6818 24.2976 21.3896 24.0066 21.9127 23.487C22.4357 22.9673 22.7313 22.2613 22.7344 21.524V21.404H24.4984V21.524C24.4984 22.7318 24.0186 23.8901 23.1646 24.7442C22.3106 25.5982 21.1522 26.078 19.9444 26.078C18.7366 26.078 17.5783 25.5982 16.7243 24.7442C15.8702 23.8901 15.3904 22.7318 15.3904 21.524V21.404H17.1484V21.524C17.15 21.8896 17.2236 22.2513 17.3649 22.5885C17.5063 22.9256 17.7127 23.2317 17.9723 23.4891C18.232 23.7465 18.5398 23.9502 18.8781 24.0887C19.2165 24.2271 19.5788 24.2976 19.9444 24.296Z" fill="white"/>
</svg>
