<svg width="40" height="40" fill="none" xmlns="http://www.w3.org/2000/svg"><rect width="40" height="40" rx="12" fill="#F7DC66"/><path d="M25.146 14.07a1.33 1.33 0 1 0 1.882 0 1.33 1.33 0 0 0-1.882 0zM28.62 18.701l-1.8 1.8a.585.585 0 1 0 .83.825l1.801-1.799a.585.585 0 1 0-.83-.826z" fill="#131414"/><path d="m26.879 20.44-1.802 1.799a.585.585 0 1 0 .83.826l1.802-1.8a.585.585 0 0 0 0-.826.58.58 0 0 0-.83 0z" fill="#131414"/><path d="m25.215 22.099-1.802 1.799a.585.585 0 1 0 .83.826l1.802-1.799a.585.585 0 0 0 0-.826.58.58 0 0 0-.83 0z" fill="#131414"/><path d="m23.574 23.732-1.802 1.799a.585.585 0 1 0 .83.826l1.802-1.8a.585.585 0 1 0-.83-.825z" fill="#131414"/><path d="m22.89 24.411-1.801 1.8a.585.585 0 1 0 .83.826l1.802-1.8a.585.585 0 1 0-.83-.826zM25.146 14.057a1.33 1.33 0 1 0 1.882 0 1.343 1.343 0 0 0-1.882 0zM28.62 18.694l-1.8 1.8a.585.585 0 1 0 .83.826l1.801-1.8a.585.585 0 1 0-.83-.826z" fill="#131414"/><path d="m26.879 20.427-1.802 1.799a.585.585 0 1 0 .83.826l1.802-1.799a.585.585 0 1 0-.83-.826z" fill="#131414"/><path d="m25.215 22.086-1.802 1.799a.585.585 0 1 0 .83.826l1.802-1.799a.585.585 0 1 0-.83-.826z" fill="#131414"/><path d="m23.574 23.725-1.802 1.8a.585.585 0 1 0 .83.825l1.802-1.799a.585.585 0 1 0-.83-.826z" fill="#131414"/><path d="m22.89 24.404-1.801 1.8a.585.585 0 1 0 .83.826l1.802-1.8a.585.585 0 0 0 0-.826.58.58 0 0 0-.83 0z" fill="#131414"/><path d="m25.53 7.914 9.373 9.372-9.866 9.866-9.373-9.372 9.866-9.866z" fill="#fff"/><path fill-rule="evenodd" clip-rule="evenodd" d="M10.897 21.689a1.446 1.446 0 0 0 0 2.046l8.077 8.036a1.464 1.464 0 0 0 2.058 0l13.53-13.46a1.446 1.446 0 0 0 0-2.046l-8.078-8.036a1.464 1.464 0 0 0-2.058 0l-13.529 13.46zm8.648 9.515-8.077-8.036a.646.646 0 0 1 0-.912l13.53-13.46a.654.654 0 0 1 .916 0l8.077 8.037a.646.646 0 0 1 0 .911l-13.53 13.46a.654.654 0 0 1-.916 0z" fill="#0E0F0F"/><path d="M29.16 11.485 19.1 21.493l-1.89-1.872L27.27 9.611l1.89 1.873z" fill="#0E0F0F"/><path d="M20.744 31.488a1.059 1.059 0 0 1-1.486 0l-13.53-13.46a1.046 1.046 0 0 1 0-1.48l8.078-8.028a1.059 1.059 0 0 1 1.487 0l13.529 13.46a1.046 1.046 0 0 1 0 1.479l-8.078 8.029z" fill="#fff"/><path fill-rule="evenodd" clip-rule="evenodd" d="m5.444 18.312 13.53 13.46a1.464 1.464 0 0 0 2.057 0l8.077-8.03a1.446 1.446 0 0 0 0-2.046l-13.53-13.46a1.464 1.464 0 0 0-2.056 0l-8.078 8.029a1.446 1.446 0 0 0 0 2.047zm23.094 4.863-8.078 8.029a.654.654 0 0 1-.916 0l-13.53-13.46a.646.646 0 0 1 0-.912l8.078-8.029a.654.654 0 0 1 .917 0l13.529 13.46a.646.646 0 0 1 0 .912z" fill="#0E0F0F"/><path d="M18.715 27.923a.848.848 0 0 1-1.192-.013l-10-9.948a.83.83 0 0 1-.007-1.18l6.41-6.376a.84.84 0 0 1 1.185.006l10 9.942c.328.333.335.86.013 1.186l-6.41 6.383z" fill="#fff"/><path fill-rule="evenodd" clip-rule="evenodd" d="M17.468 27.967a.929.929 0 0 0 1.306.013l6.41-6.383a.924.924 0 0 0-.013-1.3l-10-9.941a.92.92 0 0 0-1.3-.007l-6.41 6.377a.91.91 0 0 0 .008 1.293l10 9.948zm7.588-7.556a.764.764 0 0 1 .013 1.073l-6.409 6.383a.767.767 0 0 1-1.078-.014l-10-9.948a.75.75 0 0 1-.007-1.065l6.41-6.377a.759.759 0 0 1 1.072.006l10 9.942z" fill="#0E0F0F"/><path d="M23.758 25.557c.322.32.322.84 0 1.16a.828.828 0 0 1-1.165 0 .817.817 0 0 1 0-1.16.816.816 0 0 1 1.165 0z" fill="#fff"/><path fill-rule="evenodd" clip-rule="evenodd" d="M22.564 26.925a.994.994 0 0 0 1.4 0 .987.987 0 0 0 .001-1.398.98.98 0 0 0-1.402 0 .987.987 0 0 0 0 1.398zm.125-1.274a.804.804 0 0 1 1.151 0 .811.811 0 0 1 0 1.149.816.816 0 0 1-1.151 0 .811.811 0 0 1 0-1.149z" fill="#0E0F0F"/></svg>