<svg width="40" height="40" viewBox="0 0 40 40" fill="none" xmlns="http://www.w3.org/2000/svg">
<rect width="40" height="40" rx="12" fill="#534B63"/>
<path d="M19.0634 16.5018C20.2851 16.8269 21.0996 17.9648 21.0996 19.2652V31.0498C21.181 31.9439 20.5294 32.7566 19.6335 33.0004C19.552 33.0004 19.4706 33.0004 19.3891 33.0004C19.2262 33.0004 19.0634 33.0004 18.9005 32.9191C16.8643 32.1877 14.8281 31.5375 12.8733 30.7247C11.6516 30.1558 11 29.3431 11 28.0427V14.6325C11 13.4134 11.6516 12.682 12.629 12.1943C12.3032 12.5194 12.2217 13.0071 12.3032 13.4947C12.4661 13.9011 12.7104 14.2262 13.1176 14.3075C15.0724 15.1202 17.1086 15.8517 19.0634 16.5018ZM18.5747 25.767C19.0634 25.8483 19.4706 25.2794 19.4706 24.6292C19.4706 23.979 19.0634 23.3288 18.5747 23.3288C18.086 23.2476 17.6787 23.8165 17.6787 24.4667C17.6787 25.1981 18.086 25.767 18.5747 25.767Z" fill="#ED1C24"/>
<path fill-rule="evenodd" clip-rule="evenodd" d="M28.9182 12.4378C24.3571 14.0633 20.692 15.3637 18.1671 16.2577L19.063 16.5828C20.2847 16.9079 21.0992 18.0457 21.0992 19.3461V25.6854L26.9635 23.491C28.1037 23.0847 28.9182 22.0281 28.9997 20.809V12.4378H28.9182ZM12.3028 13.4944C12.4657 13.9007 12.7101 14.2258 13.1173 14.3071L14.9091 14.9573L28.9182 9.83706V8.21159C28.5924 7.15503 27.4521 6.74866 26.3119 7.15503C22.8911 8.45541 16.1309 10.8936 12.7101 12.1127H12.6286C12.3028 12.5191 12.2214 13.0067 12.3028 13.4944Z" fill="#F99D1C"/>
</svg>
