<svg width="40" height="40" viewBox="0 0 40 40" fill="none" xmlns="http://www.w3.org/2000/svg">
<rect width="40" height="40" rx="12" fill="white"/>
<path fill-rule="evenodd" clip-rule="evenodd" d="M22.358 10.9834C22.6879 11.0934 23.0179 11.1484 23.4028 11.2034C28.3524 11.9733 31.4871 13.0182 31.2671 17.7477C31.2671 18.1877 30.7721 18.1877 30.6621 17.8027C29.4522 13.5682 25.3277 14.2281 21.3681 11.5334C21.698 11.4234 22.028 11.2034 22.358 10.9834ZM20.7081 9.71856L20.8731 10.0485C20.7082 10.1585 20.5432 10.2135 20.3781 10.2685C20.2132 10.3235 20.0482 10.3785 19.8832 10.3785L19.8282 10.3235C19.6633 10.3785 19.4433 10.3785 19.2783 10.3785C18.3434 10.3235 17.6835 9.49859 17.7385 8.56368L17.8485 8.17873C18.0684 7.4638 18.7833 7.02385 19.5533 7.07884C20.4882 7.13383 21.1481 7.95875 21.0931 8.89365C20.9831 9.16862 20.8731 9.49859 20.7081 9.71856ZM21.588 9.77356C21.0931 10.5985 20.1032 10.8185 18.6733 10.8185C13.6689 10.7635 10.4242 11.3134 9.8742 15.9329C9.81921 16.263 9.98418 16.4279 10.0943 16.4279C10.2042 16.4279 10.3692 16.3729 10.4242 16.2079C12.5689 11.6984 17.2985 14.0081 22.358 10.5985C22.523 10.6535 22.7429 10.7085 22.9079 10.7635C23.8428 10.8184 24.6127 10.1585 24.7227 9.22361C24.7227 9.05863 24.7227 8.94865 24.7227 8.78367C24.6127 8.06875 24.0078 7.4638 23.2379 7.40881C22.303 7.35382 21.533 8.01374 21.4231 8.94865C21.3681 9.22361 21.4231 9.49859 21.588 9.77356Z" fill="#9E0E72"/>
<path fill-rule="evenodd" clip-rule="evenodd" d="M17.7928 19.7819C17.4629 21.7067 17.6278 23.6865 18.1778 25.4463C16.803 25.2263 15.4831 24.8414 14.2732 24.2364C14.1082 22.4216 14.5482 20.6068 15.5381 19.012C16.253 19.2869 16.968 19.562 17.7928 19.7819ZM13.2833 17.3621C12.2385 18.4071 11.4135 19.7269 11.0286 21.1568C11.4135 21.8717 11.9084 22.4766 12.5134 23.0266C12.4034 21.2668 12.8983 19.4519 13.9433 17.967C13.7233 17.7471 13.5033 17.5821 13.2833 17.3621ZM17.6828 14.8324C16.6379 15.1074 15.6481 15.5473 14.7131 16.1522L15.0982 16.5372C15.868 15.8773 16.6929 15.2724 17.6828 14.8324ZM25.0521 18.847C24.3372 17.1972 23.2923 15.7123 21.9174 14.7774C20.9275 15.9323 20.2126 17.3621 19.7727 18.847C21.5325 19.2319 23.3473 19.1769 25.0521 18.847ZM26.042 24.3465C26.097 22.6966 25.8221 20.9917 25.2721 19.3969C23.5673 20.0569 21.5325 20.2768 19.4976 20.0569C19.1677 21.8717 19.1677 23.7415 19.6076 25.5563C21.8074 25.6663 24.1172 25.2813 26.042 24.3465ZM23.7322 15.2723C24.7771 16.1522 25.6021 17.3071 26.152 18.627C26.5919 18.517 26.9769 18.3521 27.4169 18.2421C27.0869 18.517 26.7019 18.737 26.317 18.957C26.9219 20.4968 27.1969 22.2016 27.1419 23.7965C27.8568 23.3565 28.5167 22.8616 29.0667 22.2566C28.5717 23.1366 27.8568 23.9064 27.0869 24.5114C26.8119 26.7662 25.8771 28.801 24.1172 29.9558C25.2171 28.746 25.8771 27.0411 26.097 25.2263C24.3372 26.2712 22.2474 26.8211 20.0476 26.9311C20.4876 28.306 21.2025 29.6259 22.0824 30.7258C20.7625 29.9008 19.6076 28.581 18.8377 26.9311C17.4629 26.8761 16.033 26.6562 14.7681 26.2712C15.3181 27.8661 16.363 29.3509 17.9578 30.5608C15.5381 29.4609 13.9433 27.6461 13.1183 25.6113C12.2934 25.1713 11.5235 24.6764 10.9186 24.0714C11.4685 28.196 15.1532 31.3857 19.9926 31.3857C22.5773 31.3857 24.9971 30.4508 26.7019 28.911C28.4067 27.3711 29.4517 25.2813 29.4517 22.9716C29.4517 20.6618 28.4067 18.517 26.7019 17.0322C25.8221 16.2622 24.8321 15.6573 23.7322 15.2723ZM19.9377 13.0176C23.0173 13.0176 25.8221 14.1175 27.8568 15.9323C29.8916 17.7471 31.1565 20.2219 31.1565 22.9716C31.1565 25.7213 29.8916 28.196 27.8568 30.0108C25.8221 31.8257 23.0173 32.9255 19.9377 32.9255C16.858 32.9255 14.0532 31.8257 12.0184 30.0108C9.98364 28.196 8.71875 25.7213 8.71875 22.9716C8.71875 20.2219 9.98364 17.7471 12.0184 15.9323C14.0532 14.1175 16.858 13.0176 19.9377 13.0176ZM20.0476 14.9424C19.1677 15.9873 18.5078 17.1422 18.1229 18.3521C17.5729 18.1321 17.0229 17.8571 16.528 17.5821C17.4079 16.5373 18.6178 15.6023 20.0476 14.9424Z" fill="#FBB800"/>
</svg>
