<svg width="40" height="40" fill="none" xmlns="http://www.w3.org/2000/svg"><rect width="40" height="40" rx="12" fill="#fff"/><path d="M21.931 7c-6.128 0-11.068 4.977-11.068 11.069V21.3H7v2.674h3.863v5.163h5.163V33H18.7v-3.863h3.231C28.023 29.137 33 24.197 33 18.07 33 11.94 28.023 7 21.931 7zM13.5 26.5v-2.526h2.526V26.5H13.5zm8.431 0H18.7v-2.526h3.083c3.157 0 5.757-2.6 5.757-5.757 0-3.157-2.6-5.757-5.757-5.757-3.157 0-5.757 2.6-5.757 5.757V21.3H13.5v-3.231c0-4.643 3.789-8.432 8.431-8.432 4.643 0 8.432 3.789 8.432 8.432 0 4.642-3.789 8.431-8.432 8.431zM18.7 21.3v-3.083a3.075 3.075 0 0 1 3.083-3.083 3.075 3.075 0 0 1 3.083 3.083 3.075 3.075 0 0 1-3.083 3.083H18.7z" fill="url(#a)"/><defs><linearGradient id="a" x1="28.129" y1="27.526" x2="12.474" y2="11.871" gradientUnits="userSpaceOnUse"><stop stop-color="#0056D6"/><stop offset="1" stop-color="#0088F1"/></linearGradient></defs></svg>