<svg width="40" height="40" fill="none" xmlns="http://www.w3.org/2000/svg"><rect width="40" height="40" rx="12" fill="#F9AA00"/><g clip-path="url(#a)"><path d="M2.875 22.28v-4.56c0-2.283.993-3.22 3.595-3.22 2.603 0 3.683.937 3.683 3.22v4.56c0 2.224-1.119 3.22-3.68 3.22-2.56 0-3.598-.993-3.598-3.22zm5.346-.098v-4.364c0-.978-.253-1.61-1.754-1.61-1.403 0-1.666.632-1.666 1.61v4.367c0 1.021.266 1.61 1.666 1.61s1.754-.589 1.754-1.61v-.003zM19.619 22.073c0 2.364-1.12 3.36-3.68 3.36s-3.595-.996-3.595-3.216v-4.385c0-2.28.992-3.22 3.595-3.22s3.68.94 3.68 3.347h-1.93c0-1.053-.252-1.639-1.753-1.639-1.403 0-1.666.59-1.666 1.61v4.185c0 1.02.266 1.61 1.666 1.61s1.753-.59 1.753-1.652h1.93zM25.461 22.855l-2.14-4.339.225 3.08V25.4h-1.933V14.626h1.863l2.2 4.784 2.206-4.784h1.862v10.775h-1.933v-3.805l.225-3.08-2.14 4.339h-.435z" fill="#000"/><path d="m37.126 20.705-1.996-.01 1.712 4.707h-1.764l-1.747-4.683h-1.694v-6.117l5.49 6.103z" fill="#fff"/></g><defs><clipPath id="a"><path fill="#fff" transform="translate(2.875 14.5)" d="M0 0h34.252v11H0z"/></clipPath></defs></svg>