<svg width="40" height="40" viewBox="0 0 40 40" fill="none" xmlns="http://www.w3.org/2000/svg">
<rect width="40" height="40" rx="12" fill="#F89196"/>
<g clip-path="url(#clip0_25202_142138)">
<path fill-rule="evenodd" clip-rule="evenodd" d="M35.7197 16.6684C36.0918 16.6684 36.396 16.9504 36.396 17.295C36.396 17.6397 36.0918 17.9217 35.7197 17.9217C35.348 17.9217 35.0435 17.6397 35.0435 17.295C35.0435 16.9504 35.348 16.6684 35.7197 16.6684ZM35.6973 16.9295C35.686 16.9295 35.6748 16.9295 35.6635 16.9295C35.6523 16.9295 35.641 16.9295 35.6297 16.9295C35.6182 16.9295 35.607 16.9295 35.5957 16.9295C35.5845 16.9295 35.5732 16.9295 35.5732 16.9295V17.2428H35.6748C35.731 17.2428 35.7875 17.2324 35.8213 17.201C35.855 17.1697 35.8775 17.1279 35.8775 17.0757C35.8775 17.0339 35.8662 16.9922 35.8325 16.9713C35.7988 16.9399 35.7535 16.9295 35.6973 16.9295ZM35.4605 16.8668C35.4945 16.8564 35.5282 16.8564 35.5732 16.8564C35.6185 16.8564 35.6523 16.8564 35.686 16.8564C35.731 16.8564 35.765 16.8564 35.7988 16.8668C35.8325 16.8773 35.8662 16.8877 35.8887 16.9086C35.9115 16.9295 35.934 16.9504 35.9565 16.9817C35.9678 17.0131 35.979 17.0444 35.979 17.0862C35.979 17.1488 35.9565 17.201 35.9227 17.2428C35.8887 17.2846 35.8325 17.3159 35.7762 17.3264L35.8438 17.3681L36.0692 17.7024H35.9453L35.6973 17.3368L35.5732 17.3159V17.7024H35.4605V16.8668ZM9.7545 23.9896L9.61925 22.9765L4.88599 22.9869L4.76202 24H3.69141V21.7755H4.42393C5.32551 20.7206 5.48328 18.9452 5.49455 17.4204C5.50582 15.8329 6.15948 16.0209 7.10613 16.0104L9.99115 16L10.0024 21.765L10.8138 21.7546L10.8251 23.9896H9.7545ZM29.9272 22.9452C30.2652 22.8512 30.626 22.7049 30.84 22.5901L30.4907 21.6188C30.006 21.8695 29.4425 22.0992 28.8905 22.0992C28.6875 22.0992 28.5185 22.0052 28.3945 21.9321C28.2705 21.859 28.2142 21.7337 28.2255 21.5666C28.2255 21.4308 28.2931 21.3264 28.417 21.2428C28.541 21.1593 28.6987 21.0862 28.879 21.0235C29.0595 20.9608 29.2622 20.8877 29.4765 20.8146C29.6905 20.7415 29.8935 20.6475 30.0737 20.5222C30.254 20.3969 30.4118 20.2402 30.547 20.0522C30.6823 19.8642 30.75 19.6136 30.7612 19.3212C30.7837 18.8303 30.6373 18.4543 30.333 18.1932C29.7355 17.6815 28.6087 17.7546 27.8648 17.9321C27.5267 18.0157 27.2675 18.0992 27.076 18.2037L27.3465 19.1436C27.7972 18.9869 28.2705 18.7885 28.744 18.7781C29.1607 18.7781 29.3638 18.9974 29.3525 19.2898C29.3525 19.4151 29.2847 19.5092 29.1607 19.5823C29.037 19.6554 28.879 19.7285 28.6987 19.7911C28.5185 19.8538 28.3156 19.9269 28.1015 20C27.8874 20.0731 27.6845 20.1671 27.5042 20.282C27.3239 20.3969 27.1661 20.5535 27.0309 20.7415C26.8956 20.9295 26.828 21.1697 26.8168 21.4622C26.7942 21.9634 26.952 22.3603 27.2901 22.6528C27.9324 23.1958 29.127 23.1541 29.9272 22.9452ZM31.3248 18.235C31.6063 18.1097 31.9557 18.0157 32.3503 17.953C32.7445 17.8799 33.1615 17.8486 33.5898 17.8486C33.9618 17.8486 34.2773 17.8903 34.5252 17.9739C34.7732 18.0574 34.976 18.1723 35.1225 18.329C35.269 18.4856 35.3705 18.6632 35.438 18.8721C35.5058 19.081 35.5283 19.3212 35.5283 19.5927C35.5283 19.8851 35.517 20.1775 35.4945 20.47C35.4717 20.7624 35.4605 21.0548 35.4605 21.3472C35.4605 21.6293 35.4717 21.9112 35.4945 22.1828C35.517 22.4543 35.5733 22.705 35.6635 22.9452H34.5252L34.2997 22.2559H34.2435C34.097 22.4648 33.9055 22.6841 33.6462 22.8303C33.387 22.9765 33.0603 23.0601 32.6658 23.0601C32.4178 23.0601 32.1925 23.0287 31.9895 22.9556C31.3698 22.7363 31.0203 22.1723 31.0203 21.5666C31.0203 21.2637 31.0993 21.0026 31.2345 20.7937C31.381 20.5848 31.595 20.4177 31.8655 20.282C32.136 20.1566 32.4743 20.0627 32.8573 20.0104C33.2405 19.9582 33.6688 19.9478 34.142 19.9582C34.187 19.5823 34.1645 19.3212 34.052 19.1541C33.9393 18.987 33.7025 18.9139 33.3307 18.9139C33.049 18.9139 32.756 18.9452 32.4403 18.9974C32.1248 19.0496 31.8767 19.1227 31.674 19.2063L31.3248 18.235ZM33.1165 21.9426C33.3983 21.9426 33.6238 21.8799 33.7815 21.765C33.9505 21.6501 34.0632 21.5248 34.142 21.389V20.7415C33.9167 20.7206 33.7025 20.7206 33.4998 20.7311C33.2968 20.7415 33.1165 20.7729 32.9587 20.8251C32.801 20.8773 32.677 20.9399 32.5868 21.0235C32.4967 21.107 32.4515 21.2219 32.4515 21.3577C32.4515 21.5457 32.508 21.6919 32.632 21.7964C32.7445 21.8903 32.9025 21.9426 33.1165 21.9426ZM23.6612 22.047C23.9204 22.0783 24.1346 22.0783 24.3375 22.0157C24.7432 21.9008 25.0136 21.6606 25.0136 21.2428C25.0136 20.8146 24.6981 20.5953 24.067 20.5953C23.8303 20.5953 23.5936 20.658 23.4246 20.7311V21.5248C23.4246 21.7754 23.3908 22.0157 23.6612 22.047ZM23.4246 19.812C23.7402 19.7076 24.0895 19.6762 24.4276 19.6658C24.7995 19.6658 25.1151 19.7076 25.3743 19.7807C25.6334 19.8538 25.8476 19.9687 26.0054 20.1045C26.1631 20.2402 26.2871 20.4073 26.3547 20.5953C26.4223 20.7833 26.4674 20.9922 26.4674 21.2115C26.4674 21.8172 26.2758 22.2663 25.8927 22.5692C25.5095 22.8721 24.8333 23.0914 23.9092 23.0914C22.9964 23.0914 22.0497 22.9138 22.0384 21.8068L22.0271 17.9739H23.4246V19.812ZM19.6605 20.8251H17.9024V22.9556H16.505V17.9843H17.9024V19.8642H19.6605V17.9843H21.0579L21.0692 22.9765H19.6718L19.6605 20.8251ZM15.6147 22.5378C15.4006 22.6945 15.1076 22.8303 14.7357 22.9452C14.3638 23.0601 13.9693 23.1123 13.5524 23.1123C12.6846 23.1123 12.0535 22.8825 11.6478 22.4125C11.2421 21.9426 11.0392 21.3055 11.0392 20.4804C11.0392 19.6031 11.2646 18.9452 11.7154 18.5065C12.1662 18.0679 12.7973 17.8486 13.62 17.8486C13.8905 17.8486 14.1609 17.8799 14.4201 17.9426C14.6793 18.0052 14.9047 18.1201 15.1076 18.2663C15.3104 18.423 15.4682 18.6214 15.5922 18.8825C15.7161 19.1436 15.7725 19.4674 15.7725 19.8538C15.7725 20.2716 15.5922 20.8042 14.9498 20.8042L12.4367 20.8146C12.4592 21.2324 12.5719 21.5457 12.786 21.765C13.0001 21.9739 13.3383 22.0783 13.8116 22.0783C14.1046 22.0783 14.3638 22.0366 14.6004 21.953C14.8371 21.8695 15.0062 21.7859 15.1301 21.7024L15.6147 22.5378ZM13.6087 18.8825C13.2481 18.8825 12.9776 18.9869 12.7973 19.1854C12.617 19.3942 12.5155 19.6553 12.4817 20H13.9017C14.2736 20 14.5328 20.0313 14.4765 19.6136C14.4539 19.436 14.3976 19.2898 14.3074 19.1645C14.1496 18.9765 13.9243 18.8825 13.6087 18.8825ZM8.5261 21.765L8.51482 17.0026H7.5231C7.02723 17.0026 6.85817 16.9086 6.82437 17.5561C6.7793 18.5483 6.67788 19.4883 6.54262 20.1253C6.38485 20.8773 6.10313 21.4935 5.88899 21.765H8.5261ZM35.7197 16.7102C36.0692 16.7102 36.351 16.9713 36.351 17.295C36.351 17.6188 36.0692 17.8799 35.7197 17.8799C35.3705 17.8799 35.0888 17.6188 35.0888 17.295C35.0888 16.9713 35.3705 16.7102 35.7197 16.7102Z" fill="white"/>
</g>
<defs>
<clipPath id="clip0_25202_142138">
<rect width="33" height="8" fill="white" transform="translate(3.5 16)"/>
</clipPath>
</defs>
</svg>
