<svg width="40" height="40" viewBox="0 0 40 40" fill="none" xmlns="http://www.w3.org/2000/svg">
<rect width="40" height="40" rx="12" fill="white"/>
<path fill-rule="evenodd" clip-rule="evenodd" d="M27.2033 8.04227C29.5552 9.25688 30.9318 12.0586 31.0469 14.021C30.0454 10.8906 28.2435 9.44382 26.3577 8.59653C25.7029 9.07754 25.5263 9.20055 25.5263 9.20055L24.1493 8.88887C24.1493 8.88887 24.0757 8.65977 23.8223 7.9037C18.5589 7.62243 14.5832 10.8982 12.2815 14.7636C12.7302 15.4885 12.8868 15.777 12.8868 15.777L12.1066 17.5677C12.1066 17.5677 11.8279 17.6126 10.9533 17.7007C8.17206 26.9698 14.0702 30.5756 14.0702 30.5756L15.2532 30.022L16.6378 30.6513C16.6378 30.6513 16.6907 30.8689 16.8842 31.8033C20.0222 32.5977 24.3647 31.4218 27.9321 27.8906C25.257 32.3344 18.4437 34.3746 14.027 31.9968C8.63877 29.097 7.3548 21.2143 11.0629 14.5645C14.771 7.91511 22.0471 5.37877 27.2033 8.04227Z" fill="#C51617"/>
<path fill-rule="evenodd" clip-rule="evenodd" d="M19.601 9C19.7625 9 19.8932 9.13096 19.8932 9.29268C19.8932 9.45405 19.7625 9.58502 19.601 9.58502C19.4396 9.58502 19.3086 9.45405 19.3086 9.29268C19.3089 9.13096 19.4396 9 19.601 9Z" fill="#C51617"/>
<path fill-rule="evenodd" clip-rule="evenodd" d="M21.1635 30.5342C21.325 30.5342 21.4557 30.6651 21.4557 30.8265C21.4557 30.9882 21.325 31.1188 21.1635 31.1188C21.0021 31.1188 20.8711 30.9879 20.8711 30.8265C20.8711 30.6651 21.0018 30.5342 21.1635 30.5342Z" fill="#C51617"/>
<path fill-rule="evenodd" clip-rule="evenodd" d="M15.4932 11.8506C15.6816 11.8506 15.8341 12.0033 15.8341 12.192C15.8341 12.3807 15.6813 12.5334 15.4932 12.5334C15.3052 12.5334 15.1523 12.3807 15.1523 12.192C15.1523 12.0037 15.3048 11.8506 15.4932 11.8506Z" fill="#C51617"/>
<path fill-rule="evenodd" clip-rule="evenodd" d="M11.1225 21.1943C11.3109 21.1943 11.4633 21.3471 11.4633 21.5358C11.4633 21.7241 11.3109 21.8768 11.1225 21.8768C10.9341 21.8768 10.7812 21.7241 10.7812 21.5358C10.7812 21.3471 10.9341 21.1943 11.1225 21.1943Z" fill="#C51617"/>
<path fill-rule="evenodd" clip-rule="evenodd" d="M11.9818 26.3691C12.1703 26.3691 12.3227 26.5219 12.3227 26.7102C12.3227 26.8989 12.1699 27.0516 11.9818 27.0516C11.7934 27.0516 11.6406 26.8989 11.6406 26.7102C11.6406 26.5219 11.7934 26.3691 11.9818 26.3691Z" fill="#C51617"/>
<path fill-rule="evenodd" clip-rule="evenodd" d="M29.2473 11.5635C29.3818 11.5635 29.491 11.6727 29.491 11.8071C29.491 11.9419 29.3818 12.0511 29.2473 12.0511C29.1128 12.0511 29.0039 11.9419 29.0039 11.8071C29.0039 11.6727 29.1128 11.5635 29.2473 11.5635Z" fill="#C51617"/>
<path fill-rule="evenodd" clip-rule="evenodd" d="M26.4664 28.0195C26.6009 28.0195 26.7101 28.1283 26.7101 28.2635C26.7101 28.3979 26.6009 28.5071 26.4664 28.5071C26.3319 28.5071 26.2227 28.3979 26.2227 28.2635C26.223 28.1283 26.3319 28.0195 26.4664 28.0195Z" fill="#C51617"/>
<path fill-rule="evenodd" clip-rule="evenodd" d="M16.8242 28.0566V12.9219H22.6463C23.8971 12.9219 24.9995 13.1209 25.9519 13.519C26.9044 13.9167 27.7009 14.4564 28.3404 15.1389C28.98 15.8211 29.4637 16.6203 29.7904 17.5371C30.1174 18.4534 30.2813 19.4303 30.2813 20.468C30.2813 21.619 30.0998 22.6602 29.7371 23.5911C29.3748 24.5216 28.8594 25.3178 28.1911 25.9785C27.5225 26.6389 26.7194 27.1506 25.7815 27.5131C24.8429 27.8752 23.7978 28.0566 22.6463 28.0566H16.8242ZM26.0584 20.468C26.0584 19.8854 25.9803 19.3526 25.8237 18.8695C25.6674 18.3861 25.4438 17.9742 25.152 17.6331C24.8609 17.292 24.5017 17.0253 24.0751 16.8335C23.6485 16.6417 23.1721 16.5457 22.6463 16.5457H20.9827V24.4325H22.6463C23.1866 24.4325 23.6699 24.3333 24.0962 24.1343C24.5228 23.9352 24.8816 23.6581 25.1734 23.3032C25.4645 22.948 25.6854 22.5285 25.8344 22.0451C25.9837 21.5624 26.0584 21.0364 26.0584 20.468Z" fill="#005C32"/>
<path fill-rule="evenodd" clip-rule="evenodd" d="M21.3996 26.7034H13.31C13.4811 27.1675 13.6803 27.6191 13.9074 28.0555H21.3996V26.7034ZM21.3996 12.9229H15.9816C15.702 13.2618 15.4337 13.616 15.1789 13.9858C15.1125 14.0818 15.0479 14.1783 14.9843 14.275H21.3996V12.9229ZM21.3996 15.1264H14.464C14.2116 15.5705 13.9848 16.0221 13.7829 16.4786H21.3996V15.1264ZM21.3996 24.4999H12.7227C12.8008 24.9584 12.9042 25.4097 13.0314 25.8519H21.3996V24.4999Z" fill="#005C32"/>
</svg>
