<svg width="40" height="40" viewBox="0 0 40 40" fill="none" xmlns="http://www.w3.org/2000/svg">
<rect width="40" height="40" rx="12" fill="white"/>
<path fill-rule="evenodd" clip-rule="evenodd" d="M33.0927 30.1514C33.583 30.1514 33.9815 29.7529 33.9815 29.2626C33.9815 28.7724 33.5845 28.3754 33.0958 28.3738L12.2011 28.3058C12.1157 24.2493 12.0287 20.1959 11.9497 16.1394L24.1129 16.1773C24.1825 19.4953 24.2553 22.8101 24.3106 26.1281C24.3122 26.2309 24.396 26.3147 24.5004 26.3147C24.6048 26.3147 24.6902 26.2293 24.6902 26.1249C24.7266 22.8212 24.8151 19.5159 24.8151 16.2121C24.8151 15.6697 24.4688 15.3344 23.9374 15.3344L11.9323 15.1541C11.9022 13.5489 11.8722 11.9421 11.8453 10.3369C11.8437 10.1502 11.6919 10 11.5037 10C11.3155 10 11.1621 10.1534 11.1621 10.3416C11.0956 16.307 10.9375 22.2756 10.9375 28.241C10.9375 29.2199 11.5638 29.8256 12.5222 29.8256L33.0927 30.1514Z" fill="#0A2C59"/>
<path fill-rule="evenodd" clip-rule="evenodd" d="M6.8888 10.792C6.39854 10.792 6 11.1905 6 11.6808C6 12.1711 6.39696 12.568 6.88564 12.5696L27.7804 12.6376C27.8658 16.6941 27.9528 20.7475 28.0318 24.8041L15.8685 24.7661C15.799 21.4481 15.7262 18.1333 15.6709 14.8153C15.6693 14.7125 15.5855 14.6287 15.4811 14.6287C15.3767 14.6287 15.2913 14.7141 15.2913 14.8185C15.2549 18.1222 15.1664 21.4276 15.1664 24.7313C15.1664 25.2738 15.5127 25.609 16.0441 25.609L28.0492 25.7893C28.0793 27.3945 28.1093 29.0013 28.1362 30.6066C28.1378 30.7932 28.2896 30.9434 28.4778 30.9434C28.666 30.9434 28.8194 30.79 28.8194 30.6018C28.8858 24.6364 29.044 18.6678 29.044 12.7024C29.044 11.7235 28.4177 11.1178 27.4593 11.1178L6.8888 10.792Z" fill="#1761BF"/>
<path fill-rule="evenodd" clip-rule="evenodd" d="M30.4423 30.1039C31.233 30.126 32.1582 30.1592 32.9394 30.1355C33.8029 30.1086 34.2553 29.3669 33.7808 28.7232C33.3949 28.1998 32.2736 28.3753 31.5256 28.3737C30.651 28.3706 29.778 28.35 28.8987 28.35L28.875 30.0327C29.3684 30.0327 30.0532 29.96 30.4423 30.1055V30.1039Z" fill="#1E2E64"/>
</svg>
