<svg width="40" height="40" viewBox="0 0 40 40" fill="none" xmlns="http://www.w3.org/2000/svg">
<rect width="40" height="40" rx="12" fill="#4BA45E"/>
<path fill-rule="evenodd" clip-rule="evenodd" d="M19.6395 12.7804C24.7406 13.0692 27.283 8.64544 27.6797 6.68472C24.8586 6.2637 19.9283 8.1817 19.3812 12.4977C19.3596 12.0934 19.3794 11.6878 19.4402 11.2875C19.2368 10.5573 18.8768 10.0387 18.2646 9.43664C17.7134 9.18036 16.8083 9.43664 17.1052 9.81088C18.9602 11.3892 18.8971 12.5262 19.0985 13.2299C19.3019 13.2299 19.4565 13.2686 19.6558 13.2686C19.6558 13.0977 19.6558 12.935 19.6416 12.7804" fill="white"/>
<path fill-rule="evenodd" clip-rule="evenodd" d="M20.0014 12.752C22.0404 12.752 24.0337 13.3566 25.7291 14.4894C27.4246 15.6221 28.746 17.2322 29.5264 19.116C30.3068 20.9998 30.5111 23.0727 30.1135 25.0726C29.7158 27.0725 28.7341 28.9095 27.2924 30.3515C25.8507 31.7935 24.0138 32.7756 22.014 33.1736C20.0142 33.5717 17.9413 33.3678 16.0574 32.5877C14.1734 31.8077 12.5631 30.4866 11.4299 28.7914C10.2968 27.0962 9.69181 25.103 9.69141 23.064C9.69141 20.3294 10.7776 17.7068 12.711 15.773C14.6445 13.8392 17.2668 12.7525 20.0014 12.752Z" fill="url(#paint0_linear_25202_142092)"/>
<defs>
<linearGradient id="paint0_linear_25202_142092" x1="25.1574" y1="31.993" x2="14.8454" y2="14.133" gradientUnits="userSpaceOnUse">
<stop stop-color="#FF7E01"/>
<stop offset="0.25" stop-color="#FF8204"/>
<stop offset="0.5" stop-color="#FF8F0C"/>
<stop offset="0.76" stop-color="#FFA31A"/>
<stop offset="1" stop-color="#FFBE2C"/>
</linearGradient>
</defs>
</svg>
