<svg width="40" height="40" viewBox="0 0 40 40" fill="none" xmlns="http://www.w3.org/2000/svg">
<rect width="40" height="40" rx="12" fill="#369C28"/>
<path d="M12.972 24.6139H13.0234C13.6153 24.6139 14.13 24.9658 14.3616 25.5187C15.0049 27.052 16.5747 28.1328 18.4017 28.0574C20.5119 27.9568 22.236 26.2728 22.339 24.2117C22.4419 21.8993 20.5633 19.9891 18.1959 19.9891C16.446 19.9891 14.9792 21.0447 14.3616 22.5277C14.13 23.0807 13.5896 23.4325 12.9977 23.4325H12.972C11.9683 23.4325 11.2478 22.4774 11.5566 21.5474C12.5859 18.481 15.4938 16.2188 18.9421 16.068L16.0857 11.1667C15.571 10.287 15.8798 9.18106 16.7548 8.67837C17.6555 8.17567 18.7877 8.47728 19.3024 9.357L22.6735 15.0626L21.2839 10.0105C21.0523 9.15593 21.5669 8.25107 22.4419 8.02486C23.3168 7.79864 24.2433 8.30134 24.4748 9.15593L26.0446 14.8867V11.5689C26.0446 10.8902 26.6107 10.3624 27.2798 10.3624C27.9746 10.3624 28.515 10.9154 28.515 11.5689V23.4577C28.515 23.4828 28.515 23.508 28.515 23.5331C28.515 28.2082 24.6292 32.0287 19.8171 32.0287C19.637 32.0287 19.4825 32.0287 19.3024 32.0287C15.6997 32.0287 12.6117 29.7414 11.5566 26.5493C11.2735 25.5941 11.9683 24.6139 12.972 24.6139Z" fill="#F97C13"/>
</svg>
