<svg width="40" height="40" fill="none" xmlns="http://www.w3.org/2000/svg"><rect width="40" height="40" rx="12" fill="#333A5A"/><g clip-path="url(#a)"><path d="M6.5 16.985a9.848 9.848 0 0 1 2.021-.203c1.633 0 2.45.775 2.45 2.325 0 1.713-.76 2.569-2.279 2.569a2.277 2.277 0 0 1-.979-.234v1.427H6.5v-5.884zm1.213 3.413c.298.168.634.255.975.253.723 0 1.084-.518 1.084-1.553 0-.88-.4-1.32-1.198-1.32a4.718 4.718 0 0 0-.86.065v2.555zm6.931.839a2.356 2.356 0 0 1-1.382.439c-1.174 0-1.761-.508-1.763-1.525 0-.972.696-1.458 2.087-1.458.329 0 .657.032.98.094v-.377c0-.439-.313-.658-.938-.658a7.456 7.456 0 0 0-1.748.234v-.972a7.485 7.485 0 0 1 1.759-.232c1.428 0 2.142.538 2.142 1.613v3.603l-1.135-.754-.002-.007zm-1.056-1.706c-.582 0-.873.203-.873.607 0 .435.243.652.73.652.407.002.802-.13 1.126-.377v-.79a4.86 4.86 0 0 0-.979-.094l-.004.002zm2.416-2.734h1.284l1.213 3.524 1.186-3.524h1.262l-1.842 4.89V22.9h-1.213l-.004-1.212-1.886-4.89zm6.435.217a9.852 9.852 0 0 1 2.028-.2c1.631 0 2.447.775 2.447 2.325 0 1.713-.76 2.569-2.279 2.569a2.283 2.283 0 0 1-.979-.232v1.425H22.44v-5.887zm1.214 3.416c.298.168.634.255.975.253.724 0 1.085-.518 1.084-1.553 0-.88-.4-1.32-1.198-1.32a4.735 4.735 0 0 0-.861.065v2.555zm4.33.257a2.126 2.126 0 0 0-.432-.044h-.1c-.146 0-.29.014-.432.044v.978c.142.03.286.044.431.043h.103c.145 0 .288-.014.43-.043v-.978zm5.378 0a2.125 2.125 0 0 0-.431-.044h-.102c-.145 0-.29.014-.431.044v.978c.142.03.286.044.431.043h.113c.144 0 .288-.014.43-.043v-.978h-.01zm-2.768-1.94h-.778c-.382 0-.57-.163-.563-.49.006-.326.332-.499.975-.518a4.606 4.606 0 0 1 1.589.277V17a5.16 5.16 0 0 0-1.557-.232c-1.424 0-2.136.512-2.136 1.538 0 .978.488 1.468 1.465 1.468h.87c.351 0 .527.163.527.49 0 .326-.26.497-.782.512a4.991 4.991 0 0 1-1.667-.264v1.018a5.572 5.572 0 0 0 1.622.226c1.355-.001 2.033-.514 2.033-1.54 0-.978-.534-1.468-1.602-1.468h.004z" fill="#fff"/></g><defs><clipPath id="a"><path fill="#fff" transform="translate(6.5 16.797)" d="M0 0h27.003v6.408H0z"/></clipPath></defs></svg>