<svg width="40" height="40" viewBox="0 0 40 40" fill="none" xmlns="http://www.w3.org/2000/svg">
<rect width="40" height="40" rx="12" fill="white"/>
<path fill-rule="evenodd" clip-rule="evenodd" d="M12.4379 10.6279H27.8637C28.2737 10.6279 28.6468 10.7958 28.9173 11.0662L28.918 11.067C29.1884 11.3374 29.3564 11.7104 29.3564 12.1206V21.5018C29.3564 21.9115 29.1885 22.2846 28.918 22.5554L28.9177 22.5558L28.9171 22.5562C28.6464 22.8267 28.2733 22.9945 27.8637 22.9945H12.4379C12.0273 22.9945 11.6541 22.8267 11.3836 22.5562C11.1133 22.2858 10.9453 21.9126 10.9453 21.5018V12.1206C10.9453 11.7105 11.1133 11.3374 11.3836 11.067V11.0662C11.654 10.7958 12.0273 10.6279 12.4379 10.6279ZM27.8637 11.0647H12.4379C12.1478 11.0647 11.8839 11.1836 11.6924 11.375L11.692 11.3745C11.5008 11.5659 11.3821 11.8302 11.3821 12.1206V21.5018C11.3821 21.7919 11.501 22.056 11.6924 22.2474C11.8839 22.4389 12.1478 22.5577 12.4379 22.5577H27.8637C28.1544 22.5577 28.4182 22.4392 28.6092 22.2482L28.6101 22.2474C28.8011 22.0565 28.9196 21.7926 28.9196 21.5018V12.1206C28.9196 11.8301 28.8009 11.5659 28.6097 11.3745C28.4182 11.1834 28.1541 11.0647 27.8637 11.0647Z" fill="#0078BF"/>
<path fill-rule="evenodd" clip-rule="evenodd" d="M14.4638 17.5264H25.8318C26.6713 17.5264 27.3582 18.2132 27.3582 19.0527V19.0528C27.3582 19.8924 26.6713 20.5792 25.8318 20.5792H14.4638C13.6244 20.5792 12.9375 19.8924 12.9375 19.0528V19.0527C12.9375 18.2132 13.6244 17.5264 14.4638 17.5264Z" fill="url(#paint0_linear_25202_142244)"/>
<path fill-rule="evenodd" clip-rule="evenodd" d="M14.4563 18.0605H23.1367C23.682 18.0605 24.1282 18.5067 24.1282 19.052C24.1282 19.5974 23.682 20.0435 23.1367 20.0435H14.4563C13.9109 20.0435 13.4648 19.5974 13.4648 19.052C13.4648 18.5067 13.9109 18.0605 14.4563 18.0605Z" fill="url(#paint1_linear_25202_142244)"/>
<path fill-rule="evenodd" clip-rule="evenodd" d="M14.4219 18.2373H23.1748C23.3983 18.2373 23.5811 18.4202 23.5811 18.6437C23.5811 18.8672 23.3983 19.05 23.1748 19.05H14.4219C14.1984 19.05 14.0156 18.8672 14.0156 18.6437C14.0156 18.4202 14.1984 18.2373 14.4219 18.2373Z" fill="url(#paint2_linear_25202_142244)"/>
<path fill-rule="evenodd" clip-rule="evenodd" d="M6.05078 26.218H8.51946V26.9441H7.68354V29.3006H6.8867V26.9441H6.05078V26.218ZM21.0344 26.6312L21.4051 27.1769C21.7557 26.9422 22.1653 26.8447 22.4522 26.8913C22.8548 26.9569 22.789 27.3554 22.4853 27.3767C22.1434 27.4008 21.6414 27.3931 21.6414 27.3931V28.0913C21.6414 28.0913 21.9348 28.0831 22.4157 28.0913C22.8966 28.0995 22.9618 28.5771 22.4075 28.6179C21.8532 28.6585 21.3969 28.2978 21.3969 28.2978L20.9975 28.8765C20.9975 28.8765 21.4541 29.3411 22.3179 29.3492C23.8466 29.3636 23.9739 27.9556 23.0108 27.6864C23.0108 27.6864 23.5712 27.5059 23.5406 26.9692C23.5079 26.3959 22.9074 26.1384 22.3117 26.1512C21.8233 26.1617 21.3588 26.3532 21.0344 26.6312ZM27.1248 29.2968V26.218H27.9216V28.0148L29.0636 26.218H29.1623H29.8604H29.959V29.2968H29.1623V27.3371L27.9397 29.2968H27.9216H27.6618H27.1248ZM27.8933 25.3135H29.2124V25.9157H27.8933V25.3135ZM8.72095 26.218L9.79801 28.4177C9.60786 28.638 9.29277 28.667 9.03058 28.4524L8.69719 29.0665C9.34853 29.5928 10.2304 29.4291 10.6019 28.6437L11.7898 26.218H10.897L10.2515 27.6294L9.6137 26.218H8.72095ZM30.4384 29.2968V26.218H30.792H31.2355H31.5529L32.1946 27.9292L32.8366 26.218H33.154H33.5972H33.9508V29.2968H33.154V27.3204L32.3587 29.2968H32.2605H32.1287H32.0304L31.2355 27.3204V29.2968H30.4384ZM23.6119 29.2968L24.7997 26.218H24.9684H25.5904H25.7595L26.9471 29.2968H26.0543L25.8916 28.8346H24.6675L24.5045 29.2968H23.6119ZM25.6352 28.1084L25.2798 27.0998L24.9236 28.1084H25.6352ZM19.2946 26.1471C20.2065 26.1471 20.946 26.8681 20.946 27.7573C20.946 28.6467 20.2065 29.3677 19.2946 29.3677C18.3826 29.3677 17.6432 28.6467 17.6432 27.7573C17.6432 26.8681 18.3826 26.1471 19.2946 26.1471ZM19.2946 26.8855C18.8247 26.8855 18.4439 27.276 18.4439 27.7573C18.4439 28.2389 18.8247 28.6293 19.2946 28.6293C19.7644 28.6293 20.1453 28.2389 20.1453 27.7573C20.1453 27.276 19.7644 26.8855 19.2946 26.8855ZM14.8856 26.218V29.2968H15.1731H15.6825H16.4958C17.0544 29.2968 17.5073 28.8404 17.5073 28.2776C17.5073 27.7148 17.0544 27.2585 16.4958 27.2585H15.6825V26.9441H17.2334V26.218H15.6825H15.1392H14.8856ZM15.6825 28.618V27.9373H16.3622C16.5488 27.9373 16.6999 28.0897 16.6999 28.2776C16.6999 28.4655 16.5488 28.618 16.3622 28.618H15.6825ZM11.9523 29.2968V26.218H12.2398H12.7492H13.5626C14.1211 26.218 14.574 26.6743 14.574 27.2372C14.574 27.8 14.1211 28.2563 13.5626 28.2563H12.7492V29.2968H11.9523ZM12.7492 26.8968V27.5775H13.4289C13.6155 27.5775 13.7666 27.4251 13.7666 27.2372C13.7666 27.0492 13.6155 26.8968 13.4289 26.8968H12.7492Z" fill="#0078BF"/>
<defs>
<linearGradient id="paint0_linear_25202_142244" x1="20.2541" y1="22.0948" x2="20.3791" y2="25.6732" gradientUnits="userSpaceOnUse">
<stop stop-color="#0D5190"/>
<stop offset="1" stop-color="#00A0E3"/>
</linearGradient>
<linearGradient id="paint1_linear_25202_142244" x1="18.7965" y1="13.7203" x2="18.7965" y2="15.7033" gradientUnits="userSpaceOnUse">
<stop stop-color="#B0CB1F"/>
<stop offset="1" stop-color="#009846"/>
</linearGradient>
<linearGradient id="paint2_linear_25202_142244" x1="18.7984" y1="13.861" x2="18.7984" y2="14.6737" gradientUnits="userSpaceOnUse">
<stop stop-color="#FEFEFE"/>
<stop offset="1" stop-color="#5DB139"/>
</linearGradient>
</defs>
</svg>
