<svg width="40" height="40" viewBox="0 0 40 40" fill="none" xmlns="http://www.w3.org/2000/svg">
<rect width="40" height="40" rx="12" fill="white"/>
<circle cx="20" cy="20" r="14" fill="#C00000"/>
<path d="M18.6744 27.6115L18.6905 27.6679H18.7491H20.94H20.9979L21.0145 27.6124L24.6998 15.2737C24.6772 15.6546 24.6512 16.2746 24.6218 17.1318L24.6218 17.1322C24.5872 18.3439 24.5699 19.3277 24.5699 20.0832V27.5901V27.6679H24.6477H27.0357H27.1135V27.5901V12.4102V12.3324H27.0357H23.5263H23.4681L23.4517 12.3881L19.9336 24.3137L16.5387 12.3889L16.5226 12.3324H16.4639H12.9648H12.8871V12.4102V27.5901V27.6679H12.9648H15.218H15.2957V27.5901V20.2078C15.2957 18.6585 15.2438 17.0056 15.1398 15.249L18.6744 27.6115Z" fill="white" stroke="black" stroke-width="0.155556"/>
</svg>
