<svg width="40" height="40" fill="none" xmlns="http://www.w3.org/2000/svg"><rect width="40" height="40" rx="12" fill="#fff"/><path fill-rule="evenodd" clip-rule="evenodd" d="M22.866 7.9c.18.624.024 1.07-.598 1.703a7.082 7.082 0 0 1-1.223.942c-1.858 1.089-2.425 1.626-2.95 2.795-.135.3-.257.545-.272.545-.056 0 .063-.545.246-1.129.114-.363.373-.851.649-1.222.514-.692.543-.683-.67-.212-1.485.577-2.94 1.835-3.752 3.247-.418.728-1.015 2.335-1.019 2.747a.806.806 0 0 1-.101.381c-.174.249-.019-1.786.194-2.557a7.787 7.787 0 0 1 1.097-2.327c.178-.249.296-.453.261-.453-.034 0-.384.225-.777.5-1.974 1.382-3.556 3.693-4.205 6.145-.226.853-.246 1.085-.246 2.742 0 1.542.03 1.918.196 2.529.976 3.59 3.292 6.264 6.524 7.536 1.266.497 2.276.683 3.75.688 2.377.008 4.134-.556 6.275-2.015 1.528-1.041 2.22-1.804 2.005-2.21-.25-.479-1.045-.705-1.65-.471-.142.055-.534.329-.871.608-1.193.987-2.152 1.254-1.535.426 1.043-1.4.955-3.546-.203-4.923-.215-.256-.592-.528-1.05-.76-.698-.35-.743-.36-1.75-.36-.927 0-1.09.027-1.57.256-.294.14-.747.457-1.006.704-.557.531-.607.458-.117-.173.864-1.11 2.045-1.652 3.438-1.578 1.065.057 1.854.455 2.962 1.492.95.89 1.417 1.188 2.183 1.395 1.234.332 2.457-.164 3.151-1.278.28-.449.349-1.004.168-1.348-.134-.255-.255-.234-.833.146-.884.58-1.742.537-2.459-.12-.472-.434-.724-.975-.726-1.56-.004-.747.036-.78.591-.482.444.239.569.26 1.559.26.94 0 1.126-.028 1.475-.218.442-.24.435-.185.146-1.257-.38-1.404-1.148-2.21-2.263-2.372l-.434-.063-.06-.49c-.077-.647-.446-1.447-.901-1.955-.36-.4-.372-.437-.433-1.29-.131-1.824-.708-3.345-1.633-4.308-.462-.48-1.33-1.056-1.593-1.056-.048 0-.036.175.03.4zm2.948 6.678c-.522 1.37-.611 3.157-.204 4.093.105.243.17.462.146.487-.025.026-.227-.035-.448-.135-.54-.243-1.732-.405-2.508-.34-.347.028-.632.021-.632-.016 0-.037.348-.188.772-.336 1.312-.457 1.411-.524 1.495-1.015.268-1.57.556-2.284 1.213-3.01.21-.231.392-.42.406-.42.014 0-.094.311-.24.692zm-6.126 4.448c-.103.042-.496.172-.875.288-1.32.405-2.63 1.266-3.31 2.174-.711.949-1.183 2.396-1.192 3.654-.01 1.213.472 2.845 1.163 3.945.3.477.313.523.11.36-.455-.365-1.184-1.322-1.508-1.982-.438-.888-.61-1.632-.61-2.62 0-2.567 1.45-4.544 3.956-5.394.704-.239 1.868-.495 2.266-.5l.188-.002-.188.077z" fill="#FF4700"/></svg>