<svg width="40" height="40" fill="none" xmlns="http://www.w3.org/2000/svg"><rect width="40" height="40" rx="12" fill="#fff"/><path fill-rule="evenodd" clip-rule="evenodd" d="m29.003 8.909-2.101 2.346-1.224 6.698c-.673 3.684-1.536 7.373-1.917 8.197-1.249 2.7-3.733 4.735-6.814 5.582-1.792.493-1.534.011.54-1.006 2.013-.987 3.943-3.116 4.655-5.134.258-.731.633-2.383.832-3.671.2-1.289.564-3.298.809-4.465l.444-2.121-1.34-2.24-1.342-2.24-1.612 1.582c-2.355 2.309-2.721 3.12-3.565 7.895-.442 2.506-1.092 4.978-1.546 5.888-.683 1.368-.71 1.542-.201 1.363 1.315-.463 2.69-1.828 3.602-3.572.532-1.017 1.071-1.85 1.198-1.85.312-.002-.652 3.192-1.417 4.693-1.546 3.036-5.335 5.056-9.547 5.089-2.187.017-2.334.058-1.495.416 3.347 1.427 10.552 1.439 14.554.023 5.219-1.845 8.45-4.304 9.56-7.275.74-1.98 2.66-13.176 2.421-14.125-.105-.42-.687-1.587-1.292-2.592l-1.102-1.828-2.1 2.347z" fill="#FF4D25"/><path fill-rule="evenodd" clip-rule="evenodd" d="M15.638 6.88c-3.127.884-5.584 3.279-6.786 6.613-.28.78-.924 3.646-1.429 6.371l-.92 4.955L7.9 27.083l1.396 2.265 2.168-2.246c1.894-1.962 2.211-2.475 2.511-4.063.189-.999.594-3.158.901-4.797.307-1.64.916-3.688 1.354-4.55l.795-1.57-.994.346c-1.145.4-3.574 3.015-3.86 4.158-.352 1.399-.725.81-.404-.637 1.188-5.364 4.698-7.726 11.48-7.726 1.863 0 3.284-.09 3.156-.2-.128-.11-1.185-.459-2.35-.776-2.859-.778-6.485-.954-8.415-.408z" fill="#071E39"/></svg>