<svg width="40" height="40" fill="none" xmlns="http://www.w3.org/2000/svg"><rect width="40" height="40" rx="12" fill="#A6CE39"/><path d="M7.184 13.362h1.882c2.267 0 4.108 1.848 4.108 4.092v2.094H11.29c-2.266 0-4.107-1.847-4.107-4.092v-2.094zM23.944 11.378v2.573c0 3.08-2.528 5.597-5.62 5.597h-2.87v-2.572c0-3.08 2.527-5.598 5.618-5.598h2.872z" fill="#006D38"/><path d="M27.598 28.704H20.62c-2.871 0-5.22-2.34-5.22-5.2v-1.341h3.2c4.273 0 7.763-3.477 7.763-7.733v-3.134h1.236c2.872 0 5.22 2.34 5.22 5.2v7.021c0 2.847-2.348 5.187-5.22 5.187z" fill="#fff"/></svg>