<svg width="41" height="41" viewBox="0 0 41 41" fill="none" xmlns="http://www.w3.org/2000/svg">
<rect x="0.785675" y="0.325928" width="40" height="40" rx="12" fill="white"/>
<path fill-rule="evenodd" clip-rule="evenodd" d="M3.13916 28.4974V14.6514C3.13916 14.1624 3.27116 13.5714 3.74416 13.1334C4.29716 12.5934 4.92916 12.5414 5.48116 12.5414H16.1132V14.9344H7.00816C6.79816 14.9344 6.61316 14.9084 6.42816 15.1144C6.24416 15.2944 6.24416 15.5524 6.24416 15.7584V19.2064H13.4812V21.5994H6.24416V28.4714H3.13916V28.4974Z" fill="#F3C108"/>
<path fill-rule="evenodd" clip-rule="evenodd" d="M30.6422 26.5924C30.1692 27.8024 29.7482 28.4974 28.3002 28.4974C26.7482 28.4974 26.3792 27.5704 25.9582 26.5924L21.8002 15.9394C21.7212 15.7594 21.5372 15.3994 21.3792 15.3994C21.1422 15.3994 21.1422 15.8104 21.1422 15.8624L21.1952 28.2924H18.1162V14.2654C18.1162 12.2064 20.2742 12.1554 20.7482 12.1554C22.6162 12.1554 23.1692 13.1074 23.6162 14.2144L27.8262 24.8424C27.9842 25.2024 28.1162 25.4344 28.2742 25.4344C28.4052 25.4094 28.5632 25.1774 28.7212 24.8424L32.9322 14.2144C33.6162 12.4124 34.6422 12.1544 35.8002 12.1544C37.3262 12.1544 38.4322 12.7984 38.4322 14.2654V28.2914H35.3532L35.4582 15.8614C35.4582 15.4494 35.2742 15.3984 35.1692 15.3984C35.0112 15.3984 34.8262 15.7584 34.7482 15.9384L30.6422 26.5924Z" fill="#ED2024"/>
</svg>
