<svg width="40" height="40" fill="none" xmlns="http://www.w3.org/2000/svg"><rect width="40" height="40" rx="12" fill="#fff"/><g clip-path="url(#a)"><path d="M32.595 19.074 20.903 7.382a1.314 1.314 0 0 0-1.852 0L7.358 19.074a1.313 1.313 0 0 0 0 1.852L19.05 32.618a1.313 1.313 0 0 0 1.853 0l11.691-11.692a1.313 1.313 0 0 0 0-1.852zm-3.79 2.897v1.382l-.273.046c-.38.064-.768.064-1.147 0l-.274-.046v-1.382l-.209-.362-.548.553c.091.247.146.505.162.767l.015.235-.218.09c-.406.15-.835.227-1.268.227l-5.069 5.114-6.008-6.062a2.336 2.336 0 0 1-.682-.04l-.179-.038-.136-.031-.025.93-.266.045a3.3 3.3 0 0 1-1.107 0l-.285-.047.208-5.104.266-.041c.402-.063.811-.063 1.213 0l.188.029.037.006 2.146-2.165a3.719 3.719 0 0 1-.049-.613c0-1.246.66-2.7 2.52-2.7.249 0 .496.025.738.075l1.425-1.434 2.695 2.72c.256-.026.656-.064.826-.064h.02c.045 0 .12-.006.217-.006 1.148 0 1.832.533 1.832 1.425.005.34-.112.672-.33.934l.328.627 2.68 2.705.145-.25.152-.026a3.73 3.73 0 0 1 1.186 0l.47.075-1.395 2.426z" fill="#FC0"/><path d="M17.8 17.809c-1.044 0-2.178-.607-2.178-2.346 0-.974.472-2.372 2.193-2.372.7 0 1.162.218 1.162.218a2.747 2.747 0 0 1-.26.911s-1.93-.831-1.93 1.245c0 2.036 1.98 1.212 1.98 1.212.146.287.238.597.273.917 0 0-.48.215-1.24.215zm3.271-2.182c0-.225-.097-.423-.618-.423a2.503 2.503 0 0 0-.807.148 1.857 1.857 0 0 1-.196-.768s2.58-.898 2.58 1.154v1.865s-2.798.851-2.798-.93c0-1.013 1.084-1.046 1.84-1.046zm-.931 1.026c0 .565.93.353.93.353v-.734c-.325 0-.93-.046-.93.382v-.001zm-5.343 1.875-.954 2.414-.922-2.414a3.604 3.604 0 0 0-1.111 0l-.185 4.546c.33.056.668.056.998 0l.07-2.614.032-.005.627 1.715c.272.058.554.058.826 0l.702-1.741.033.006.09 2.639c.349.056.705.056 1.055 0l-.217-4.546a3.17 3.17 0 0 0-1.044.001v-.001zm8.723-3.316s.114-.01.205-.01c.364 0 .429.222.429.425 0 .414-.474.611-.474.611l.702 1.498c.39.058.784.058 1.174 0l-.727-1.393s.408-.25.408-.867c0-1.254-1.633-1.089-1.74-1.089-.235 0-1.013.085-1.013.085v3.263c.343.058.693.058 1.036 0v-2.523zm-3.884 6.243c0 1.22-.763 1.7-1.636 1.7-.873 0-1.63-.481-1.63-1.7 0-1.22.749-1.733 1.63-1.733.882 0 1.636.512 1.636 1.733zm-1.043-.015c0-.295-.057-.9-.593-.9-.536 0-.586.608-.586.9 0 .293.027.9.586.9.56 0 .593-.604.593-.9zm11.085-1.645a3.395 3.395 0 0 0-1.083 0l-.639 1.113-.639-1.113a3.397 3.397 0 0 0-1.082 0l1.202 2.088v1.191a3.13 3.13 0 0 0 1.04 0v-1.191l1.2-2.088zm-3.31 1.453a5.014 5.014 0 0 1-.045.517h-1.955s.026.513.668.513c.32 0 .637-.06.934-.178.126.266.2.553.216.847a3.332 3.332 0 0 1-1.146.205c-.929 0-1.722-.428-1.722-1.692 0-.816.408-1.739 1.624-1.739 1.002.001 1.427.768 1.427 1.527zm-.948-.184s-.008-.559-.518-.559c-.533 0-.543.56-.543.56h1.06zm-5.386-1.127v3.137c.348.058.702.058 1.05 0v-2.417c.089-.015.179-.024.27-.027.329 0 .532.121.532.658v1.787a3.19 3.19 0 0 0 1.049 0v-1.983c0-2.058-2.9-1.155-2.9-1.155z" fill="#000"/></g><defs><clipPath id="a"><path fill="#fff" transform="translate(6.957 7)" d="M0 0h26.081v26H0z"/></clipPath></defs></svg>