<svg width="40" height="40" viewBox="0 0 40 40" fill="none" xmlns="http://www.w3.org/2000/svg">
<rect width="40" height="40" rx="12" fill="#131315"/>
<path d="M13.8835 23.5472C11.9612 23.5472 10.3821 21.9681 10.3821 20.0457C10.3821 18.192 11.9612 16.6129 13.8835 16.6129C14.9134 16.6129 15.8746 17.0935 16.5611 17.8487L18.6208 15.0338C15.8746 12.4935 11.6179 12.5622 9.00892 15.2398C6.26265 17.9174 6.26265 22.3114 9.00892 25.0577C11.1373 27.186 14.2955 27.6666 16.8358 26.4308L14.6388 23.4786C14.3641 23.5472 14.0895 23.5472 13.8835 23.5472Z" fill="#80B500"/>
<path d="M29.6709 14.2096C26.5127 12.2872 22.5307 13.1798 20.4023 16.0634L16.3516 22.0365L18.5486 25.332L19.9217 23.4783C20.471 24.5081 21.2948 25.4007 22.3933 26.0872C25.6889 28.0783 29.9456 27.0484 31.9366 23.7529C33.9963 20.4574 32.9665 16.132 29.6709 14.2096ZM26.1008 23.5469C24.1784 23.5469 22.5993 21.9678 22.5993 20.0454C22.5993 18.1231 24.1784 16.6126 26.1008 16.6126C28.0232 16.6126 29.6023 18.1917 29.6023 20.1141C29.6023 22.0365 28.0232 23.5469 26.1008 23.5469Z" fill="white"/>
</svg>
