<svg width="40" height="40" viewBox="0 0 40 40" fill="none" xmlns="http://www.w3.org/2000/svg">
<rect width="40" height="40" rx="12" fill="white"/>
<path d="M6.23047 13.8819L11.8751 24.8526L15.6955 26.056C17.5466 26.6014 22.2482 23.7485 16.8239 18.4136C12.2244 13.8819 8.89561 13.299 6.23047 13.8819Z" fill="url(#paint0_linear_25202_142274)"/>
<path d="M33.7708 7.7279L24.1822 24.9226L20.7043 29.5027C19.4658 31.8021 15.4122 30.2769 14.3008 29.5027C12.3664 25.8037 11.598 24.329 11.3697 23.8804C11.3132 23.7675 11.2891 23.7192 11.2891 23.7165C11.2891 23.7165 11.3052 23.7407 11.3267 23.7837C11.3321 23.7944 11.3401 23.8078 11.3455 23.8186C12.2186 24.2699 14.4056 24.2242 16.1573 20.4366C16.4206 19.8698 16.708 19.2492 17.0304 18.5938C19.4 13.7935 23.661 7.24975 33.7708 7.7279Z" fill="url(#paint1_linear_25202_142274)"/>
<path fill-rule="evenodd" clip-rule="evenodd" d="M24.1779 24.9221L21.6229 29.5022C19.7164 32.569 16.9064 33.8335 14.2964 29.5022C12.362 25.8032 11.5937 24.3284 11.3653 23.8798C11.3518 23.8476 11.3384 23.8154 11.3223 23.7831C11.3008 23.7348 11.2793 23.6864 11.2578 23.6354C12.3486 23.8288 13.0794 23.6031 13.4662 23.4393C14.7719 22.8779 15.4597 21.575 16.3759 19.8424L16.3839 19.829C16.4484 19.7081 16.5075 19.5979 16.5613 19.4932C16.7654 19.1117 16.9159 18.8297 17.018 18.5879C17.0207 18.5906 17.0233 18.5933 17.0233 18.5933C18.4446 19.9445 19.4601 21.1022 20.2849 22.0451C21.6766 23.6354 22.5336 24.6132 23.8985 24.8657C23.9925 24.8872 24.0865 24.906 24.1779 24.9221Z" fill="url(#paint2_linear_25202_142274)"/>
<defs>
<linearGradient id="paint0_linear_25202_142274" x1="11.4125" y1="13.3183" x2="14.1849" y2="23.0918" gradientUnits="userSpaceOnUse">
<stop stop-color="#27B993"/>
<stop offset="1" stop-color="#0A8645"/>
</linearGradient>
<linearGradient id="paint1_linear_25202_142274" x1="17.4146" y1="28.663" x2="24.807" y2="9.96166" gradientUnits="userSpaceOnUse">
<stop stop-color="#0FDEA8"/>
<stop offset="1" stop-color="#0CC68B"/>
</linearGradient>
<linearGradient id="paint2_linear_25202_142274" x1="20.1379" y1="27.6515" x2="15.0795" y2="23.437" gradientUnits="userSpaceOnUse">
<stop stop-color="#0ED39B"/>
<stop offset="1" stop-color="#29BA93"/>
</linearGradient>
</defs>
</svg>
