<svg width="40" height="40" viewBox="0 0 40 40" fill="none" xmlns="http://www.w3.org/2000/svg">
<rect width="40" height="40" rx="12" fill="white"/>
<g clip-path="url(#clip0_25202_142270)">
<path d="M26.3149 13.0996C24.404 13.0996 22.7259 14.1199 21.7461 15.6615C20.7717 14.1199 19.0936 13.0996 17.1719 13.0996V14.9495C19.2019 14.9495 20.8475 16.6593 20.8475 18.7559H22.6339C22.6339 16.9733 23.8194 15.4765 25.4163 15.0617V26.5649H27.2027V13.0996H26.3095H26.3149Z" fill="#43AC34"/>
<path d="M23.3711 7V8.92842C27.9128 10.414 31.2149 14.8146 31.2149 20.0056C31.2149 25.1966 27.9128 29.5972 23.3711 31.0828V33.0112C28.9089 31.4696 33.0013 26.2281 33.0013 20.0112C33.0013 13.7943 28.9089 8.54161 23.3711 7Z" fill="#0D5740"/>
<path d="M16.6302 31.0772C12.0885 29.5916 8.78638 25.191 8.78638 20C8.78638 14.809 12.0885 10.4084 16.6302 8.92842V7C11.0924 8.54161 7 13.7831 7 20C7 26.2169 11.0924 31.4584 16.6302 33V31.0716V31.0772Z" fill="#0D5740"/>
<path d="M18.2339 22.4389V13.206C18.2339 13.206 17.5465 13.1051 17.3191 13.0995C14.2335 13.0435 11.7109 15.639 11.7109 18.7558C11.7109 21.5588 13.7463 23.8964 16.3988 24.3393V26.5648H18.2339V24.3337C20.2423 23.9637 22.0124 22.4109 22.6404 20.3759H20.6699C20.1827 21.385 19.2733 22.1474 18.2394 22.4389H18.2339ZM16.3988 22.4557C14.7586 22.0409 13.5406 20.5441 13.5406 18.7614C13.5406 16.9788 14.7586 15.482 16.3988 15.0672V22.4557Z" fill="#0D5740"/>
</g>
<defs>
<clipPath id="clip0_25202_142270">
<rect width="26" height="26" fill="white" transform="translate(7 7)"/>
</clipPath>
</defs>
</svg>
