<svg width="40" height="40" viewBox="0 0 40 40" fill="none" xmlns="http://www.w3.org/2000/svg">
<rect width="40" height="40" rx="12" fill="white"/>
<path fill-rule="evenodd" clip-rule="evenodd" d="M24.7597 10.2041C25.3206 10.2041 25.8627 10.4261 26.2553 10.8145L31.4524 15.9566C32.2749 16.7704 32.2749 18.1021 31.4524 18.916L20.7778 29.4775C20.3852 29.866 19.8431 30.0879 19.2822 30.0879C18.7214 30.0879 18.1792 29.866 17.7867 29.4775L12.5896 24.3355C11.767 23.5216 11.767 22.1899 12.5896 21.376L23.2642 10.8145C23.6568 10.4261 24.1989 10.2041 24.7597 10.2041ZM27.9939 15.6421C27.8817 15.6421 27.7509 15.6051 27.6574 15.5126L25.601 13.478C25.414 13.293 25.414 12.9971 25.601 12.8306C25.7879 12.6456 26.0871 12.6456 26.2553 12.8306L28.3117 14.8652C28.4986 15.0502 28.4986 15.3462 28.3117 15.5126C28.2369 15.5866 28.1061 15.6421 27.9939 15.6421ZM29.3024 16.012C29.3024 16.2674 29.0932 16.4745 28.8351 16.4745C28.577 16.4745 28.3678 16.2674 28.3678 16.012C28.3678 15.7566 28.577 15.5496 28.8351 15.5496C29.0932 15.5496 29.3024 15.7566 29.3024 16.012Z" fill="#40BAB5"/>
<path d="M8.10248 19.0629L11.1442 22.0724C11.2793 21.5804 11.5429 21.1152 11.9348 20.7275L16.2405 16.4599C14.8845 16.2336 13.4455 15.5928 13.0191 15.2525L13.6173 14.5311C14.1033 14.9196 16.5336 15.8814 17.674 15.5484L17.9918 15.456L18.1787 15.7149C19.7304 17.768 22.9458 17.842 23.6937 17.6016C23.8432 17.5461 23.8806 17.4351 23.8993 17.3796C23.918 17.3241 23.9367 17.1947 23.8058 17.0652L19.7086 13.0207L19.6769 12.9901L16.9637 10.2955C16.459 9.79612 15.8046 9.55566 15.1316 9.55566C14.4774 9.55566 13.8043 9.79612 13.2996 10.2955L8.10248 15.4561C7.11167 16.4549 7.11167 18.0641 8.10248 19.0629Z" fill="#F9A056"/>
<path d="M17.6313 16.5301C17.6258 16.5236 17.6204 16.5172 17.615 16.5107C17.6118 16.5112 17.6086 16.5116 17.6055 16.512C17.6141 16.518 17.6227 16.524 17.6313 16.5301Z" fill="#F9A056"/>
<path d="M17.9703 27.0732C18.1759 26.8698 18.4376 26.7588 18.7181 26.7588C18.9985 26.7588 19.2602 26.8513 19.4658 27.0732L20.8492 28.442C21.2605 28.8489 21.2605 29.5148 20.8492 29.9217L20.6249 30.1437C20.2136 30.5506 19.5406 30.5506 19.1293 30.1437L17.7459 28.7749C17.3347 28.368 17.3347 27.7021 17.7459 27.2952L17.9703 27.0732Z" fill="#F9A056"/>
<path d="M20.3863 24.3916C20.0685 24.3916 19.7694 24.5026 19.5263 24.743C19.0589 25.2055 19.0589 25.9823 19.5263 26.4447L21.3957 28.2943C21.8632 28.7568 22.6483 28.7568 23.1157 28.2943C23.5831 27.832 23.5831 27.0551 23.1157 26.5927L21.2462 24.743C21.0032 24.5211 20.704 24.3916 20.3863 24.3916Z" fill="#F9A056"/>
<path d="M21.4833 22.2441C21.7264 22.0036 22.0254 21.8926 22.3433 21.8926C22.6611 21.8926 22.9789 22.0221 23.2032 22.2441L25.5026 24.5191C25.97 24.9815 25.97 25.7584 25.5026 26.2208C25.0353 26.6832 24.2501 26.6832 23.7828 26.2208L21.4833 23.9457C21.016 23.4833 21.016 22.7064 21.4833 22.2441Z" fill="#F9A056"/>
<path d="M24.8276 20.2852C24.5099 20.2852 24.2107 20.3962 23.9677 20.6366C23.5004 21.099 23.5004 21.8759 23.9677 22.3383L25.8372 24.1879C26.3045 24.6503 27.0897 24.6503 27.5571 24.1879C28.0244 23.7255 28.0244 22.9487 27.5571 22.4862L25.6876 20.6366C25.4446 20.4146 25.1455 20.2852 24.8276 20.2852Z" fill="#F9A056"/>
<path d="M27.6536 15.5121C27.7471 15.6046 27.878 15.6416 27.9901 15.6416C28.1024 15.6416 28.2332 15.5861 28.308 15.5121C28.4949 15.3457 28.4949 15.0497 28.308 14.8648L26.2516 12.8301C26.0833 12.6452 25.7842 12.6452 25.5973 12.8301C25.4103 12.9966 25.4103 13.2925 25.5973 13.4775L27.6536 15.5121Z" fill="#00475D"/>
<path d="M29.298 16.0102C29.298 16.2656 29.0888 16.4727 28.8307 16.4727C28.5725 16.4727 28.3633 16.2656 28.3633 16.0102C28.3633 15.7549 28.5725 15.5479 28.8307 15.5479C29.0888 15.5479 29.298 15.7549 29.298 16.0102Z" fill="#00475D"/>
<path fill-rule="evenodd" clip-rule="evenodd" d="M7.4454 19.7116L11.0666 23.3011C11.1582 23.9224 11.4467 24.5213 11.932 25.0014L17.1291 30.1435C17.5707 30.5804 18.1141 30.856 18.6766 30.9704C19.0253 31.2365 19.4577 31.3643 19.8771 31.3643C20.3819 31.3643 20.9054 31.1608 21.298 30.7909L21.5223 30.5689C21.813 30.2812 21.9961 29.9302 22.0716 29.5626C22.1316 29.5676 22.1916 29.5701 22.2514 29.5701C22.8122 29.5701 23.3543 29.3666 23.7843 28.9412C24.1914 28.5384 24.4015 28.0143 24.4146 27.4863C24.4912 27.4945 24.5679 27.4985 24.6442 27.4985C25.2051 27.4985 25.7472 27.295 26.1772 26.8881C26.5771 26.4925 26.7868 25.9798 26.8066 25.4614C27.3295 25.4373 27.8309 25.2336 28.2337 24.835C28.78 24.2945 28.9715 23.5357 28.8084 22.8421L32.1034 19.5819C33.2999 18.3981 33.2999 16.493 32.1034 15.3092L26.9064 10.1672C26.3268 9.5753 25.5416 9.27936 24.7565 9.27936C23.9713 9.27936 23.2048 9.5753 22.6066 10.1672L20.3725 12.3777L17.6153 9.64941C16.2505 8.29916 14.0072 8.29916 12.6425 9.64941L7.4454 14.7915C6.0807 16.1417 6.0807 18.3613 7.4454 19.7116ZM19.7067 13.0229L19.7063 13.0233L16.9609 10.2968C16.4562 9.79738 15.8019 9.55692 15.1289 9.55692C14.4745 9.55692 13.8016 9.79738 13.2968 10.2968L8.09971 15.4573C7.1089 16.4561 7.1089 18.0653 8.09971 19.0642L11.1414 22.0736C11.2765 21.5817 11.5401 21.1165 11.932 20.7287L16.2442 16.4622C14.8863 16.2369 13.4434 15.5946 13.0163 15.2538L13.6145 14.5324C14.0294 14.8639 15.8603 15.613 17.0969 15.6185C17.3093 15.6195 17.5041 15.5985 17.6712 15.5497L17.9891 15.4572L18.176 15.7162C18.1853 15.7285 18.1947 15.7407 18.2041 15.7529C18.2136 15.7651 18.2232 15.7774 18.2327 15.7895C19.8047 17.771 22.9521 17.8404 23.6909 17.6028C23.8404 17.5473 23.8778 17.4363 23.8965 17.3809C23.9152 17.3254 23.9339 17.1959 23.803 17.0664L19.7067 13.0229ZM21.0268 13.025L24.4573 16.4191C24.7751 16.7335 24.8873 17.1589 24.7938 17.5843C24.7004 18.0098 24.3826 18.3427 23.9713 18.4721C23.7283 18.5831 23.2796 18.6386 22.7562 18.6386C21.2605 18.6386 18.9985 18.1577 17.6151 16.5115C17.5733 16.5174 17.5307 16.5225 17.4876 16.5267L12.5863 21.3761C11.7637 22.1899 11.7637 23.5217 12.5863 24.3356L16.5125 28.2203C16.4554 27.6534 16.6485 27.0676 17.0917 26.6291L17.316 26.4072C17.587 26.1391 17.9136 25.9635 18.2575 25.8805C18.1673 25.2408 18.3707 24.5683 18.8676 24.0766C19.247 23.7012 19.7328 23.4951 20.2291 23.4583C20.1185 22.802 20.3189 22.1043 20.8306 21.5981C21.3494 21.0847 22.0673 20.888 22.7388 21.0079C22.8252 20.6276 23.018 20.2663 23.317 19.9704C24.1583 19.138 25.523 19.138 26.3642 19.9704L28.2337 21.82C28.2809 21.8668 28.3255 21.9152 28.3675 21.965L31.4491 18.916C32.2717 18.1022 32.2717 16.7705 31.4491 15.9566L26.252 10.8146C25.8595 10.4261 25.3173 10.2042 24.7565 10.2042C24.1957 10.2042 23.6535 10.4261 23.2609 10.8146L21.0268 13.025ZM19.1294 30.1435C19.5407 30.5504 20.2137 30.5504 20.625 30.1435L20.8493 29.9216C21.0321 29.7407 21.1336 29.5088 21.1539 29.2711C21.0041 29.1818 20.8635 29.072 20.7371 28.9412L18.8676 27.0916C18.765 26.99 18.6749 26.8807 18.5972 26.7656C18.3629 26.7928 18.1461 26.8991 17.9703 27.0731L17.746 27.295C17.3347 27.7019 17.3347 28.3678 17.746 28.7747L19.1294 30.1435ZM21.7332 28.5291C22.1839 28.7345 22.7452 28.6561 23.1113 28.2938C23.4282 27.9803 23.5302 27.5222 23.4174 27.1156C23.3157 27.044 23.2193 26.962 23.13 26.8696L20.8306 24.613C20.7698 24.5529 20.7134 24.49 20.6614 24.4249C20.5705 24.4027 20.4771 24.391 20.3819 24.391C20.0641 24.391 19.765 24.502 19.522 24.7424C19.0546 25.2049 19.0546 25.9817 19.522 26.4442L21.3914 28.2938C21.4926 28.3939 21.6086 28.4723 21.7332 28.5291ZM24.0741 26.4323C24.0266 26.4079 23.9806 26.3802 23.9364 26.3492C23.8829 26.3116 23.8319 26.2694 23.7843 26.2222L21.4848 23.9471C21.0175 23.4848 21.0175 22.7079 21.4848 22.2455C21.7279 22.005 22.027 21.894 22.3448 21.894C22.4795 21.894 22.6143 21.9173 22.7418 21.961C22.8297 22.3365 23.0214 22.6928 23.317 22.9853L25.1865 24.835C25.3808 25.0361 25.6087 25.1876 25.8521 25.2914C25.874 25.6273 25.758 25.9711 25.5042 26.2222C25.3842 26.3409 25.2433 26.4292 25.0922 26.4869C24.7642 26.6123 24.3881 26.5941 24.0741 26.4323ZM27.2038 24.4297C27.3341 24.3724 27.4554 24.2917 27.5607 24.1876C28.028 23.7252 28.028 22.9483 27.5607 22.4859L25.6912 20.6362C25.4482 20.4143 25.1491 20.2848 24.8313 20.2848C24.5135 20.2848 24.2143 20.3958 23.9714 20.6362C23.504 21.0987 23.504 21.8755 23.9714 22.3379L25.8408 24.1876C25.8884 24.2347 25.9394 24.277 25.9928 24.3145C26.3465 24.5623 26.8147 24.6007 27.2038 24.4297Z" fill="#00475D"/>
</svg>
