<svg width="40" height="40" viewBox="0 0 40 40" fill="none" xmlns="http://www.w3.org/2000/svg">
<rect width="40" height="40" rx="12" fill="white"/>
<g clip-path="url(#clip0_25202_142232)">
<path d="M17.5421 19.7951C20.9373 19.7951 23.6896 17.0427 23.6896 13.6475C23.6896 10.2523 20.9373 7.5 17.5421 7.5C14.1469 7.5 11.3945 10.2523 11.3945 13.6475C11.3945 17.0427 14.1469 19.7951 17.5421 19.7951Z" fill="#D10C6D"/>
<path d="M17.5398 17.7455C19.8032 17.7455 21.6381 15.9107 21.6381 13.6472C21.6381 11.3837 19.8032 9.54883 17.5398 9.54883C15.2763 9.54883 13.4414 11.3837 13.4414 13.6472C13.4414 15.9107 15.2763 17.7455 17.5398 17.7455Z" fill="#F5F5F7"/>
<path fill-rule="evenodd" clip-rule="evenodd" d="M15.2612 25.9475V13.7316C15.2612 12.3424 16.2119 11.1885 17.4285 11.1885C18.6446 11.1885 19.5957 12.3427 19.5957 13.7316V22.0496C19.9739 21.8041 20.4392 21.6738 20.8942 21.6738C21.5676 21.6738 22.2765 21.9462 22.7015 22.4462C23.1594 21.9484 23.9077 21.6738 24.5604 21.6738C25.1825 21.6738 25.8824 21.9381 26.3219 22.4164C26.7205 21.9338 27.379 21.6738 28.0477 21.6738C29.1407 21.6738 30.2459 22.3347 30.2459 23.5092V32.0901H19.5697C16.9519 32.0901 16.9519 32.0901 15.2861 32.0901C14.0962 32.0901 14.0962 32.0901 13.8582 32.0901H13.6131L13.4971 31.8742L9.97195 25.3093C9.4184 24.3197 9.97036 23.1778 11.0465 22.7198C12.1825 22.2363 13.4498 22.6752 14.2185 24.0249C14.6999 24.9126 15.028 25.5174 15.2612 25.9475Z" fill="#22E891" stroke="#F5F5F7" stroke-width="0.819672"/>
</g>
<defs>
<clipPath id="clip0_25202_142232">
<rect width="21.3115" height="25" fill="white" transform="translate(9.34375 7.5)"/>
</clipPath>
</defs>
</svg>
