<svg width="40" height="40" viewBox="0 0 40 40" fill="none" xmlns="http://www.w3.org/2000/svg">
<rect width="40" height="40" rx="12" fill="white"/>
<path fill-rule="evenodd" clip-rule="evenodd" d="M21.8287 18.6279C21.8399 18.905 22.0805 18.9488 22.1857 18.7172C22.1077 19.0528 21.7825 18.9997 21.8287 18.6303V18.6279Z" fill="#008D21"/>
<path fill-rule="evenodd" clip-rule="evenodd" d="M12.8058 19.5058L10.6494 8.66409C11.793 8.35754 13.1647 8.5178 13.6059 10.1972L15.5806 17.7135C15.912 18.9742 16.8126 18.833 17.0129 17.7151L19.1238 5.94434C20.2212 5.94434 21.537 6.69635 21.3243 8.40565L20.0667 18.5338C20.0151 18.9498 20.4023 18.9921 20.4594 18.5695L21.8331 8.35443C23.1694 8.35443 24.2327 9.27059 24.1477 10.4991C24.0212 12.3648 23.4989 18.7779 23.9502 21.8868C24.1097 22.9838 24.1151 23.5453 24.7321 24.314C25.8341 23.4941 26.7312 22.219 28.16 21.2217C28.9733 20.6548 30.3338 20.8838 31.0082 22.2559C29.6547 24.378 27.6462 26.9977 25.9796 29.8839C22.1431 36.5274 12.576 34.8954 11.1768 27.4136C10.8885 25.8673 10.6494 24.106 10.3607 22.1526L8.98438 12.8266C9.62851 12.6535 11.0716 12.5681 11.3308 13.9325L12.4185 19.6444C12.5159 20.1554 12.8942 19.9521 12.8058 19.5058Z" fill="#008D21"/>
<path fill-rule="evenodd" clip-rule="evenodd" d="M23.811 20.2923C23.8164 20.4134 23.823 20.5318 23.83 20.6489C18.4468 21.0327 13.7802 23.0109 10.9138 25.8595C10.8218 25.2806 10.7322 24.6768 10.6406 24.0501C13.8175 21.6233 18.5481 20.1891 23.811 20.2923ZM24.7659 24.2895C24.9212 24.1719 25.0729 24.0451 25.2231 23.9116C25.6961 23.5705 26.159 23.1712 26.6526 22.7645C26.0418 23.3765 25.4877 23.9717 24.873 24.4292C24.835 24.3819 24.7993 24.3353 24.7659 24.2895Z" fill="#008D21"/>
<path fill-rule="evenodd" clip-rule="evenodd" d="M12.3894 17.4112L10.6494 8.66409C11.793 8.35754 13.1647 8.5178 13.6059 10.1972L15.5806 17.7135C15.7005 18.1691 15.8938 18.4414 16.1029 18.5509C15.0346 18.3091 13.9598 17.9941 12.8872 17.6002C12.72 17.5389 12.5539 17.4756 12.3894 17.4112ZM16.3536 18.606C16.6423 18.5831 16.9139 18.2696 17.0129 17.7151L19.1238 5.94434C20.2212 5.94434 21.537 6.69635 21.3243 8.40565L20.0667 18.5338C20.0151 18.9498 20.4023 18.9921 20.4594 18.5695L21.8331 8.35443C23.1694 8.35443 24.2327 9.27059 24.1477 10.4991C24.053 11.8914 23.7383 15.8164 23.7724 19.0107C21.4431 19.28 18.9228 19.1589 16.3536 18.606ZM9.46049 16.0539C10.2571 16.4865 11.0914 16.8831 11.9602 17.2401L11.3308 13.9329C11.0716 12.5685 9.62851 12.6539 8.98438 12.827L9.46049 16.0539Z" fill="#008D21"/>
<path fill-rule="evenodd" clip-rule="evenodd" d="M12.1546 16.2289L10.6494 8.66409C11.793 8.35754 13.1647 8.5178 13.6059 10.1972L15.5705 17.6751C14.3354 17.289 13.1876 16.8005 12.1546 16.2289ZM23.7697 18.5637C22.705 18.6568 21.5952 18.6685 20.4563 18.5881L20.459 18.5687L21.8327 8.35366C23.169 8.35366 24.2323 9.26981 24.1473 10.4983C24.0573 11.827 23.767 15.4594 23.7697 18.5637ZM20.064 18.5563L20.0667 18.5334L21.3243 8.40526C21.537 6.69635 20.2212 5.94434 19.1238 5.94434L17.0132 17.7151C16.9915 17.8377 16.9612 17.949 16.9236 18.0476C17.8336 18.2645 18.7815 18.4275 19.7594 18.5272C19.8607 18.5384 19.9623 18.5474 20.064 18.5563ZM11.7204 15.979L11.3308 13.9325C11.0716 12.5681 9.62851 12.6535 8.98438 12.8266L9.16326 14.0392C9.88617 14.7477 10.7476 15.4008 11.7204 15.979Z" fill="#008D21"/>
<path fill-rule="evenodd" clip-rule="evenodd" d="M23.8281 20.6475C23.8471 20.9412 23.8704 21.2206 23.8994 21.4821C20.0346 23.4956 17.3381 27.3046 17.1197 31.7891C17.0855 32.4892 17.1135 33.1779 17.1984 33.8516C14.3433 33.1943 11.8412 30.9626 11.1773 27.4133C11.0923 26.9593 11.0124 26.487 10.9336 25.9973C13.6945 23.0611 18.3882 21.0134 23.8281 20.6475Z" fill="#008D21"/>
<path fill-rule="evenodd" clip-rule="evenodd" d="M23.893 21.4317C23.9097 21.5896 23.9287 21.7413 23.9496 21.8865C24.1092 22.9835 24.1146 23.545 24.7315 24.3137C25.2411 23.935 25.7063 23.4592 26.2003 22.9582C26.2783 23.1868 26.3865 23.4216 26.5375 23.678C27.6992 23.051 28.759 22.0673 30.0752 21.2051C30.4368 21.4197 30.7655 21.7639 31.0073 22.2555C29.6538 24.3777 27.6453 26.9973 25.9787 29.8836C23.8038 33.6502 19.7872 34.7561 16.4609 33.6444C16.4609 32.9983 16.5075 32.3445 16.6034 31.6875C17.2588 27.1948 20.0592 23.5162 23.893 21.4317Z" fill="#008D21"/>
<path fill-rule="evenodd" clip-rule="evenodd" d="M23.9497 21.8271L23.9578 21.8865C24.1002 22.8679 24.12 23.4208 24.5647 24.0774L27.856 26.8805L25.9865 29.8839C24.0249 33.0364 20.9304 34.3767 17.9646 33.9898C17.8268 33.2968 17.7539 32.5824 17.7539 31.8509C17.7543 27.5495 20.2513 23.8003 23.9497 21.8271Z" fill="#008D21"/>
<path fill-rule="evenodd" clip-rule="evenodd" d="M24.7383 24.3136C25.8403 23.4937 26.7375 22.2187 28.167 21.2214C28.9795 20.6545 30.34 20.8834 31.0144 22.2555C30.1374 23.6303 28.9854 25.2151 27.8298 26.9457C25.8651 26.229 24.807 24.5054 24.7383 24.3136Z" fill="#008D21"/>
<path fill-rule="evenodd" clip-rule="evenodd" d="M23.9431 21.83C19.4318 24.341 17.2553 28.8597 18.0582 33.9756L17.8692 34.0047C17.0528 28.8096 19.3569 24.3453 23.9384 21.7959L23.9431 21.83Z" fill="#008D21"/>
<path fill-rule="evenodd" clip-rule="evenodd" d="M23.8303 20.6956C18.8308 21.0328 14.6225 22.666 10.9529 26.1281L10.9141 25.8824C14.6144 22.3893 18.7835 20.9882 23.826 20.6475L23.8303 20.6956Z" fill="#008D21"/>
<path fill-rule="evenodd" clip-rule="evenodd" d="M9.45312 16.0098C10.2723 16.4707 11.0949 16.8828 11.9435 17.2437L11.9897 17.4866C11.1407 17.1331 10.3157 16.7234 9.48999 16.2581L9.45312 16.0098ZM12.3909 17.428C15.9989 18.8797 19.8269 19.4237 23.7709 19.0962L23.779 19.1925C19.8087 19.5215 16.0354 19.0815 12.4387 17.6686L12.3909 17.428Z" fill="#008D21"/>
<path fill-rule="evenodd" clip-rule="evenodd" d="M27.2188 27.8604C25.9743 26.9042 25.2157 25.8573 24.7617 24.29C25.5164 25.5023 26.445 26.5042 27.8264 26.9458C27.5234 27.4242 27.5218 27.3819 27.2188 27.8604Z" fill="#008D21"/>
</svg>
