<svg width="40" height="40" viewBox="0 0 40 40" fill="none" xmlns="http://www.w3.org/2000/svg">
<rect width="40" height="40" rx="12" fill="white"/>
<g clip-path="url(#clip0_25202_142165)">
<path d="M33.9898 17.0321C34.0964 16.2957 33.5729 15.6836 32.8365 15.6836H8.37711C7.63188 15.6836 6.93988 16.2869 6.84229 17.0321L6.78906 17.4225H33.9366L33.9898 17.0321Z" fill="url(#paint0_linear_25202_142165)"/>
<path d="M21.1954 21.1039C21.1599 21.0595 21.151 20.9974 21.1687 20.9087L21.4172 19.1521C21.4349 19.0545 21.4615 18.9924 21.5236 18.9569C21.5768 18.9214 21.6478 18.9037 21.7366 18.9037H21.8785C21.9583 18.9037 22.0204 18.9125 22.0559 18.9303C22.0914 18.948 22.118 18.9746 22.1269 19.0101C22.1358 19.0456 22.1535 19.1166 22.1624 19.2053L22.3132 20.4207L22.81 19.2053C22.8455 19.1166 22.8721 19.0545 22.8987 19.0101C22.9254 18.9746 22.952 18.9391 22.9963 18.9303C23.0407 18.9125 23.0939 18.9037 23.1826 18.9037H23.3246C23.4133 18.9037 23.4754 18.9214 23.5198 18.9569C23.5641 18.9924 23.5819 19.0545 23.5641 19.1521L23.3069 20.9175C23.298 21.0063 23.2714 21.0684 23.227 21.1127C23.1826 21.1571 23.1294 21.1748 23.0673 21.1748C23.0052 21.1748 22.9608 21.1571 22.9254 21.1127C22.8899 21.0684 22.881 21.0063 22.8987 20.9175L23.1117 19.3827L22.5528 20.8022C22.5173 20.8909 22.4906 20.9619 22.464 21.0063C22.4463 21.0506 22.4108 21.0861 22.3664 21.1216C22.3221 21.1571 22.2688 21.1748 22.1979 21.1748C22.1447 21.1748 22.1003 21.1659 22.0648 21.1393C22.0293 21.1127 22.0116 21.0861 21.9938 21.0506C21.9761 21.0151 21.9672 20.9796 21.9583 20.9353C21.9495 20.8909 21.9495 20.8466 21.9406 20.8022L21.7809 19.3827L21.5768 20.9175C21.568 21.0063 21.5414 21.0684 21.497 21.1127C21.4527 21.1571 21.3994 21.1748 21.3373 21.1748C21.2752 21.1659 21.2309 21.1482 21.1954 21.1039ZM23.99 21.1305H25.2143C25.2852 21.1305 25.3385 21.1127 25.3828 21.0772C25.4272 21.0417 25.445 20.9974 25.4538 20.953C25.4627 20.8998 25.4538 20.8554 25.4183 20.8199C25.3828 20.7845 25.3385 20.7667 25.2675 20.7667H24.2206L24.3094 20.1368H25.2409C25.3119 20.1368 25.3651 20.1191 25.4006 20.0925C25.4361 20.057 25.4627 20.0215 25.4715 19.9683C25.4804 19.915 25.4715 19.8795 25.4361 19.844C25.4095 19.8174 25.3562 19.7997 25.2852 19.7997H24.3537L24.4336 19.2496H25.4361C25.507 19.2496 25.5603 19.2319 25.6046 19.2053C25.6401 19.1698 25.6667 19.1343 25.6756 19.0811C25.6845 19.0278 25.6756 18.9835 25.6401 18.9569C25.6135 18.9214 25.5603 18.9125 25.4893 18.9125H24.3005C24.2384 18.9125 24.1851 18.9214 24.1408 18.9391C24.0964 18.9569 24.0609 18.9835 24.0343 19.0278C24.0077 19.0722 23.99 19.1254 23.9811 19.1876L23.7505 20.8554C23.7327 20.953 23.7504 21.024 23.7859 21.0684C23.8214 21.1039 23.8924 21.1305 23.99 21.1305ZM27.5742 20.678C27.5121 20.7667 27.4411 20.8466 27.3524 20.9175C27.2814 20.9708 27.2104 21.0151 27.1395 21.0506C27.0685 21.0861 26.9886 21.1039 26.8999 21.1216C26.8201 21.1305 26.7225 21.1393 26.6249 21.1393H26.0394C25.9595 21.1393 25.8974 21.1305 25.8619 21.1039C25.8264 21.0772 25.7998 21.0417 25.7998 20.9974C25.7909 20.953 25.7998 20.8909 25.8087 20.8199L26.0394 19.1876C26.0571 19.09 26.0837 19.019 26.1369 18.9746C26.1902 18.9303 26.2612 18.9125 26.3587 18.9125H26.9443C27.0951 18.9125 27.2282 18.9303 27.3346 18.9569C27.4411 18.9835 27.5298 19.0367 27.6097 19.1166C27.8137 19.3118 27.8847 19.6134 27.8315 20.0215C27.8137 20.1546 27.7871 20.2788 27.7427 20.3852C27.6895 20.4917 27.6363 20.5893 27.5742 20.678ZM27.3258 19.5158C27.2725 19.4093 27.2015 19.3384 27.1128 19.3029C27.0241 19.2763 26.9088 19.2585 26.7668 19.2585H26.4741L26.2612 20.7667H26.5983C26.6692 20.7667 26.7314 20.7667 26.7757 20.7578C26.8201 20.7578 26.8644 20.7401 26.9088 20.7312C26.9532 20.7135 26.9975 20.6958 27.033 20.6603C27.2015 20.536 27.308 20.3143 27.3524 20.0038C27.3879 19.7908 27.379 19.6223 27.3258 19.5158ZM28.2573 21.1659C28.3283 21.1659 28.3815 21.1393 28.4347 21.095C28.4791 21.0506 28.5146 20.9796 28.5235 20.8909L28.7719 19.1432C28.7807 19.0545 28.7719 18.9835 28.7364 18.9391C28.7009 18.8948 28.6477 18.8682 28.5855 18.8682C28.5235 18.8682 28.4613 18.8948 28.417 18.9391C28.3726 18.9835 28.3371 19.0545 28.3283 19.1432L28.0798 20.8909C28.071 20.9796 28.0798 21.0506 28.1153 21.095C28.142 21.1482 28.1863 21.1659 28.2573 21.1659ZM29.2154 20.9441C29.2864 21.024 29.375 21.0772 29.4905 21.1127C29.6058 21.1482 29.7567 21.1659 29.9252 21.1659C30.0671 21.1659 30.2003 21.1482 30.3067 21.1127C30.4219 21.0772 30.5197 21.024 30.6084 20.953C30.7147 20.8643 30.7945 20.7667 30.8389 20.6425C30.8923 20.5272 30.9278 20.3852 30.9544 20.2078L31.1051 19.1432C31.114 19.0545 31.1051 18.9835 31.0696 18.9391C31.0342 18.8948 30.981 18.8682 30.9189 18.8682C30.8477 18.8682 30.7945 18.8948 30.7502 18.9391C30.7059 18.9835 30.6704 19.0545 30.6616 19.1432L30.5108 20.2433C30.484 20.4296 30.4308 20.5715 30.3421 20.6691C30.2535 20.7667 30.1294 20.8111 29.9518 20.8111C29.8277 20.8111 29.7299 20.7845 29.6678 20.7401C29.6058 20.6958 29.5615 20.6336 29.5437 20.5449C29.526 20.4651 29.526 20.3586 29.5437 20.2344L29.6944 19.1432C29.7033 19.0545 29.6944 18.9835 29.659 18.9391C29.6235 18.8948 29.5703 18.8682 29.4994 18.8682C29.4285 18.8682 29.375 18.8948 29.3308 18.9391C29.2864 18.9835 29.2509 19.0545 29.2421 19.1432L29.0912 20.2078C29.0646 20.3764 29.0646 20.5183 29.0824 20.6425C29.1001 20.7667 29.1445 20.8643 29.2154 20.9441ZM33.6424 18.9569C33.5981 18.9214 33.5272 18.9037 33.4474 18.9037H33.3053C33.2255 18.9037 33.1634 18.9125 33.1191 18.9303C33.0748 18.948 33.0479 18.9746 33.0213 19.0101C32.9947 19.0456 32.9681 19.1166 32.9327 19.2053L32.4359 20.4207L32.285 19.2053C32.2761 19.1166 32.2584 19.0545 32.2495 19.0101C32.2407 18.9746 32.2141 18.9391 32.1786 18.9303C32.1431 18.9125 32.0811 18.9037 32.0013 18.9037H31.8592C31.7705 18.9037 31.6996 18.9214 31.6464 18.9569C31.5932 18.9924 31.5575 19.0545 31.5398 19.1521L31.3004 20.9175C31.2915 21.0063 31.3004 21.0684 31.327 21.1127C31.3624 21.1571 31.4068 21.1748 31.4688 21.1748C31.5309 21.1748 31.5841 21.1571 31.6287 21.1127C31.673 21.0684 31.6996 21.0063 31.7085 20.9175L31.9212 19.3827L32.0811 20.8022C32.0899 20.8466 32.0899 20.8909 32.0988 20.9353C32.1077 20.9796 32.1165 21.0151 32.1343 21.0506C32.152 21.0861 32.1697 21.1127 32.2052 21.1393C32.2407 21.1659 32.285 21.1748 32.3384 21.1748C32.4093 21.1748 32.4625 21.1571 32.5069 21.1216C32.5512 21.0861 32.5867 21.0506 32.6044 21.0063C32.6221 20.9619 32.6576 20.8998 32.6931 20.8022L33.2521 19.3827L33.0302 20.9175C33.0213 21.0063 33.0302 21.0684 33.0568 21.1127C33.0925 21.1571 33.1368 21.1748 33.1989 21.1748C33.261 21.1748 33.3142 21.1571 33.3585 21.1127C33.4028 21.0684 33.4297 21.0063 33.4385 20.9175L33.6868 19.1609C33.7045 19.0545 33.6868 18.9924 33.6424 18.9569ZM22.4286 22.0709C22.3664 22.0176 22.2955 21.9733 22.1979 21.9378C22.1003 21.9023 21.9849 21.8846 21.8519 21.8846C21.6833 21.8846 21.5325 21.9112 21.3994 21.9644C21.2663 22.0176 21.1599 22.0886 21.08 22.1862C21.0002 22.2838 20.9558 22.3903 20.9381 22.5145C20.9203 22.6387 20.9381 22.754 20.9913 22.8338C21.0446 22.9137 21.1155 22.9847 21.222 23.0379C21.3196 23.0911 21.4527 23.1355 21.6035 23.171C21.7188 23.1976 21.8075 23.2242 21.8785 23.2508C21.9495 23.2774 22.0027 23.3129 22.0382 23.3573C22.0737 23.4016 22.0914 23.4637 22.0825 23.5347C22.0737 23.6234 22.0204 23.7033 21.9229 23.7654C21.8341 23.8275 21.7188 23.863 21.5857 23.863C21.4881 23.863 21.4083 23.8452 21.3551 23.8186C21.3018 23.792 21.2575 23.7476 21.2309 23.7033C21.2042 23.6589 21.1865 23.5968 21.1599 23.5258C21.1421 23.4637 21.1244 23.4194 21.0978 23.3928C21.0712 23.3661 21.0268 23.3484 20.9824 23.3484C20.9203 23.3484 20.876 23.3661 20.8316 23.4105C20.7873 23.446 20.7606 23.4992 20.7518 23.5524C20.7429 23.65 20.7606 23.7476 20.805 23.8452C20.8582 23.9428 20.9292 24.0227 21.0179 24.0848C21.151 24.1646 21.3196 24.209 21.5414 24.209C21.7277 24.209 21.8874 24.1824 22.0293 24.1203C22.1713 24.0581 22.2866 23.9783 22.3664 23.8718C22.4463 23.7654 22.4995 23.6412 22.5173 23.5081C22.535 23.3928 22.5261 23.3041 22.4995 23.2242C22.4729 23.1443 22.4197 23.0823 22.3576 23.029C22.2955 22.9758 22.2156 22.9314 22.118 22.896C22.0204 22.8605 21.914 22.825 21.7898 22.7984C21.6922 22.7717 21.6212 22.754 21.5857 22.7451C21.5414 22.7362 21.5059 22.7096 21.4615 22.6919C21.426 22.6653 21.3905 22.6387 21.3728 22.6121C21.3551 22.5766 21.3462 22.5411 21.3551 22.4967C21.3639 22.4257 21.4083 22.3636 21.4881 22.3104C21.568 22.2572 21.6656 22.2306 21.7809 22.2306C21.9051 22.2306 21.9938 22.2572 22.0471 22.3015C22.1003 22.3459 22.1358 22.4169 22.1624 22.4967C22.189 22.5588 22.2067 22.5943 22.2334 22.6209C22.26 22.6475 22.2955 22.6564 22.3487 22.6564C22.4019 22.6564 22.4552 22.6387 22.4995 22.5943C22.5439 22.5499 22.5705 22.5056 22.5794 22.4524C22.5882 22.3903 22.5794 22.337 22.5616 22.2749C22.5261 22.1862 22.4818 22.1241 22.4286 22.0709ZM24.5223 21.991C24.3892 21.92 24.2384 21.8846 24.0609 21.8846C23.9101 21.8846 23.7682 21.9112 23.6351 21.9644C23.4932 22.0176 23.3689 22.0975 23.2625 22.1951C23.1472 22.2927 23.0584 22.4169 22.9875 22.5588C22.9165 22.7008 22.8633 22.8605 22.8455 23.0379C22.8278 23.1443 22.8278 23.2508 22.8367 23.3484C22.8455 23.446 22.8633 23.5347 22.8899 23.6234C22.9165 23.7122 22.9608 23.792 23.0052 23.8541C23.0584 23.9339 23.1205 23.9961 23.1915 24.0404C23.2625 24.0848 23.3423 24.1203 23.4399 24.1469C23.5286 24.1735 23.6351 24.1824 23.7593 24.1824C23.9101 24.1824 24.0521 24.1557 24.1763 24.1114C24.3005 24.0581 24.4069 23.9961 24.4868 23.9162C24.5755 23.8363 24.6376 23.7565 24.682 23.6767C24.7263 23.5968 24.753 23.517 24.7707 23.446C24.7796 23.3928 24.7618 23.3395 24.7352 23.3041C24.6997 23.2686 24.6554 23.2508 24.6021 23.2508C24.54 23.2508 24.4957 23.2686 24.4602 23.3041C24.4247 23.3395 24.3981 23.3928 24.3715 23.446C24.3094 23.5702 24.2295 23.6678 24.1319 23.7299C24.0343 23.792 23.919 23.8275 23.7859 23.8275C23.6706 23.8275 23.5641 23.8009 23.4843 23.7388C23.4044 23.6855 23.3423 23.5968 23.3157 23.4815C23.2891 23.3661 23.2802 23.2242 23.3069 23.0468C23.3423 22.7895 23.4222 22.5854 23.5553 22.4435C23.6883 22.3015 23.8392 22.2306 24.0255 22.2306C24.1408 22.2306 24.2384 22.2572 24.3094 22.3104C24.3803 22.3636 24.4424 22.4435 24.4779 22.5588C24.5045 22.6298 24.5312 22.6742 24.5578 22.7008C24.5844 22.7274 24.6199 22.7451 24.682 22.7451C24.7352 22.7451 24.7796 22.7274 24.8239 22.683C24.8683 22.6387 24.8949 22.5943 24.8949 22.5499C24.9038 22.4524 24.886 22.3548 24.8239 22.2483C24.753 22.1507 24.6554 22.062 24.5223 21.991ZM27.2282 22.4257C27.2903 22.5943 27.2991 22.7984 27.2725 23.029C27.2459 23.1976 27.2015 23.3573 27.1395 23.4992C27.0773 23.6412 26.9886 23.7654 26.8822 23.863C26.7757 23.9694 26.6515 24.0404 26.5096 24.1025C26.3676 24.1557 26.2079 24.1824 26.0305 24.1824C25.8531 24.1824 25.7022 24.1557 25.578 24.1025C25.445 24.0493 25.3474 23.9694 25.2675 23.863C25.1877 23.7565 25.1344 23.6412 25.1078 23.4904C25.0812 23.3484 25.0812 23.1887 25.0989 23.029C25.1256 22.8605 25.1699 22.7008 25.2409 22.5588C25.3119 22.4169 25.4006 22.2927 25.507 22.1951C25.6135 22.0975 25.7377 22.0176 25.8797 21.9644C26.0216 21.9112 26.1724 21.8846 26.3499 21.8846C26.5805 21.8846 26.7757 21.9289 26.9265 22.0265C27.0596 22.1152 27.1661 22.2483 27.2282 22.4257ZM26.7934 22.6032C26.758 22.4878 26.6959 22.3903 26.6071 22.337C26.5184 22.2749 26.412 22.2483 26.2878 22.2483C26.199 22.2483 26.1103 22.266 26.0305 22.3015C25.9506 22.337 25.8797 22.3814 25.8087 22.4524C25.7466 22.5145 25.6933 22.6032 25.6401 22.7008C25.5958 22.7984 25.5603 22.9137 25.5425 23.0379C25.5248 23.1621 25.5248 23.2774 25.5425 23.3839C25.5603 23.4904 25.5958 23.5702 25.6401 23.6412C25.6845 23.7122 25.7466 23.7565 25.8176 23.792C25.8885 23.8275 25.9684 23.8452 26.0571 23.8452C26.1724 23.8452 26.2789 23.8186 26.3853 23.7565C26.4918 23.6944 26.5805 23.6057 26.6515 23.4904C26.7225 23.3661 26.7757 23.2242 26.8023 23.0468C26.8378 22.8693 26.8289 22.7274 26.7934 22.6032ZM29.4905 22.3015C29.5083 22.3725 29.5083 22.4523 29.4994 22.5322C29.4728 22.7008 29.4107 22.8338 29.3042 22.9314C29.1977 23.029 29.0469 23.1 28.8517 23.1443C28.9227 23.1887 28.9936 23.2508 29.0558 23.3307C29.1179 23.4105 29.1711 23.4992 29.2154 23.5968C29.2598 23.6944 29.2953 23.7742 29.313 23.8541C29.3308 23.9339 29.3396 23.9783 29.3396 24.0138C29.3396 24.0404 29.3219 24.0759 29.2953 24.1025C29.2687 24.1291 29.2421 24.1557 29.2066 24.1735C29.1711 24.1912 29.1356 24.2001 29.0912 24.2001C29.038 24.2001 29.0025 24.1912 28.967 24.1646C28.9404 24.138 28.9138 24.1114 28.8872 24.0759C28.8694 24.0404 28.8428 23.9872 28.8073 23.9162L28.6654 23.6146C28.6122 23.5081 28.5678 23.4194 28.5235 23.3661C28.4791 23.3129 28.4347 23.2686 28.3815 23.2508C28.3283 23.2331 28.2662 23.2153 28.1863 23.2153H28.0266L27.929 23.9251C27.9202 24.0227 27.8847 24.0848 27.8403 24.1291C27.796 24.1735 27.7339 24.2001 27.6718 24.2001C27.6008 24.2001 27.5476 24.1735 27.5121 24.1291C27.4766 24.0848 27.4677 24.0138 27.4854 23.9251L27.725 22.2128C27.7427 22.1152 27.7693 22.0442 27.8226 21.9999C27.8758 21.9555 27.9468 21.9378 28.0444 21.9378H28.7807C28.8783 21.9378 28.967 21.9378 29.038 21.9467C29.109 21.9555 29.1711 21.9733 29.2243 21.9999C29.2864 22.0265 29.3484 22.0709 29.393 22.1241C29.4462 22.1685 29.4728 22.2306 29.4905 22.3015ZM29.0203 22.3991C28.9936 22.3548 28.9582 22.3193 28.9049 22.2927C28.8517 22.266 28.7541 22.2572 28.5944 22.2572H28.1774L28.0887 22.8693H28.488C28.5944 22.8693 28.692 22.8605 28.763 22.8427C28.8428 22.825 28.8961 22.7895 28.9493 22.7451C28.9936 22.7008 29.0203 22.6387 29.038 22.5588C29.0469 22.5056 29.038 22.4435 29.0203 22.3991ZM31.4422 21.92H30.2535C30.1914 21.92 30.1382 21.9289 30.0937 21.9467C30.0493 21.9644 30.0139 21.991 29.9873 22.0354C29.9607 22.0797 29.9429 22.133 29.9341 22.1951L29.7033 23.863C29.6856 23.9606 29.7033 24.0315 29.7388 24.0759C29.7745 24.1203 29.8454 24.138 29.9429 24.138H31.1672C31.2383 24.138 31.2915 24.1203 31.3358 24.0848C31.3802 24.0493 31.3979 24.0049 31.4068 23.9606C31.4156 23.9073 31.4068 23.863 31.3713 23.8275C31.3358 23.792 31.2915 23.7742 31.2204 23.7742H30.1737L30.2623 23.1443H31.1938C31.2649 23.1443 31.3181 23.1266 31.3536 23.1C31.389 23.0645 31.4156 23.029 31.4245 22.9758C31.4334 22.9226 31.4245 22.8871 31.389 22.8516C31.3624 22.825 31.3092 22.8072 31.2383 22.8072H30.3067L30.3865 22.2572H31.3979C31.4688 22.2572 31.522 22.2394 31.5664 22.2128C31.6109 22.1862 31.6287 22.1418 31.6375 22.0886C31.6464 22.0354 31.6375 21.9999 31.6021 21.9644C31.5664 21.9378 31.522 21.92 31.4422 21.92ZM6.5747 18.9303H20.2372L19.6872 22.8516C19.5807 23.5879 18.8887 24.2001 18.1524 24.2001H7.17798C6.43275 24.2001 5.91819 23.5968 6.01578 22.8516L6.27306 21.0506H9.183C9.48463 21.0506 9.73305 20.8022 9.73305 20.5006C9.73305 20.1989 9.48463 19.9416 9.183 19.9416H6.43275L6.5747 18.9303ZM7.9232 22.6209C7.9232 22.3193 7.6748 22.0709 7.37316 22.0709H7.33767C7.03603 22.0709 6.78762 22.3193 6.78762 22.6209C6.78762 22.9226 7.03603 23.171 7.33767 23.171H7.37316C7.6748 23.1798 7.9232 22.9314 7.9232 22.6209ZM13.3793 22.6209C13.3793 22.3193 13.1309 22.0709 12.8293 22.0709H9.20073C8.89909 22.0709 8.65068 22.3193 8.65068 22.6209C8.65068 22.9226 8.89909 23.171 9.20073 23.171H12.8204C13.1309 23.1798 13.3793 22.9314 13.3793 22.6209ZM10.4516 20.4917C10.4516 20.7933 10.7001 21.0417 11.0017 21.0417H13.2019C13.5036 21.0417 13.7519 20.7933 13.7519 20.4917C13.7519 20.1901 13.5036 19.9416 13.2019 19.9416H11.0017C10.7001 19.9416 10.4516 20.1901 10.4516 20.4917Z" fill="url(#paint1_linear_25202_142165)"/>
</g>
<defs>
<linearGradient id="paint0_linear_25202_142165" x1="20.2691" y1="18.6018" x2="20.6184" y2="14.6097" gradientUnits="userSpaceOnUse">
<stop stop-color="#E54581"/>
<stop offset="1" stop-color="#FF7B4B"/>
</linearGradient>
<linearGradient id="paint1_linear_25202_142165" x1="19.4798" y1="25.2815" x2="20.1395" y2="17.7411" gradientUnits="userSpaceOnUse">
<stop stop-color="#55D5E1"/>
<stop offset="1" stop-color="#6691D0"/>
</linearGradient>
<clipPath id="clip0_25202_142165">
<rect width="27.9983" height="8.63281" fill="white" transform="translate(6.00391 15.6836)"/>
</clipPath>
</defs>
</svg>
