<svg width="40" height="40" viewBox="0 0 40 40" fill="none" xmlns="http://www.w3.org/2000/svg">
<rect width="40" height="40" rx="12" fill="white"/>
<path d="M19.999 33.6474C12.4759 33.6474 6.35156 27.5274 6.35156 20C6.35156 12.4725 12.4759 6.35254 19.999 6.35254C27.5221 6.35254 33.6464 12.4768 33.6464 20C33.6464 27.5231 27.5221 33.6474 19.999 33.6474ZM19.999 7.66395C13.1971 7.66395 7.66297 13.1981 7.66297 20C7.66297 26.8018 13.1971 32.336 19.999 32.336C26.8008 32.336 32.335 26.8018 32.335 20C32.335 13.1981 26.8008 7.66395 19.999 7.66395Z" fill="#046D99"/>
<path d="M19.9996 9.32031C14.1026 9.32031 9.32031 14.1026 9.32031 19.9996C9.32031 21.2673 9.54325 22.4825 9.94542 23.6103C11.1126 23.2999 13.8141 22.5743 14.7452 22.3251C15.9473 22.0017 17.3374 19.9996 17.6521 19.016C17.8576 18.3778 18.9636 16.3101 19.2127 16.0566C19.4619 15.8031 20.9001 13.7398 20.9001 13.1278C20.9001 12.4021 21.1667 11.5803 21.1667 11.5803C21.1667 11.5803 22.0235 10.9377 22.4825 12.4896C22.9153 13.954 22.0104 16.0741 21.7612 16.3232C21.3678 16.7167 21.1667 17.9538 22.0629 17.9538C22.653 17.9538 23.877 17.9057 24.8518 18.0849C25.4332 18.2073 25.9709 18.2991 26.2113 18.6925C26.4211 19.0335 26.3206 19.3919 26.2375 19.7548C26.102 20.3493 26.3905 20.1263 26.5435 20.7471C26.6659 21.2454 26.3818 21.429 26.3381 21.8224C26.2987 22.1634 26.5872 22.4825 26.6047 22.8584C26.6266 23.4005 26.4604 23.4355 26.3599 23.8551C26.2725 24.2092 26.3075 24.5764 26.2987 24.9873C26.2856 25.7829 24.7862 26.3643 23.6715 26.3643C21.617 26.6878 19.6105 26.4561 19.051 26.5479C18.216 26.6878 16.5506 28.6724 15.6282 29.739C16.9615 30.3379 18.4434 30.6744 19.9996 30.6744C25.8965 30.6744 30.6788 25.8922 30.6788 19.9952C30.6788 14.0982 25.8965 9.32031 19.9996 9.32031Z" fill="#046D99"/>
</svg>
