<svg width="41" height="41" viewBox="0 0 41 41" fill="none" xmlns="http://www.w3.org/2000/svg">
<rect x="0.5" y="0.48877" width="40" height="40" rx="12" fill="white"/>
<path d="M25.3937 9.68166C25.455 9.26029 25.2626 8.79265 24.7896 8.65528H10.1465C10.1465 8.65528 10.0968 8.64846 10.0218 8.65138C8.81277 8.70886 9.14207 9.7104 9.42558 10.0514L16.9098 18.9795L25.0161 10.3096C25.0161 10.3096 25.3508 9.97442 25.3937 9.68166Z" fill="url(#paint0_linear_684_805)"/>
<path d="M31.6042 16.2316C31.6042 16.2316 30.249 14.6182 28.8032 12.9094C27.2332 11.0505 25.5565 9.07811 25.4035 8.94171C25.1687 8.73224 24.9938 8.67087 24.892 8.65576H24.7892C25.2627 8.79313 25.4547 9.26078 25.3933 9.68215C25.3504 9.97491 25.0163 10.3101 25.0163 10.3101L16.9104 18.98L13.632 22.4863L11.6109 24.5557C11.1769 24.9176 11.1185 25.5611 11.4804 25.9951L16.4696 31.959C16.8305 32.3931 17.4745 32.451 17.9085 32.0901L31.4736 17.6701C31.9062 17.3091 31.9651 16.6651 31.6042 16.2316Z" fill="url(#paint1_linear_684_805)"/>
<defs>
<linearGradient id="paint0_linear_684_805" x1="17.2825" y1="18.7816" x2="17.2825" y2="8.68996" gradientUnits="userSpaceOnUse">
<stop offset="0.0044" stop-color="#09738C"/>
<stop offset="0.9959" stop-color="#009CA3"/>
</linearGradient>
<linearGradient id="paint1_linear_684_805" x1="10.2261" y1="20.491" x2="31.226" y2="20.491" gradientUnits="userSpaceOnUse">
<stop stop-color="#A8E4B6"/>
<stop offset="0.9959" stop-color="#009CA3"/>
</linearGradient>
</defs>
</svg>
