<svg width="40" height="40" viewBox="0 0 40 40" fill="none" xmlns="http://www.w3.org/2000/svg">
<rect x="-6.10352e-05" width="40" height="40" rx="12" fill="white"/>
<path fill-rule="evenodd" clip-rule="evenodd" d="M14.1818 8C7.29643 8 1.71509 13.5817 1.71509 20.4671C1.71509 27.3522 7.29665 32.9335 14.182 32.9335C16.0504 32.9335 17.8226 32.5223 19.4136 31.7852C19.0649 31.5737 18.7255 31.3456 18.3963 31.1019C17.1594 31.5493 15.8415 31.7949 14.494 31.7949C8.33298 31.7949 4.03113 26.6278 4.03091 20.4092C4.03065 15.6377 7.9422 10.7035 12.7715 10.7035C14.5095 10.7035 16.3764 11.2995 17.8861 12.3423C14.844 16.3887 10.3107 20.392 5.39865 23.6849C5.51017 24.0758 5.64142 24.4581 5.79201 24.8296C11.9229 21.2448 18.4154 17.0884 23.7839 12.5171C21.4972 9.75784 18.0453 8 14.1818 8ZM34.9129 17.1043C29.9849 20.408 25.4377 24.427 22.3954 28.4861C23.9302 29.5943 25.863 30.2302 27.6587 30.2302C32.488 30.2302 36.3995 25.296 36.3993 20.5244C36.399 14.3058 32.0972 9.13866 25.9362 9.13866C24.5887 9.13866 23.2708 9.38424 22.0338 9.83172C21.7047 9.58799 21.3652 9.36004 21.0166 9.14829C22.6076 8.41148 24.3798 8 26.2481 8C33.1335 8 38.7151 13.5817 38.7151 20.4666C38.7151 27.3522 33.1337 32.9335 26.2484 32.9335C22.3178 32.9335 18.8127 31.1141 16.5277 28.2722C21.8964 23.701 28.3887 19.5441 34.5196 15.9598C34.6701 16.3313 34.8014 16.7131 34.9129 17.1043ZM33.9235 14.7196C26.9409 18.7977 17.8623 24.6618 12.137 30.4749C10.4958 30.0794 9.08081 29.2537 7.94456 28.1318L33.1712 13.5673C33.4461 13.9317 33.6972 14.317 33.9235 14.7196ZM6.38812 26.0698C13.3706 21.9912 22.4492 16.1271 28.1748 10.314C29.8157 10.7094 31.231 11.5357 32.3671 12.6571L7.14046 27.2216C6.86571 26.8572 6.61466 26.4723 6.38812 26.0698Z" fill="#F90C00"/>
</svg>
