<svg width="40" height="41" viewBox="0 0 40 41" fill="none" xmlns="http://www.w3.org/2000/svg">
<rect x="-6.10352e-05" y="0.46582" width="40" height="40" rx="12" fill="white"/>
<path d="M11.4679 26.674L30.7421 8.36316L25.0831 8.36317L8.90322 23.4514C7.20529 25.2071 5.18996 23.1891 6.8964 21.5931L13.0147 15.9229C14.5847 13.624 12.0054 10.9887 9.7626 12.6708L2.70822 19.3391C2.70822 19.3391 -1.14887 23.2526 2.72846 27.2614C6.81353 30.9907 11.4679 26.674 11.4679 26.674Z" fill="#313131"/>
<path d="M28.5319 14.2595L9.25795 32.5704H14.9167L31.0967 17.4821C32.7947 15.7264 34.81 17.7444 33.1035 19.3404L26.9853 25.0106C25.4153 27.3095 27.9944 29.9448 30.2375 28.2627L37.2918 21.5943C37.2918 21.5943 41.1488 17.6809 37.2713 13.672C33.1866 9.9428 28.5319 14.2595 28.5319 14.2595Z" fill="#313131"/>
<path d="M13.279 9.43731C13.8899 8.24954 15.348 7.7819 16.5358 8.39281C17.7235 9.00374 18.1912 10.4618 17.5802 11.6496C16.9694 12.8373 15.5113 13.3049 14.3235 12.694C13.1357 12.0832 12.6681 10.6251 13.279 9.43731Z" fill="#313131"/>
<path d="M26.7203 31.4944C26.1093 32.6822 24.6515 33.1498 23.4639 32.5389C22.2757 31.928 21.8084 30.4699 22.4189 29.2821C23.03 28.0943 24.4883 27.6267 25.6759 28.2376C26.8636 28.8486 27.3314 30.3066 26.7203 31.4944Z" fill="#313131"/>
</svg>
