<svg width="40" height="40" fill="none" xmlns="http://www.w3.org/2000/svg"><rect width="40" height="40" rx="12" fill="#fff"/><g clip-path="url(#a)"><path d="M9.822 30.667v1.814h-.646v-3.919h.646v1.657h.156l1.538-1.657h.78l-1.76 1.881v-.067l1.805 2.082h-.825l-1.56-1.813h-.134v.022zM12.945 28.562h.647v.672h.022c.09-.157.178-.291.312-.403.134-.112.268-.202.424-.246.156-.068.334-.09.512-.09.335 0 .624.09.87.246.245.157.445.403.58.717.133.313.2.672.2 1.075 0 .403-.067.761-.2 1.074a1.498 1.498 0 0 1-.58.694 1.565 1.565 0 0 1-.847.247c-.179 0-.357-.023-.513-.09a1.612 1.612 0 0 1-.424-.246 1.667 1.667 0 0 1-.312-.38h-.022v1.97h-.646v-5.24h-.023zm2.363 3.224c.156-.111.29-.29.38-.492.088-.224.133-.47.133-.761 0-.291-.045-.56-.134-.784a1.08 1.08 0 0 0-.379-.493 1.011 1.011 0 0 0-.602-.179.99.99 0 0 0-.58.18 1.045 1.045 0 0 0-.4.514c-.09.224-.134.47-.134.762 0 .29.044.537.156.761.089.224.223.38.401.515.178.112.357.179.58.179.2-.022.4-.09.58-.201zM17.894 32.301c-.268-.156-.468-.403-.624-.694a2.554 2.554 0 0 1-.223-1.074c0-.403.067-.762.223-1.075.156-.314.356-.537.602-.717.267-.179.58-.246.914-.246.356 0 .668.09.913.246.246.157.446.403.58.695.134.29.2.649.2 1.03v.246h-3.12v-.515h2.809l-.335.47v-.246c0-.314-.044-.56-.133-.762a1.072 1.072 0 0 0-.38-.447 1.081 1.081 0 0 0-.557-.135c-.223 0-.401.045-.557.157-.156.112-.29.246-.379.448-.09.201-.134.448-.134.739v.246c0 .269.045.515.134.716.09.202.223.336.401.448a1.1 1.1 0 0 0 .602.157c.156 0 .312-.022.446-.067a.84.84 0 0 0 .334-.202c.09-.09.156-.179.179-.29l.022-.045h.646v.044c-.022.157-.089.314-.178.448-.09.134-.2.269-.357.38-.133.113-.312.18-.49.247s-.379.09-.58.09c-.378-.045-.69-.135-.958-.292zM20.813 33.533v-1.612h.334c.134-.09.245-.246.312-.47.067-.224.111-.47.134-.717l.156-2.172h2.675v3.36h.624v1.611h-.602v-1.075h-3.032v1.075h-.602zm2.964-4.433h-1.449l-.111 1.634c-.022.247-.045.47-.112.672a2.028 2.028 0 0 1-.223.493v.022h1.895V29.1zM25.652 28.563h.647v2.91h.312l-.446.247 2.095-3.135h.647v3.918h-.647v-2.91h-.312l.446-.247-2.095 3.135h-.647v-3.919zM32.694 29.1h-1.249v3.358H30.8V29.1h-1.248v-.538h3.143v.538z" fill="#020203"/><path d="M9.512 7.291h.736v10.658h2.586v.963h-2.586v2.418c0 .202.089.38.245.515.245.179.513.269.825.269h.958v.85H6.057v-.85h1.16c.378 0 .668-.09.846-.247.179-.156.268-.403.268-.716v-2.195H2v-1.074L9.512 7.29zm-1.159 3.045L2.936 17.95h5.417v-7.613zM23.178 14.837c-.49.739-1.048 1.298-1.694 1.657-.647.38-1.382.56-2.185.56-1.114 0-2.14-.404-3.054-1.187-.914-.784-1.382-1.948-1.382-3.493 0-1.5.513-2.777 1.516-3.807C17.382 7.515 18.61 7 20.012 7c1.539 0 2.831.65 3.857 1.948 1.025 1.299 1.538 3.112 1.538 5.44 0 1.949-.29 3.583-.847 4.905-.58 1.343-1.338 2.328-2.274 2.977a5.486 5.486 0 0 1-3.187.986c-1.137 0-2.029-.247-2.675-.762-.647-.515-.959-1.12-.959-1.813 0-.47.134-.851.401-1.12a1.377 1.377 0 0 1 1.003-.425c.357 0 .67.134.937.38.245.247.379.538.379.896 0 .246-.112.515-.357.828-.156.18-.223.359-.223.493 0 .202.134.403.379.537.245.157.646.224 1.181.224.78 0 1.45-.224 2.051-.649.58-.425 1.07-1.142 1.427-2.127.357-.985.557-2.262.557-3.829l-.022-1.052zm-3.143-7.03c-.847 0-1.516.357-2.051 1.051-.535.695-.803 1.77-.803 3.18 0 1.299.268 2.261.803 2.888.535.627 1.248.963 2.118.963.869 0 1.582-.336 2.162-1.03.58-.694.87-1.634.87-2.866 0-1.276-.313-2.284-.915-3.045-.602-.761-1.337-1.142-2.184-1.142zM29.397 7c1.895.425 3.433.65 4.636.65.558 0 1.093-.045 1.583-.157s.87-.224 1.115-.381c.133-.067.2-.112.245-.112.067 0 .111.067.111.18 0 .268-.178.604-.512 1.051a3.463 3.463 0 0 1-1.382 1.03c-.58.247-1.249.381-2.006.381-.87 0-1.917-.134-3.121-.403l-.357 4.299a9.47 9.47 0 0 1 1.627-.65c.513-.134 1.003-.223 1.471-.223 1.472 0 2.698.492 3.7 1.455 1.004.985 1.494 2.194 1.494 3.627 0 1.59-.535 2.911-1.582 3.941-1.07 1.03-2.43 1.545-4.124 1.545-1.293 0-2.34-.38-3.143-1.12-.803-.738-1.226-1.611-1.226-2.641 0-.627.134-1.098.379-1.433.267-.336.58-.493.98-.493.402 0 .714.134.959.403s.379.605.379 1.052c0 .314-.067.582-.178.762-.134.179-.357.335-.67.447-.333.135-.49.27-.49.448 0 .247.112.515.335.806.223.292.557.515 1.003.717.446.179.958.268 1.56.268 1.137 0 2.007-.358 2.608-1.074.602-.717.892-1.881.892-3.493 0-1.456-.312-2.53-.959-3.224-.624-.672-1.448-1.008-2.43-1.008-.445 0-.89.09-1.337.246a4.984 4.984 0 0 0-1.337.74c-.045.514-.156.872-.29 1.052a.624.624 0 0 1-.513.268c-.156 0-.267-.044-.356-.156-.09-.112-.134-.247-.134-.448 0-.336.156-.65.468-.986.09-.09.156-.179.2-.268l.268-3.314A54.65 54.65 0 0 0 29.397 7z" fill="#921C32"/></g><defs><clipPath id="a"><path fill="#fff" transform="translate(2 7)" d="M0 0h36v27H0z"/></clipPath></defs></svg>