<svg width="40" height="40" viewBox="0 0 40 40" fill="none" xmlns="http://www.w3.org/2000/svg">
<path d="M32.0927 26.6192C33.229 24.59 33.8767 22.2509 33.8767 19.7607C33.8767 17.2719 33.2297 14.934 32.0945 12.9056L35.7245 9.82422C37.5302 12.7059 38.574 16.1126 38.574 19.7627C38.574 23.413 37.53 26.8199 35.7241 29.7018L32.0927 26.6192Z" fill="#F08B18"/>
<path d="M19.7869 1C24.5332 1 28.8684 2.75771 32.1754 5.65688L28.5453 8.73844C26.1405 6.83036 23.097 5.69052 19.787 5.69052C12.0052 5.69052 5.69682 11.9905 5.69682 19.7618C5.69682 27.5332 12.0052 33.8333 19.787 33.8333C23.0968 33.8333 26.1401 32.6932 28.5448 30.7854L32.1749 33.8672C28.8679 36.7662 24.5329 38.5234 19.7869 38.5234C9.4112 38.5234 1 30.1234 1 19.7617C1 9.3999 9.4112 1 19.7869 1Z" fill="#5D9922"/>
<path d="M27.8385 19.7615C27.8385 24.2023 24.2337 27.8023 19.7869 27.8023C15.3402 27.8023 11.7354 24.2023 11.7354 19.7615C11.7354 15.3207 15.3402 11.7207 19.7869 11.7207C24.2337 11.7207 27.8385 15.3207 27.8385 19.7615Z" fill="#5D9922"/>
</svg>
