<svg width="40" height="40" viewBox="0 0 40 40" fill="none" xmlns="http://www.w3.org/2000/svg">
<rect width="40" height="40" fill="white"/>
<g clip-path="url(#clip0_23747_166278)">
<path fill-rule="evenodd" clip-rule="evenodd" d="M20.0719 9C18.8009 9 17.9029 9.622 17.1989 10.479C16.6049 11.199 16.0449 12.216 15.4239 13.339L15.2899 13.584C13.8819 16.129 10.1929 22.614 8.51985 25.544C7.65985 27.055 7.91485 28.79 8.93185 29.904C10.0039 31.077 11.7579 31.397 13.4159 30.427C14.7139 29.667 16.0029 28.922 17.1619 28.252C18.2919 27.598 19.2989 27.016 20.0729 26.56C20.8389 27.01 21.8329 27.585 22.9469 28.229H22.9479C24.1179 28.906 25.4219 29.659 26.7339 30.427C28.3919 31.397 30.1459 31.077 31.2179 29.904C32.2349 28.79 32.4909 27.055 31.6289 25.544C29.9569 22.614 26.2669 16.129 24.8599 13.584L24.7329 13.352C24.1089 12.222 23.5449 11.202 22.9479 10.478C22.2409 9.622 21.3439 9 20.0719 9Z" fill="#FF3A1F"/>
<path fill-rule="evenodd" clip-rule="evenodd" d="M20.0719 9C18.8009 9 17.9029 9.622 17.1989 10.479C16.6049 11.199 16.0449 12.216 15.4239 13.339L15.2899 13.584C13.8819 16.129 10.1929 22.614 8.51985 25.544C7.65985 27.055 7.91485 28.79 8.93185 29.904C10.0019 31.076 11.7549 31.397 13.4119 30.43L28.0469 21.991C28.3409 21.821 28.6899 21.615 29.2129 21.301C29.0459 21.007 28.9229 20.789 28.8129 20.591C28.7249 20.432 28.6429 20.286 28.5519 20.126L28.2549 19.606C27.0629 17.5315 25.8889 15.4468 24.7329 13.352C24.1089 12.222 23.5449 11.202 22.9479 10.478C22.2409 9.622 21.3439 9 20.0719 9Z" fill="#293346"/>
</g>
<defs>
<clipPath id="clip0_23747_166278">
<rect width="24" height="22" fill="white" transform="translate(8 9)"/>
</clipPath>
</defs>
</svg>
