<svg width="40" height="40" viewBox="0 0 40 40" fill="none" xmlns="http://www.w3.org/2000/svg">
<rect width="40" height="40" rx="12" fill="white"/>
<path fill-rule="evenodd" clip-rule="evenodd" d="M19.8383 19.8799C23.7832 19.8799 26.9813 23.0779 26.9813 27.0228C26.9813 30.9678 23.7832 34.1657 19.8383 34.1657C15.8933 34.1657 12.6953 30.9678 12.6953 27.0228C12.6951 25.1283 13.4476 23.3114 14.7872 21.9718C16.1268 20.6322 17.9438 19.8797 19.8383 19.8799Z" fill="#00284D"/>
<path fill-rule="evenodd" clip-rule="evenodd" d="M19.5275 27.5135L19.5454 28.0556C19.6834 28.107 20.5005 28.0556 20.7316 28.0809V28.6752L19.5266 28.6825V30.2287C19.4311 30.2572 18.6221 30.2327 18.4711 30.2221L18.4662 28.6834H17.4303L17.4254 28.0768L18.4572 28.0817C18.4768 27.9225 18.4646 27.6801 18.4654 27.5103H17.4295C17.4138 27.3181 17.4163 27.1248 17.4368 26.9331L18.4719 26.9209L18.4915 23.987C18.9552 23.9053 19.4257 23.8684 19.8964 23.8768C20.205 23.8768 20.5699 23.8768 20.8532 23.9461C21.4304 24.0833 21.778 24.2882 22.0548 24.8098C22.1817 25.0811 22.2433 25.3783 22.2343 25.6776C22.2343 26.4074 21.8736 26.9086 21.4604 27.1699C20.8124 27.578 20.3405 27.4556 19.5266 27.5168L19.5275 27.5135ZM24.5031 27.4246C24.5953 26.1225 24.1985 24.8751 23.3519 23.9257L23.2076 23.7698C23.062 23.623 22.9092 23.4838 22.7494 23.3527C22.5277 23.1811 22.292 23.0281 22.045 22.8955C20.8653 22.2751 19.4458 22.1535 18.2009 22.631C17.7934 22.7848 17.4089 22.9935 17.058 23.2514C16.6093 23.5803 16.2224 23.986 15.9152 24.4498C15.5233 25.058 15.1927 25.8376 15.1804 26.6213C15.1617 27.5193 15.1462 27.8539 15.4523 28.6866C15.7102 29.3879 16.1494 29.9617 16.6237 30.4401L16.9421 30.7103C17.5952 31.2483 18.5389 31.6083 19.4556 31.694C20.1425 31.7503 20.8332 31.655 21.4794 31.4148C21.753 31.3086 22.0176 31.18 22.2704 31.0303L22.9374 30.5348C22.988 30.4834 23.0425 30.4475 23.1007 30.3944L23.5088 29.9315C24.0542 29.1968 24.4336 28.4107 24.5031 27.4246Z" fill="#00284D"/>
<path fill-rule="evenodd" clip-rule="evenodd" d="M19.779 32.6371C18.4662 32.6287 17.1986 32.1572 16.1993 31.3057L15.8516 30.9661C15.7295 30.8538 15.6145 30.7341 15.5071 30.6077C15.1936 30.1996 14.9234 29.8387 14.7063 29.3147C14.3846 28.5391 14.2238 27.8795 14.2263 27.0085C14.2196 25.5232 14.811 24.0977 15.8671 23.0533C17.7169 21.2047 20.5981 20.8781 22.815 22.2656L23.2289 22.5537C23.4214 22.704 23.6057 22.8642 23.7814 23.0338L24.1187 23.3995C24.9537 24.4207 25.4182 25.5546 25.4361 26.9644C25.4556 27.7666 25.2944 28.5629 24.9642 29.2943C24.8241 29.61 24.6559 29.9124 24.4615 30.1979L24.0818 30.6935C24.0518 30.7302 24.0273 30.7465 24.0002 30.7816C23.7777 31.0283 23.5341 31.255 23.2721 31.4592C23.2092 31.5065 23.1381 31.5637 23.0738 31.6053C22.9309 31.6992 22.8084 31.7874 22.6483 31.882C21.7788 32.3891 20.7872 32.6496 19.7806 32.6355L19.779 32.6371ZM13.3822 26.7383V27.3799C13.3969 27.4151 13.436 27.9514 13.4524 28.0575C13.6336 29.2583 14.1365 30.2665 14.8899 31.1808C15.1275 31.4494 15.3813 31.7032 15.6499 31.9408C15.7814 32.06 15.9267 32.1645 16.0761 32.2755C17.6655 33.4649 19.3284 33.4322 19.441 33.4772H20.1757C20.21 33.4633 20.7472 33.4267 20.8656 33.4053C21.0981 33.3637 21.2811 33.3237 21.4997 33.2649C22.3352 33.0427 23.1173 32.654 23.7985 32.122L24.4141 31.5759C24.9505 31.0379 25.3284 30.4583 25.6778 29.7693C26.2492 28.642 26.2606 27.3783 26.2877 27.3089V26.7375C26.2019 26.5269 26.3775 24.5064 24.4157 22.4688C24.3473 22.3978 24.2828 22.3513 24.2132 22.2835L23.7961 21.9268C23.6108 21.7929 23.566 21.7488 23.3503 21.6117C22.7826 21.2363 22.1577 20.9557 21.4997 20.7807C21.2851 20.7284 21.0915 20.6778 20.8638 20.6443C19.7373 20.459 18.5816 20.5788 17.5169 20.9913C17.3275 21.0607 17.1716 21.1374 16.9879 21.2215C16.5697 21.4186 16.1767 21.6653 15.8173 21.9562C15.7471 22.0109 15.685 22.0705 15.614 22.1252C15.3787 22.3341 15.1555 22.5562 14.9454 22.7905L14.6883 23.1072C14.6361 23.1807 14.583 23.2485 14.5307 23.3227C14.3223 23.6303 14.1368 23.9528 13.9756 24.2876C13.7066 24.8386 13.5269 25.4288 13.4434 26.0362C13.4279 26.153 13.3969 26.6893 13.3789 26.7342L13.3822 26.7383Z" fill="#00284D"/>
<path fill-rule="evenodd" clip-rule="evenodd" d="M19.5259 26.9074C20.0418 26.8764 20.3275 26.9956 20.7022 26.7009C20.9772 26.4845 21.086 26.1996 21.1039 25.7311C21.1194 25.349 20.9944 24.9809 20.6859 24.78C20.3079 24.5351 19.9953 24.567 19.5234 24.5449V26.9074H19.5259Z" fill="#00284D"/>
<path fill-rule="evenodd" clip-rule="evenodd" d="M20.0159 10.4196C20.1106 10.4115 20.7579 10.3739 21.842 10.8074C23.0185 11.2776 23.5401 11.9837 23.5401 11.9837L24.0976 11.3437C24.2695 11.6347 24.3704 11.9623 24.3914 12.2997C24.4178 12.6237 24.3649 12.9493 24.2371 13.2482C24.4723 13.5813 24.5302 13.9886 24.6632 14.3658C24.7964 14.743 25.8397 13.6311 26.2961 12.7119C26.7524 11.7927 26.7147 10.9396 26.8103 10.8809C26.9057 10.8221 29.1484 10.2408 31.1849 9.83678C33.2217 9.43268 35.1711 8.66778 36.2813 8.06124C36.8664 7.74886 37.4288 7.39617 37.9647 7.00571C37.9647 7.00571 38.0087 8.43267 37.377 9.7339C36.745 11.0352 35.9426 11.3511 35.9426 11.3511C35.9426 11.3511 35.2593 13.1674 35.0094 13.667C34.7598 14.1666 33.8919 14.1568 33.8919 14.1568C33.8919 14.1568 33.4577 15.3185 33.0021 15.8711C32.5466 16.4238 31.5459 16.3422 31.5459 16.3422C31.5459 16.3422 31.4725 17.5479 30.7818 18.0769C30.0911 18.6059 29.4757 18.592 29.4757 18.592C29.4757 18.592 28.9751 19.7243 28.251 19.8859C27.5271 20.0475 27.0895 19.8859 27.0895 19.8859C27.0895 19.8859 26.5826 20.6982 25.865 20.8598C25.1474 21.0214 24.4462 20.7716 24.4462 20.7716C24.4462 20.7716 24.8249 21.1136 24.8544 21.5626C24.8836 22.0116 24.5531 22.4002 24.5531 22.4002L20.2191 22.6337V22.6508L20.0559 22.6418L19.7841 22.6565V22.628L15.4501 22.3945C15.4501 22.3945 15.1195 22.0051 15.1489 21.5561C15.1783 21.1071 15.5571 20.7659 15.5571 20.7659C15.5571 20.7659 14.8509 21.0157 14.1382 20.8541C13.4256 20.6924 12.9137 19.8802 12.9137 19.8802C12.9137 19.8802 12.4721 20.0434 11.7513 19.8802C11.0305 19.7169 10.5268 18.5855 10.5268 18.5855C10.5268 18.5855 9.90962 18.601 9.22063 18.0712C8.53165 17.5414 8.45573 16.3356 8.45573 16.3356C8.45573 16.3356 7.45652 16.4173 7.00021 15.8654C6.54387 15.3136 6.11039 14.1511 6.11039 14.1511C6.11039 14.1511 5.24345 14.1658 4.99282 13.6662C4.74222 13.1666 4.05894 11.3503 4.05894 11.3503C4.05894 11.3503 3.2581 11.0343 2.62544 9.73227C1.99278 8.43022 2.05648 7 2.05648 7C2.59276 7.38869 3.15519 7.74 3.73974 8.05144C4.84997 8.66125 6.79856 9.42615 8.83534 9.83107C10.8721 10.236 13.1146 10.8156 13.2101 10.8743C13.3056 10.9331 13.2689 11.7862 13.7244 12.7054C14.1799 13.6246 15.224 14.7373 15.357 14.3601C15.4901 13.9829 15.5481 13.5756 15.7832 13.2425C15.6557 12.9435 15.6027 12.618 15.6289 12.294C15.6499 11.9565 15.7506 11.6289 15.9228 11.338L16.4787 11.9797C16.4787 11.9797 17.0003 11.2735 18.1767 10.8025C19.353 10.3315 20.0159 10.4156 20.0159 10.4156V10.4196Z" fill="#00284D"/>
<path fill-rule="evenodd" clip-rule="evenodd" d="M20.1289 15.0181C20.1289 15.0181 20.2465 14.5283 20.8815 14.2768C21.5166 14.0254 22.4806 13.4099 23.0228 13.0474C23.5647 12.685 23.9934 11.8164 23.9934 11.8164C24.0856 12.0876 24.1372 12.3709 24.1462 12.6572C24.1699 13.1691 23.511 13.5748 23.511 13.5748L23.7167 13.6515C23.7167 13.6515 23.6522 13.7813 22.9754 14.0336C22.2987 14.2858 20.8815 14.2785 20.1289 15.0222V15.0181Z" fill="white"/>
<path fill-rule="evenodd" clip-rule="evenodd" d="M19.8702 15.0181C19.8702 15.0181 19.7526 14.5283 19.1175 14.2768C18.4824 14.0254 17.5183 13.4099 16.9763 13.0474C16.4342 12.685 16.0057 11.8164 16.0057 11.8164C15.9135 12.0862 15.8618 12.3682 15.8522 12.6531C15.8285 13.165 16.4873 13.5707 16.4873 13.5707L16.2816 13.6475C16.2816 13.6475 16.346 13.7772 17.0228 14.0295C17.6996 14.2817 19.1167 14.2744 19.8694 15.0181H19.8702Z" fill="white"/>
<path fill-rule="evenodd" clip-rule="evenodd" d="M19.5211 15.2565C19.5211 15.2565 19.2713 14.912 18.7007 14.7185C18.2457 14.5804 17.7755 14.4981 17.3007 14.4736H17.2305C17.2305 14.4736 17.2362 15.5504 18.1186 15.8443C19.0011 16.1382 19.5211 15.2533 19.5211 15.2533V15.2565Z" fill="#FFED00"/>
<path fill-rule="evenodd" clip-rule="evenodd" d="M20.4297 15.2565C20.4297 15.2565 20.6795 14.912 21.2502 14.7185C21.8208 14.5251 22.58 14.4736 22.65 14.4736H22.7211C22.7211 14.4736 22.7145 15.5504 21.8329 15.8443C20.9513 16.1382 20.4297 15.2533 20.4297 15.2533V15.2565Z" fill="#FFED00"/>
<path fill-rule="evenodd" clip-rule="evenodd" d="M19.4472 15.203C19.2573 14.9803 19.0078 14.8166 18.7279 14.7311C18.3298 14.6116 17.9187 14.5409 17.5034 14.5205H17.4414C17.4414 14.5205 17.4471 15.4634 18.2202 15.7213C18.9933 15.9793 19.4496 15.203 19.4496 15.203H19.4472Z" fill="#F5B700"/>
<path fill-rule="evenodd" clip-rule="evenodd" d="M20.5039 15.203C20.694 14.9806 20.9436 14.8169 21.2232 14.7311C21.6213 14.6117 22.0324 14.541 22.4477 14.5205H22.5095C22.5095 14.5205 22.5048 15.4634 21.7309 15.7213C20.957 15.9793 20.5039 15.203 20.5039 15.203Z" fill="#F5B700"/>
<path fill-rule="evenodd" clip-rule="evenodd" d="M19.735 18.9132C19.6101 18.8177 19.4411 18.6797 19.2239 18.4871C18.6892 18.0103 17.7888 16.9042 17.7888 16.9042C17.7697 17.0012 17.7658 17.1007 17.7774 17.1989C17.7888 17.4226 17.9594 17.9107 17.9594 17.9107C17.9594 17.9107 17.7888 17.8454 17.3423 17.3107C16.8957 16.776 16.1806 15.6838 16.1806 15.6838L16.099 16.2487C16.099 16.2487 15.5578 15.554 15.7227 14.4364C15.7796 14.0861 15.8842 13.7452 16.0337 13.4233L16.2345 13.5752L16.099 13.6568C16.1581 13.7154 16.2211 13.77 16.2876 13.8201C16.3546 13.8636 16.424 13.9031 16.4957 13.9384C16.4744 14.0921 16.4864 14.2486 16.5309 14.3972C16.6051 14.6764 16.8868 14.9327 16.8868 14.9327C16.7557 14.9467 16.6231 14.9365 16.4957 14.9025C16.3677 14.8611 16.2504 14.792 16.1521 14.7001C16.1521 14.7001 16.1814 15.0797 16.7235 15.4968C17.2656 15.914 17.7529 15.9205 17.7529 15.9205C17.7252 16.0014 17.6711 16.0706 17.5994 16.1172C17.5073 16.1849 17.4023 16.233 17.2909 16.2585C17.2909 16.2585 17.579 16.4348 18.2027 16.3589C18.5312 16.327 18.8538 16.2499 19.1611 16.1295C19.1611 16.1295 19.2027 17.1997 19.4876 17.6413C19.6274 17.8736 19.8025 18.0827 20.0068 18.2609C20.2108 18.0825 20.386 17.8735 20.526 17.6413C20.8084 17.1997 20.8526 16.1295 20.8526 16.1295C21.1599 16.2497 21.4825 16.3269 21.8108 16.3589C22.4346 16.4348 22.7227 16.2585 22.7227 16.2585C22.6113 16.233 22.5063 16.1849 22.4141 16.1172C22.3425 16.0709 22.2888 16.0015 22.2616 15.9205C22.2616 15.9205 22.7514 15.9148 23.291 15.4968C23.8305 15.0789 23.8624 14.7001 23.8624 14.7001C23.7642 14.792 23.6467 14.8611 23.5187 14.9025C23.3913 14.9365 23.2588 14.9467 23.1277 14.9327C23.1277 14.9327 23.41 14.6764 23.4835 14.3972C23.528 14.2486 23.5401 14.0921 23.5187 13.9384C23.5914 13.9025 23.6623 13.8621 23.7302 13.8176C23.7965 13.7675 23.8595 13.713 23.9187 13.6544L23.7831 13.5727L23.984 13.4209C24.131 13.744 24.2329 14.0857 24.2869 14.4364C24.4501 15.554 23.9106 16.2487 23.9106 16.2487L23.8289 15.6838C23.8289 15.6838 23.1114 16.7719 22.6648 17.3075C22.2182 17.843 22.0468 17.9075 22.0468 17.9075C22.0468 17.9075 22.2174 17.4177 22.229 17.1956C22.2406 17.0974 22.2366 16.998 22.2174 16.9009C22.2174 16.9009 21.3195 18.0071 20.7823 18.4838C20.5652 18.6765 20.3962 18.8103 20.2713 18.9099C20.1867 18.9765 20.0987 19.0386 20.0076 19.0961C19.9162 19.0388 19.8279 18.9766 19.7431 18.9099L19.735 18.9132Z" fill="#1CA6ED"/>
<path fill-rule="evenodd" clip-rule="evenodd" d="M23.0462 12.034C22.9662 12.1831 22.874 12.3254 22.7703 12.4593C22.5615 12.7042 22.1875 12.8471 22.1875 12.8471L22.029 12.1793C22.029 12.1793 21.9287 12.8324 21.697 13.203C21.465 13.5736 21.229 13.6561 21.229 13.6561L21.2235 13.3091C21.0821 13.516 20.9212 13.709 20.7434 13.8854C20.6148 14.0102 20.4671 14.1136 20.3058 14.1916C20.2824 14.0846 20.2519 13.9793 20.2144 13.8765C20.1615 13.7673 20.0893 13.6686 20.0013 13.585C19.9131 13.6686 19.8407 13.7673 19.7875 13.8765C19.75 13.9793 19.7197 14.0846 19.6968 14.1916C19.5352 14.1137 19.3872 14.0104 19.2585 13.8854C19.0807 13.7091 18.9202 13.5161 18.7793 13.3091L18.7727 13.6561C18.7727 13.6561 18.5376 13.5744 18.3058 13.203C18.074 12.8316 17.9744 12.1793 17.9744 12.1793L17.8111 12.8471C17.8111 12.8471 17.4372 12.7034 17.2291 12.4593C17.1249 12.3258 17.0326 12.1835 16.9531 12.034C17.2809 11.676 17.6713 11.3808 18.105 11.163C18.5919 10.9209 19.1164 10.7632 19.656 10.6968H19.643C19.7055 10.6877 19.7684 10.682 19.8315 10.6797C19.8653 10.6797 19.9028 10.6797 19.9442 10.6797H20.0577C20.099 10.6797 20.1366 10.6797 20.1703 10.6797C20.2334 10.682 20.2964 10.6877 20.3589 10.6968H20.3458C20.8854 10.7632 21.4099 10.9209 21.8968 11.163C22.3292 11.3804 22.7187 11.6744 23.0462 12.0307V12.034Z" fill="#1CA6ED"/>
<path fill-rule="evenodd" clip-rule="evenodd" d="M19.969 20.0669C20.0294 19.9787 20.4082 19.4416 20.867 19.2203C21.3665 18.9795 22.0604 18.6146 22.4841 18.2677C22.9077 17.9207 23.7543 16.9207 23.7543 16.9207L23.5136 17.7616C23.8049 17.5186 24.0535 17.2283 24.2483 16.9028C24.4721 16.5341 24.6441 16.1363 24.7592 15.7207C24.7592 15.7207 25.0759 16.6856 24.9127 17.5501C24.7494 18.4146 24.2775 18.8857 24.2775 18.8857L24.1535 18.0562C24.1535 18.0562 23.6832 19.1028 23.174 19.5738C22.6644 20.0449 22.1862 20.1453 22.1862 20.1453L22.68 20.2106C22.68 20.2106 21.9795 20.9747 21.2156 21.4041C20.5576 21.7738 20.1004 21.8775 19.9853 21.8996V21.9045H19.9706H19.9567V21.8996C19.8408 21.8775 19.3853 21.7738 18.7265 21.4041C17.9616 20.9747 17.262 20.2106 17.262 20.2106L17.7559 20.1453C17.7559 20.1453 17.2792 20.0457 16.7673 19.5738C16.2555 19.102 15.7877 18.0562 15.7877 18.0562L15.6644 18.8857C15.6644 18.8857 15.1877 18.4146 15.0293 17.5501C14.871 16.6856 15.182 15.7207 15.182 15.7207C15.2955 16.1361 15.4658 16.5339 15.6881 16.9028C15.8827 17.2285 16.1311 17.5189 16.4228 17.7616L16.1779 16.9207C16.1779 16.9207 17.0253 17.9207 17.4489 18.2677C17.8726 18.6146 18.5665 18.9795 19.0661 19.2203C19.5241 19.4416 19.9029 19.9787 19.9641 20.0669H19.969Z" fill="#1CA6ED"/>
<path fill-rule="evenodd" clip-rule="evenodd" d="M19.3633 16.1001C19.3633 16.1001 19.4515 17.0233 19.5723 17.3246C19.6828 17.558 19.8263 17.7744 19.9984 17.967L20.0033 17.9727L20.0074 17.967C20.1797 17.7746 20.3233 17.5582 20.4335 17.3246C20.5543 17.0217 20.6425 16.1001 20.6425 16.1001C20.427 15.9923 20.1225 15.8829 20.0074 15.6633V15.6445L20.0033 15.6543L19.9984 15.6445V15.6633C19.8833 15.8829 19.5788 15.9899 19.3633 16.1001Z" fill="#FFED00"/>
<path fill-rule="evenodd" clip-rule="evenodd" d="M19.5352 16.506C19.5352 16.506 19.5988 17.2293 19.687 17.4668C19.7669 17.6483 19.8716 17.8178 19.998 17.9705L20.0021 17.9746V17.9705C20.1285 17.8178 20.2332 17.6483 20.3131 17.4668C20.4013 17.2293 20.4658 16.506 20.4658 16.506C20.3082 16.4244 20.0853 16.3354 20.0021 16.1631V16.1484C20.0018 16.1509 20.0018 16.1533 20.0021 16.1558L19.998 16.1484V16.1631C19.9164 16.3354 19.6919 16.4211 19.5352 16.506Z" fill="#F5B700"/>
<path fill-rule="evenodd" clip-rule="evenodd" d="M24.7913 14.8059C25.9504 14.1063 26.8323 12.7887 27.0069 11.245C27.0353 10.9699 30.3824 10.3789 32.9946 9.68662C35.607 8.99438 37.6396 7.60742 37.6396 7.60742C37.6396 7.60742 37.4029 9.2752 36.8699 10.0866C36.3367 10.8981 35.6249 11.1152 35.6249 11.1152C35.6249 11.1152 35.029 12.5773 34.7483 13.1724C34.4673 13.7675 33.7082 13.7251 33.7082 13.7251C33.7082 13.7251 33.0264 15.0671 32.7123 15.5545C32.3979 16.0418 31.2077 15.881 31.2077 15.881C31.2077 15.881 31.1424 16.823 30.6444 17.548C30.1465 18.2729 29.0934 18.1006 29.0934 18.1006C29.0934 18.1006 28.7121 19.0002 28.3417 19.3602C27.9709 19.7202 27.3995 19.5602 27.1888 19.4737C27.0819 19.4335 26.98 19.3809 26.8852 19.317C26.8852 19.317 26.3954 20.2909 25.7326 20.5186C25.0696 20.7464 23.7188 19.7064 23.7188 19.7064C23.8941 19.6831 24.0637 19.6277 24.2191 19.5431C24.5064 19.3937 24.8208 18.9447 24.9235 18.6198L25.0264 18.2933L25.3529 18.4182C25.6313 17.1806 25.3113 15.8549 24.7939 14.8059H24.7913Z" fill="#1CA6ED"/>
<path fill-rule="evenodd" clip-rule="evenodd" d="M15.2069 14.8059C14.0469 14.1063 13.1661 12.7887 12.9938 11.245C12.9628 10.9699 9.61661 10.3789 7.00679 9.68662C4.39694 8.99438 2.35938 7.60742 2.35938 7.60742C2.35938 7.60742 2.59692 9.2752 3.12754 10.0866C3.65816 10.8981 4.37327 11.1152 4.37327 11.1152C4.37327 11.1152 4.96838 12.5773 5.25003 13.1724C5.53166 13.7675 6.28924 13.7251 6.28924 13.7251C6.28924 13.7251 6.97169 15.0671 7.28515 15.5545C7.59864 16.0418 8.79049 15.881 8.79049 15.881C8.79049 15.881 8.85498 16.823 9.35295 17.548C9.85089 18.2729 10.904 18.1006 10.904 18.1006C10.904 18.1006 11.2885 19.0043 11.6615 19.3619C12.0346 19.7194 12.6036 19.5619 12.815 19.4753C12.9217 19.435 13.0234 19.3824 13.1179 19.3186C13.1179 19.3186 13.6077 20.2925 14.2706 20.5202C14.9334 20.748 16.2845 19.708 16.2845 19.708C16.1091 19.6847 15.9394 19.6294 15.784 19.5447C15.4967 19.3953 15.1832 18.9464 15.0804 18.6214L14.9775 18.2949L14.651 18.4198C14.3718 17.1822 14.6926 15.8565 15.2102 14.8075L15.2069 14.8059Z" fill="#1CA6ED"/>
<path fill-rule="evenodd" clip-rule="evenodd" d="M19.8389 20.3564C23.5211 20.3564 26.5058 23.3414 26.5058 27.0235C26.5058 30.7056 23.5211 33.6905 19.8389 33.6905C16.1568 33.6905 13.1719 30.7056 13.1719 27.0235C13.1717 25.2552 13.874 23.5593 15.1244 22.3089C16.3747 21.0586 18.0706 20.3562 19.8389 20.3564Z" fill="#F5B700"/>
<path fill-rule="evenodd" clip-rule="evenodd" d="M19.5477 27.4812L19.5641 27.9873C19.6931 28.0355 20.4555 27.9873 20.6718 28.011V28.5653L19.5477 28.5727V30.0151C19.4588 30.0421 18.7037 30.0192 18.5632 30.0094L18.5526 28.5727H17.5902V28.0061L18.5535 28.0102C18.5714 27.8616 18.56 27.6363 18.5608 27.4747H17.5902C17.5755 27.2953 17.5777 27.1149 17.5967 26.9359L18.5632 26.9253L18.5812 24.1865C19.0139 24.1101 19.4529 24.0757 19.8922 24.0836C20.1914 24.073 20.4908 24.0946 20.7853 24.1481C21.3242 24.2763 21.6481 24.4673 21.9069 24.9546C22.0254 25.2078 22.0828 25.4851 22.0744 25.7645C22.0744 26.4461 21.7379 26.9139 21.3518 27.1571C20.7478 27.54 20.3069 27.4241 19.5477 27.4837V27.4812ZM24.1918 27.3996C24.2776 26.184 23.9069 25.0208 23.1177 24.1342L22.9821 23.9881C22.8462 23.8513 22.7035 23.7216 22.5544 23.5995C22.3475 23.4392 22.1276 23.2964 21.8972 23.1726C20.7959 22.5938 19.471 22.4795 18.3094 22.9277C17.9293 23.0715 17.5706 23.2665 17.2432 23.5073C16.8264 23.8148 16.4672 24.1934 16.182 24.6257C15.8163 25.193 15.5077 25.9236 15.4922 26.6526C15.475 27.4878 15.4604 27.8029 15.7461 28.58C15.9869 29.2331 16.3991 29.7702 16.84 30.2168L17.1371 30.469C17.7485 30.9711 18.6269 31.3098 19.4832 31.3874C20.1241 31.4393 20.7686 31.3504 21.3713 31.127C21.627 31.0272 21.874 30.9071 22.1102 30.7678L22.7322 30.3057C22.7796 30.2576 22.8301 30.2241 22.8825 30.1743L23.2662 29.7416C23.7755 29.0592 24.1299 28.322 24.1952 27.402L24.1918 27.3996Z" fill="#00284D"/>
<path fill-rule="evenodd" clip-rule="evenodd" d="M19.7848 32.2621C18.5594 32.2547 17.3761 31.8146 16.4435 31.0196L16.117 30.7029C16.0032 30.5981 15.8958 30.4866 15.7954 30.369C15.5031 29.9886 15.2509 29.6506 15.0476 29.1616C14.748 28.4375 14.5978 27.822 14.6003 27.009C14.5945 25.6228 15.1464 24.2925 16.1317 23.3175C17.8585 21.5923 20.5477 21.2876 22.6166 22.5828L23.0037 22.8522C23.1836 22.9923 23.3558 23.1419 23.5196 23.3003L23.834 23.6407C24.6142 24.5942 25.0468 25.653 25.064 26.9681C25.0819 27.7168 24.9315 28.46 24.6239 29.1429C24.4928 29.4373 24.3356 29.7195 24.1547 29.9861L23.8003 30.449C23.7718 30.4833 23.7489 30.4988 23.7186 30.5306C23.5111 30.7608 23.2839 30.9725 23.0395 31.1633C22.9808 31.2074 22.9147 31.2604 22.8541 31.2996C22.7204 31.387 22.6093 31.4694 22.4568 31.5576C21.6452 32.0311 20.7201 32.2741 19.7807 32.2605L19.7848 32.2621ZM13.8125 26.7551V27.3534C13.8256 27.3869 13.8631 27.8849 13.8786 27.9869C14.0476 29.1078 14.517 30.0482 15.2199 30.9012C15.4432 31.1529 15.682 31.3904 15.935 31.6123C16.0621 31.7231 16.1948 31.8275 16.3325 31.9249C17.8158 33.0352 19.3685 33.005 19.473 33.0466H20.162C20.1946 33.0335 20.6967 32.9992 20.806 32.9797C21.0225 32.9405 21.1939 32.898 21.398 32.8482C22.1779 32.6408 22.9079 32.2779 23.5441 31.7813L24.1155 31.2719C24.6168 30.7698 24.9686 30.2278 25.2952 29.5853C25.8289 28.5331 25.8387 27.3534 25.8666 27.2881V26.7551C25.7849 26.5583 25.9482 24.6726 24.1197 22.7705C24.056 22.7044 23.9954 22.6612 23.9309 22.5975L23.5367 22.2652C23.3645 22.1411 23.3221 22.102 23.1212 21.9722C22.5914 21.6216 22.0078 21.3594 21.3938 21.1958C21.1939 21.1468 21.0135 21.1003 20.8002 21.0685C20.1316 20.9649 19.4505 20.9696 18.7832 21.0823C18.4056 21.1524 18.0352 21.2562 17.6762 21.3926C17.4991 21.4579 17.3538 21.5289 17.1824 21.6073C16.7923 21.793 16.4257 22.0243 16.0901 22.2962C16.024 22.3469 15.9668 22.4032 15.8999 22.4538C15.6808 22.6493 15.4725 22.8567 15.2762 23.075L15.037 23.3714C14.988 23.4399 14.9382 23.5036 14.8901 23.573C14.6953 23.8591 14.522 24.1592 14.3717 24.471C14.1206 24.9854 13.9527 25.5365 13.8745 26.1036C13.8607 26.2122 13.8313 26.7134 13.8149 26.7567L13.8125 26.7551Z" fill="#C78F17"/>
<path fill-rule="evenodd" clip-rule="evenodd" d="M19.5485 26.9186C20.0302 26.8893 20.2971 27.0003 20.6465 26.726C20.9035 26.5235 21.0049 26.2574 21.022 25.8207C21.036 25.4631 20.9198 25.1194 20.631 24.9325C20.2783 24.7047 19.9869 24.7333 19.5469 24.7129V26.917L19.5485 26.9186Z" fill="#00284D"/>
<path fill-rule="evenodd" clip-rule="evenodd" d="M22.5579 21.2957C22.5579 21.2957 22.6503 21.0752 22.9776 21.0132C23.305 20.9512 23.4258 21.1234 23.4258 21.1234C23.4258 21.1234 23.5433 20.8948 23.2673 20.6671C22.9916 20.4393 22.6869 20.4099 22.58 20.5936C22.4731 20.7773 22.1719 20.7626 22.1719 20.8581C22.1719 20.9536 22.5613 21.2957 22.5613 21.2957H22.5579Z" fill="#1CA6ED"/>
<path fill-rule="evenodd" clip-rule="evenodd" d="M23.5 20.6467C23.5427 20.693 23.5787 20.7453 23.6069 20.8018C23.6543 20.8949 23.6411 21.1708 23.6411 21.1708C23.6991 21.1756 23.7557 21.1905 23.8084 21.2148C23.8763 21.2475 23.9371 21.2933 23.9871 21.3496C24.0203 21.2524 24.028 21.1484 24.0093 21.0475C23.9742 20.8973 23.7114 20.6173 23.5 20.6467Z" fill="#1CA6ED"/>
<path fill-rule="evenodd" clip-rule="evenodd" d="M24.1016 21.4491C24.1803 21.4596 24.2559 21.4875 24.3228 21.5307C24.4065 21.581 24.4765 21.6511 24.5268 21.7348C24.5511 21.6159 24.54 21.4924 24.495 21.3797C24.4215 21.1462 24.1495 20.9609 24.1495 20.9609C24.1495 20.9609 24.2066 21.3446 24.1016 21.4507V21.4491Z" fill="#1CA6ED"/>
<path fill-rule="evenodd" clip-rule="evenodd" d="M24.2679 21.6592C24.2784 21.6592 24.3324 21.6592 24.4222 21.7457C24.512 21.8322 24.5307 21.9016 24.5038 21.9425C24.4346 22.0258 24.349 22.0938 24.2524 22.1425C24.1778 22.1791 24.0978 22.2039 24.0156 22.2159C24.1691 22.0705 24.2589 21.8705 24.2663 21.6592H24.2679Z" fill="white"/>
<path fill-rule="evenodd" clip-rule="evenodd" d="M23.7342 21.3955C23.7884 21.4108 23.8398 21.435 23.8861 21.4673C23.9593 21.5081 23.9936 21.5949 23.9678 21.6747C23.9064 21.7948 23.8174 21.8986 23.7081 21.9776C23.5799 22.0657 23.5391 22.0657 23.5391 22.0657C23.5391 22.0657 23.7742 21.7073 23.735 21.3955H23.7342Z" fill="white"/>
<path fill-rule="evenodd" clip-rule="evenodd" d="M22.8867 21.4197C22.8867 21.4197 22.9683 21.2156 23.1553 21.205C23.342 21.1943 23.4002 21.2866 23.4002 21.2866C23.3697 21.4109 23.3273 21.5321 23.2735 21.6482C23.2085 21.7679 23.1182 21.8721 23.0092 21.9536C23.0092 21.9536 23.0329 21.507 22.8891 21.4221L22.8867 21.4197Z" fill="white"/>
<path fill-rule="evenodd" clip-rule="evenodd" d="M17.2559 21.2957C17.2559 21.2957 17.1637 21.0752 16.8363 21.0132C16.509 20.9512 16.3882 21.1234 16.3882 21.1234C16.3882 21.1234 16.2706 20.8948 16.5465 20.6671C16.8224 20.4393 17.127 20.4099 17.2339 20.5936C17.3408 20.7773 17.6421 20.7626 17.6421 20.8581C17.6421 20.9536 17.2527 21.2957 17.2527 21.2957H17.2559Z" fill="#1CA6ED"/>
<path fill-rule="evenodd" clip-rule="evenodd" d="M16.3163 20.6467C16.2735 20.693 16.2375 20.7453 16.2094 20.8018C16.162 20.8949 16.1751 21.1708 16.1751 21.1708C16.1172 21.1756 16.0605 21.1905 16.0077 21.2148C15.9398 21.2475 15.8791 21.2933 15.829 21.3496C15.7958 21.2524 15.7882 21.1484 15.8069 21.0475C15.842 20.8973 16.1049 20.6173 16.3163 20.6467Z" fill="#1CA6ED"/>
<path fill-rule="evenodd" clip-rule="evenodd" d="M15.7113 21.4491C15.6325 21.4596 15.5569 21.4875 15.4901 21.5307C15.4063 21.581 15.3362 21.6511 15.286 21.7348C15.2617 21.6159 15.2728 21.4924 15.3179 21.3797C15.3913 21.1462 15.6632 20.9609 15.6632 20.9609C15.6632 20.9609 15.606 21.3446 15.7113 21.4507V21.4491Z" fill="#1CA6ED"/>
<path fill-rule="evenodd" clip-rule="evenodd" d="M15.548 21.6592C15.5374 21.6592 15.4835 21.6592 15.3937 21.7457C15.3039 21.8322 15.2852 21.9016 15.3121 21.9425C15.3812 22.0258 15.4668 22.0938 15.5635 22.1425C15.6381 22.1791 15.718 22.2039 15.8003 22.2159C15.6469 22.0705 15.5568 21.8705 15.5497 21.6592H15.548Z" fill="white"/>
<path fill-rule="evenodd" clip-rule="evenodd" d="M16.0818 21.3955C16.0275 21.4108 15.9762 21.435 15.93 21.4673C15.8568 21.5081 15.8226 21.5949 15.8484 21.6747C15.9097 21.7948 15.9987 21.8986 16.108 21.9776C16.2361 22.0657 16.2769 22.0657 16.2769 22.0657C16.2769 22.0657 16.0418 21.7073 16.081 21.3955H16.0818Z" fill="white"/>
<path fill-rule="evenodd" clip-rule="evenodd" d="M16.9275 21.4197C16.9275 21.4197 16.8459 21.2156 16.659 21.205C16.472 21.1943 16.4141 21.2866 16.4141 21.2866C16.4445 21.4109 16.4869 21.5321 16.5406 21.6482C16.6057 21.7679 16.6959 21.8721 16.8051 21.9536C16.8051 21.9536 16.7814 21.507 16.9251 21.4221L16.9275 21.4197Z" fill="white"/>
<path d="M19.24 14.9853C19.2024 15.0647 19.1516 15.137 19.0898 15.1992C18.8738 15.4151 18.5491 15.4797 18.2669 15.3629C17.9848 15.246 17.8008 14.9707 17.8008 14.6654C17.8007 14.6157 17.8056 14.5662 17.8155 14.5176C17.9355 14.5339 18.0677 14.5543 18.2032 14.5812C18.1576 14.7688 18.267 14.9592 18.452 15.0143C18.637 15.0693 18.8327 14.9698 18.8971 14.7878C19.0177 14.8421 19.1325 14.9083 19.24 14.9853Z" fill="#00284D"/>
<path d="M20.707 14.9853C20.8575 15.305 21.2093 15.4777 21.5543 15.401C21.8993 15.3243 22.1447 15.0187 22.1455 14.6654C22.1455 14.6157 22.1405 14.5662 22.1307 14.5176C22.0106 14.5339 21.8785 14.5543 21.7439 14.5812C21.7713 14.7029 21.7347 14.8301 21.6467 14.9184C21.5048 15.0601 21.2749 15.0601 21.1332 14.9184C21.0964 14.8803 21.0685 14.8346 21.0516 14.7845C20.931 14.8387 20.8165 14.9049 20.7095 14.9821L20.707 14.9853Z" fill="#00284D"/>
<path fill-rule="evenodd" clip-rule="evenodd" d="M2.38281 7.73438C2.38281 7.73438 3.05713 9.40786 3.80652 10.1058C4.55591 10.8038 5.28408 10.892 5.28408 10.892C5.28408 10.892 5.32081 11.8626 5.75593 12.5246C6.19104 13.1867 7.00329 13.2038 7.00329 13.2038C7.00329 13.2038 7.04492 14.2504 7.64167 14.7492C8.23841 15.248 9.12088 15.1157 9.12088 15.1157C9.12088 15.1157 9.19435 16.4096 9.84089 16.8218C10.4874 17.2341 11.0172 16.6896 11.0172 16.6896C11.0172 16.6896 11.0687 17.7925 12.0785 18.3288C13.0883 18.8651 13.5128 17.9835 13.5128 17.9835C13.5128 17.9835 13.5789 18.7998 14.0711 18.8292C14.3079 18.8431 14.5071 18.6333 14.6499 18.4121V18.4178L14.9765 18.2929L15.0793 18.6194C15.1822 18.946 15.4956 19.3933 15.783 19.5427C15.9384 19.6273 16.108 19.6827 16.2834 19.706C16.2834 19.706 14.9299 20.7452 14.2695 20.5182C13.6091 20.2913 13.1168 19.3166 13.1168 19.3166C13.0223 19.3804 12.9207 19.433 12.814 19.4733C12.6025 19.5598 12.0344 19.7182 11.6605 19.3598C11.2866 19.0015 10.903 18.1019 10.903 18.1019C10.903 18.1019 9.85232 18.2749 9.3519 17.5492C8.85148 16.8235 8.78944 15.8822 8.78944 15.8822C8.78944 15.8822 7.5984 16.0455 7.28413 15.5557C6.96982 15.0659 6.28819 13.7263 6.28819 13.7263C6.28819 13.7263 5.53063 13.7696 5.24898 13.1736C4.96736 12.5777 4.37225 11.1165 4.37225 11.1165C4.37225 11.1165 3.65714 10.9001 3.12652 10.0879C2.68814 9.41195 2.44896 8.14254 2.38281 7.73438Z" fill="#17398D"/>
<path fill-rule="evenodd" clip-rule="evenodd" d="M37.6118 7.73438C37.6118 7.73438 36.9374 9.40786 36.188 10.1058C35.4386 10.8038 34.7113 10.8952 34.7113 10.8952C34.7113 10.8952 34.6744 11.8659 34.2394 12.5279C33.8044 13.19 32.9897 13.2038 32.9897 13.2038C32.9897 13.2038 32.9478 14.2504 32.3511 14.7492C31.7544 15.248 30.8744 15.1157 30.8744 15.1157C30.8744 15.1157 30.8009 16.4096 30.1545 16.8218C29.508 17.2341 28.9771 16.6896 28.9771 16.6896C28.9771 16.6896 28.9258 17.7925 27.9159 18.3288C26.9061 18.8651 26.4816 17.9835 26.4816 17.9835C26.4816 17.9835 26.4155 18.7998 25.9234 18.8292C25.6866 18.8431 25.4873 18.6333 25.3446 18.4121V18.4178L25.0181 18.2929L24.9151 18.6194C24.8124 18.946 24.498 19.3933 24.2115 19.5427C24.0562 19.6272 23.8863 19.6826 23.7109 19.706C23.7109 19.706 25.0636 20.7452 25.724 20.5182C26.3845 20.2913 26.8742 19.3166 26.8742 19.3166C26.9688 19.3804 27.0704 19.433 27.1773 19.4733C27.3888 19.5598 27.9568 19.7182 28.3307 19.3598C28.7046 19.0015 29.0898 18.1019 29.0898 18.1019C29.0898 18.1019 30.1397 18.2749 30.6411 17.5492C31.1422 16.8235 31.2009 15.879 31.2009 15.879C31.2009 15.879 32.3919 16.0422 32.7063 15.5524C33.0205 15.0626 33.7022 13.723 33.7022 13.723C33.7022 13.723 34.4598 13.7663 34.7413 13.1704C35.023 12.5744 35.6181 11.1132 35.6181 11.1132C35.6181 11.1132 36.3333 10.8969 36.8631 10.0846C37.3047 9.41195 37.543 8.14254 37.6118 7.73438Z" fill="#17398D"/>
<path fill-rule="evenodd" clip-rule="evenodd" d="M3.25781 9.2666C3.25781 9.2666 3.59579 10.3695 4.40069 10.6421C5.20559 10.9148 11.4367 11.6217 11.4367 11.6217C11.4367 11.6217 4.02271 10.5319 3.25781 9.2666Z" fill="#00284D"/>
<path fill-rule="evenodd" clip-rule="evenodd" d="M5.71094 12.3258C5.71094 12.3258 5.7991 13.2858 6.75504 13.3993C7.71096 13.5128 12.0196 12.2246 12.0196 12.2246C12.0196 12.2246 5.98358 13.6997 5.71094 12.3275V12.3258Z" fill="#00284D"/>
<path fill-rule="evenodd" clip-rule="evenodd" d="M7.46484 14.5755C7.49423 14.6343 7.50158 15.6416 8.70731 15.5241C9.91304 15.4065 11.8837 12.8555 11.8837 12.8555C11.8837 12.8555 8.65588 16.0318 7.46484 14.5755Z" fill="#00284D"/>
<path fill-rule="evenodd" clip-rule="evenodd" d="M9.53125 16.7593C9.53125 16.7593 9.76635 17.494 10.5305 17.458C11.2945 17.4221 12.2072 13.2041 12.2072 13.2041C12.2072 13.2041 10.7811 17.7332 9.53125 16.7625V16.7593Z" fill="#00284D"/>
<path fill-rule="evenodd" clip-rule="evenodd" d="M11.5586 18.0683C11.5586 18.0683 12.1766 18.8185 12.7945 18.6569C13.4125 18.4952 12.8827 14.1572 12.8827 14.1572C12.8827 14.1572 12.7945 18.6569 11.5586 18.0683Z" fill="#00284D"/>
<path fill-rule="evenodd" clip-rule="evenodd" d="M36.7109 9.2666C36.7109 9.2666 36.372 10.3695 35.568 10.6421C34.7638 10.9148 28.5312 11.6217 28.5312 11.6217C28.5312 11.6217 35.9427 10.5344 36.7077 9.26905L36.7109 9.2666Z" fill="#00284D"/>
<path fill-rule="evenodd" clip-rule="evenodd" d="M34.2532 12.3258C34.2532 12.3258 34.165 13.2858 33.2091 13.3993C32.253 13.5128 27.9453 12.2246 27.9453 12.2246C27.9453 12.2246 33.9804 13.6997 34.2532 12.3275V12.3258Z" fill="#00284D"/>
<path fill-rule="evenodd" clip-rule="evenodd" d="M32.5048 14.5755C32.4755 14.6343 32.4682 15.6416 31.2624 15.5241C30.0566 15.4065 28.0859 12.8555 28.0859 12.8555C28.0859 12.8555 31.3114 16.0318 32.5048 14.5755Z" fill="#00284D"/>
<path fill-rule="evenodd" clip-rule="evenodd" d="M30.4379 16.7593C30.4379 16.7593 30.2027 17.494 29.4378 17.458C28.6728 17.4221 27.7617 13.2041 27.7617 13.2041C27.7617 13.2041 29.1879 17.7332 30.4379 16.7625V16.7593Z" fill="#00284D"/>
<path fill-rule="evenodd" clip-rule="evenodd" d="M28.4059 18.0683C28.4059 18.0683 27.7887 18.8185 27.1707 18.6569C26.5526 18.4952 27.0825 14.1572 27.0825 14.1572C27.0825 14.1572 27.1707 18.6569 28.4059 18.0683Z" fill="#00284D"/>
<path fill-rule="evenodd" clip-rule="evenodd" d="M16.9874 12.0021C17.038 12.0298 17.1034 12.0609 17.1874 12.0968C17.6029 12.2731 17.7425 12.2217 17.7425 12.2217L18.0617 11.4902C18.0617 11.4902 18.354 12.4592 18.5213 12.7294C18.6887 12.9997 18.7907 13.0323 18.7907 13.0323L18.8397 12.7384C18.929 12.9304 19.0588 13.1009 19.2201 13.238C19.496 13.4772 19.5695 13.4584 19.5695 13.4584C19.5695 13.4584 19.5548 13.3629 19.6944 13.2086C19.7787 13.1162 19.8852 13.0468 20.0038 13.007L20.0111 13.6005L19.9981 13.5858C19.9099 13.6693 19.8374 13.768 19.7842 13.8772C19.7467 13.98 19.7164 14.0853 19.6936 14.1923C19.532 14.1145 19.3839 14.0111 19.2552 13.8862C19.0774 13.7098 18.917 13.5168 18.776 13.3099L18.7695 13.6568C18.7695 13.6568 18.5344 13.5752 18.3026 13.2037C18.0707 12.8323 17.9744 12.18 17.9744 12.18L17.8111 12.8478C17.8111 12.8478 17.4372 12.7041 17.2291 12.4601C17.1249 12.3265 17.0326 12.1842 16.9531 12.0347C16.9629 12.0233 16.9735 12.0127 16.9841 12.0021H16.9874Z" fill="#17398D"/>
<path fill-rule="evenodd" clip-rule="evenodd" d="M23.0121 12.0021C22.9616 12.0298 22.8963 12.0609 22.8123 12.0968C22.3968 12.2731 22.2569 12.2217 22.2569 12.2217L21.937 11.4902C21.937 11.4902 21.6473 12.4625 21.4775 12.7327C21.3077 13.0029 21.2055 13.0323 21.2055 13.0323L21.1557 12.7384C21.067 12.9307 20.9372 13.1012 20.7754 13.238C20.5003 13.4772 20.426 13.4584 20.426 13.4584C20.426 13.4584 20.4407 13.3629 20.3011 13.2086C20.2172 13.1161 20.111 13.0466 19.9925 13.007L19.9844 13.6005L19.9983 13.5858C20.0864 13.6691 20.1587 13.7679 20.2113 13.8772C20.2493 13.9799 20.2798 14.0852 20.3027 14.1923C20.4642 14.1143 20.6122 14.0109 20.7411 13.8862C20.9187 13.7096 21.0791 13.5166 21.2202 13.3099L21.226 13.6568C21.226 13.6568 21.462 13.5752 21.6937 13.2037C21.9257 12.8323 22.026 12.18 22.026 12.18L22.1853 12.8478C22.1853 12.8478 22.5582 12.7041 22.7673 12.4601C22.8713 12.3265 22.9637 12.1842 23.0432 12.0347C23.0335 12.0233 23.0227 12.0127 23.0121 12.0021Z" fill="#17398D"/>
<path fill-rule="evenodd" clip-rule="evenodd" d="M14.9805 17.0283C14.9805 17.0349 15.116 17.5851 15.2654 17.8079C15.3343 17.9269 15.4368 18.0229 15.5601 18.0839L15.7397 17.492C15.7397 17.492 15.9348 18.0765 16.516 18.7377C17.0972 19.399 18.6034 19.8627 18.6034 19.8627L18.1756 20.0749C18.1756 20.0749 18.3536 20.0316 18.9601 20.0169C19.3102 20.0046 19.6594 20.0584 19.9895 20.1753V20.3582H19.8369C19.1294 20.3575 18.4264 20.4696 17.7544 20.6904C17.4564 20.4251 17.2605 20.2112 17.2605 20.2112L17.7544 20.1459C17.7544 20.1459 17.2776 20.0463 16.7658 19.5745C16.254 19.1026 15.7862 18.0569 15.7862 18.0569L15.6629 18.8863C15.6629 18.8863 15.1862 18.4153 15.0278 17.5508C14.9971 17.3784 14.982 17.2035 14.9829 17.0283H14.9805Z" fill="#17398D"/>
<path fill-rule="evenodd" clip-rule="evenodd" d="M24.9591 17.028C24.9591 17.0345 24.8227 17.5847 24.6734 17.8076C24.6044 17.9266 24.502 18.0225 24.3787 18.0835L24.1992 17.4917C24.1992 17.4917 24.004 18.0762 23.4237 18.7374C22.843 19.3986 21.3352 19.8623 21.3352 19.8623L21.7639 20.0746C21.7639 20.0746 21.5851 20.0313 20.9787 20.0166C20.6286 20.0043 20.2793 20.058 19.9492 20.175V20.3578C20.6866 20.369 21.4169 20.503 22.1099 20.7546C22.3101 20.583 22.5007 20.4009 22.6816 20.2093L22.1876 20.144C22.1876 20.144 22.6642 20.0443 23.1761 19.5725C23.688 19.1007 24.1557 18.0549 24.1557 18.0549L24.2789 18.8843C24.2789 18.8843 24.7558 18.4133 24.9141 17.5488C24.9449 17.3763 24.9602 17.2015 24.9599 17.0264L24.9591 17.028Z" fill="#17398D"/>
</svg>
