<svg width="20" height="20" viewBox="0, 0, 20, 20" style="fill:none;" xmlns="http://www.w3.org/2000/svg" xmlns:xlink="http://www.w3.org/1999/xlink" xmlns:xml="http://www.w3.org/XML/1998/namespace" version="1.1"><path d="M8.43657 7.50008 L4.89657 7.50008 C4.43657 7.50008 4.06323 7.12675 4.06323 6.66675 L4.06323 5.00008 C4.06323 4.54008 4.43657 4.16675 4.89657 4.16675 L8.43657 4.16675 C8.89657 4.16675 9.2699 4.54008 9.2699 5.00008 L9.2699 6.66675 C9.2699 7.12675 8.89657 7.50008 8.43657 7.50008 z" stroke-width="1.5" stroke-linecap="round" stroke-linejoin="round" style="stroke:#171D23;" /><path d="M14.1666 5.27173 C14.7766 5.88173 14.7766 6.87089 14.1666 7.48173" stroke-width="1.5" stroke-linecap="round" stroke-linejoin="round" style="stroke:#171D23;" /><path d="M16.745 4.16675 C17.965 5.38675 17.965 7.36592 16.745 8.58591" stroke-width="1.5" stroke-linecap="round" stroke-linejoin="round" style="stroke:#171D23;" /><path d="M15 18.3333 L7.49996 18.3333 C7.03996 18.3333 6.66663 17.96 6.66663 17.5 L6.66663 13.3333 C6.66663 12.8733 7.03996 12.5 7.49996 12.5 L15 12.5 C15.46 12.5 15.8333 12.8733 15.8333 13.3333 L15.8333 17.5 C15.8333 17.96 15.46 18.3333 15 18.3333 z" stroke-width="1.5" stroke-linecap="round" stroke-linejoin="round" style="stroke:#171D23;" /><path d="M11.6666 12.5001 L11.6666 3.33341 C11.6666 2.41258 10.9208 1.66675 9.99996 1.66675 L3.33329 1.66675 C2.41246 1.66675 1.66663 2.41258 1.66663 3.33341 L1.66663 13.3334 C1.66663 14.2542 2.41246 15.0001 3.33329 15.0001 L6.66663 15.0001" stroke-width="1.5" stroke-linecap="round" stroke-linejoin="round" style="stroke:#171D23;" /><path d="M6.66663 15 L15.8333 15" stroke-width="1.5" stroke-linecap="round" stroke-linejoin="round" style="stroke:#171D23;" /><path d="M4.16664 9.9917 C4.16414 9.9917 4.16248 9.99337 4.16248 9.99587 C4.16248 9.99837 4.16414 10 4.16664 10 C4.16914 10 4.17081 9.99837 4.17081 9.99587 C4.17081 9.99337 4.16914 9.9917 4.16664 9.9917 z" stroke-width="1.5" stroke-linecap="round" stroke-linejoin="round" style="stroke:#171D23;" /><path d="M6.66664 10 C6.66414 10 6.66248 10.0017 6.66248 10.0042 C6.66248 10.0067 6.66414 10.0083 6.66664 10.0083 C6.66914 10.0083 6.67081 10.0067 6.67081 10.0042 C6.67081 10.0017 6.66914 10 6.66664 10 z" stroke-width="1.5" stroke-linecap="round" stroke-linejoin="round" style="stroke:#171D23;" /><path d="M9.17079 9.99585 C9.16829 9.99585 9.16663 9.99752 9.16663 10 C9.16663 10.0025 9.16829 10.0042 9.17079 10.0042 C9.17329 10.0042 9.17496 10.0025 9.17496 10 C9.17496 9.99752 9.17329 9.99585 9.17079 9.99585 z" stroke-width="1.5" stroke-linecap="round" stroke-linejoin="round" style="stroke:#171D23;" /></svg>