<svg width="20" height="20" viewBox="0, 0, 20, 20" style="fill:none;" xmlns="http://www.w3.org/2000/svg" xmlns:xlink="http://www.w3.org/1999/xlink" xmlns:xml="http://www.w3.org/XML/1998/namespace" version="1.1"><path d="M16.111 17.7778 C17.0318 17.7778 17.7777 16.9867 17.7777 16.0101 L17.7777 11.4141 C17.7777 10.9263 16.9043 10 16.4443 10 L14.4443 10 L14.4443 16.0101 C14.4443 16.9867 15.1902 17.7778 16.111 17.7778 z" stroke-width="1.5" stroke-linecap="round" stroke-linejoin="round" style="stroke:#171D23;" /><path d="M5.55554 6.11108 L11.1111 6.11108" stroke-width="1.5" stroke-linecap="round" stroke-linejoin="round" style="stroke:#171D23;" /><path d="M5.55554 8.88879 L11.1111 8.88879" stroke-width="1.5" stroke-linecap="round" stroke-linejoin="round" style="stroke:#171D23;" /><path d="M5.55554 11.6666 L7.77776 11.6666" stroke-width="1.5" stroke-linecap="round" stroke-linejoin="round" style="stroke:#171D23;" /><path d="M14.4444 9.99995 L14.4444 3.28277 C14.4444 2.7949 13.8716 2.22217 13.3838 2.22217 L3.28277 2.22217 C2.7949 2.22217 2.22217 2.7949 2.22217 3.28277 L2.22217 16.01 C2.22217 16.9867 3.0132 17.7777 3.98984 17.7777 L16.212 17.7777" stroke-width="1.5" stroke-linecap="round" stroke-linejoin="round" style="stroke:#171D23;" /></svg>