<svg width="20" height="20" viewBox="0, 0, 20, 20" style="fill:none;" xmlns="http://www.w3.org/2000/svg" xmlns:xlink="http://www.w3.org/1999/xlink" xmlns:xml="http://www.w3.org/XML/1998/namespace" version="1.1"><path d="M3.33333 11.4585 C3.21851 11.4585 3.125 11.552 3.125 11.6668 L3.125 16.6668 C3.125 16.7817 3.21851 16.8752 3.33333 16.8752 L5 16.8752 C5.11482 16.8752 5.20833 16.7817 5.20833 16.6668 L5.20833 11.6668 C5.20833 11.552 5.11482 11.4585 5 11.4585 L3.33333 11.4585 z M1.875 11.6668 C1.875 10.8617 2.52816 10.2085 3.33333 10.2085 L5 10.2085 C5.80518 10.2085 6.45833 10.8617 6.45833 11.6668 L6.45833 16.6668 C6.45833 17.472 5.80518 18.1252 5 18.1252 L3.33333 18.1252 C2.52816 18.1252 1.875 17.472 1.875 16.6668 L1.875 11.6668 z" clip-rule="evenodd" fill-rule="evenodd" style="fill:#171D23;" /><path d="M10.8334 14.1666 L12.7775 14.1666 C13.1384 14.1666 13.4892 14.05 13.7775 13.8333 L15.7909 12.3233 C16.2934 11.9466 16.9967 11.9966 17.4409 12.4408 C17.9342 12.9341 17.9342 13.7333 17.4409 14.2258 L15.7134 15.9533 C15.2484 16.4183 14.655 16.7358 14.01 16.865 L11.5684 17.3533 C11.0842 17.45 10.585 17.4383 10.1059 17.3183 L7.89754 16.7666 C7.63337 16.7 7.36254 16.6666 7.09004 16.6666 L5.83337 16.6666" stroke-width="1.5" stroke-linecap="round" stroke-linejoin="round" style="stroke:#171D23;" /><path d="M7.00059 10.9711 C7.74619 10.4731 8.62281 10.2085 9.51832 10.2085 C9.88942 10.2085 10.2585 10.2539 10.6187 10.3437 L12.5286 10.8212 C13.3689 11.0309 13.9583 11.7863 13.9583 12.6518 L13.9583 12.9043 C13.9583 13.947 13.1135 14.7918 12.0708 14.7918 L10.8333 14.7918 C10.4881 14.7918 10.2083 14.512 10.2083 14.1668 C10.2083 13.8217 10.4881 13.5418 10.8333 13.5418 L12.0708 13.5418 C12.4231 13.5418 12.7083 13.2567 12.7083 12.9043 L12.7083 12.6518 C12.7083 12.3592 12.5092 12.1046 12.2263 12.0341 L10.3163 11.5566 C10.0549 11.4915 9.78709 11.4585 9.51832 11.4585 C8.86893 11.4585 8.23398 11.6505 7.69464 12.0107 L6.17994 13.0202 C5.89271 13.2117 5.50468 13.134 5.31324 12.8468 C5.12181 12.5596 5.19947 12.1715 5.4867 11.9801 L7.00059 10.9711 C7.0005 10.9712 7.00068 10.971 7.00059 10.9711 z" clip-rule="evenodd" fill-rule="evenodd" style="fill:#171D23;" /><path d="M13.8654 4.73815 C13.1859 4.05864 12.0842 4.05864 11.4047 4.73815 C10.7251 5.41766 10.7251 6.51937 11.4047 7.19888 C12.0842 7.8784 13.1859 7.8784 13.8654 7.19888 C14.5449 6.51937 14.5449 5.41766 13.8654 4.73815 z M10.5208 3.85427 C11.6884 2.6866 13.5816 2.6866 14.7493 3.85427 C15.9169 5.02194 15.9169 6.9151 14.7493 8.08277 C13.5816 9.25044 11.6884 9.25044 10.5208 8.08277 C9.3531 6.9151 9.3531 5.02194 10.5208 3.85427 z" clip-rule="evenodd" fill-rule="evenodd" style="fill:#171D23;" /><path d="M7.75056 1.91731 C8.91797 0.749895 10.8112 0.749895 11.9786 1.91731 C12.4405 2.37918 12.7119 2.95343 12.8092 3.5444 C12.8653 3.885 12.6346 4.20655 12.294 4.26262 C11.9534 4.31868 11.6319 4.08802 11.5758 3.74742 C11.5181 3.39674 11.3595 3.06599 11.0947 2.80119 C10.4155 2.12193 9.3137 2.12193 8.63444 2.80119 C7.95519 3.48045 7.95519 4.58222 8.63444 5.26147 C9.05672 5.68376 9.64163 5.84341 10.1902 5.73936 C10.5293 5.67504 10.8564 5.89781 10.9207 6.23695 C10.985 6.57608 10.7623 6.90314 10.4231 6.96747 C9.4867 7.14508 8.47828 6.87307 7.75056 6.14536 C6.58315 4.97795 6.58315 3.08472 7.75056 1.91731 z" clip-rule="evenodd" fill-rule="evenodd" style="fill:#171D23;" /></svg>