<svg width="20" height="20" viewBox="0, 0, 20, 20" style="fill:none;" xmlns="http://www.w3.org/2000/svg" xmlns:xlink="http://www.w3.org/1999/xlink" xmlns:xml="http://www.w3.org/XML/1998/namespace" version="1.1"><path d="M15.1851 5.67896 L14.3209 7.40735 L13.1689 8.19982" stroke-width="1.5" stroke-linecap="round" stroke-linejoin="round" style="stroke:#171D23;" /><path d="M3.95056 10 L6.63822 10" stroke-width="1.5" stroke-linecap="round" stroke-linejoin="round" style="stroke:#171D23;" /><path d="M13.3617 10 L16.0493 10 z" style="fill:#171D23;" /><path d="M13.3617 10 L16.0493 10" stroke-width="1.5" stroke-linecap="round" stroke-linejoin="round" style="stroke:#171D23;" /><path d="M4.81476 2.22217 L3.95056 2.22217 C2.99562 2.22217 2.22217 2.99562 2.22217 3.95056 L2.22217 4.81476" stroke-width="1.5" stroke-linecap="round" stroke-linejoin="round" style="stroke:#171D23;" /><path d="M15.1852 17.7777 L16.0494 17.7777 C17.0043 17.7777 17.7778 17.0042 17.7778 16.0493 L17.7778 15.1851" stroke-width="1.5" stroke-linecap="round" stroke-linejoin="round" style="stroke:#171D23;" /><path d="M2.22217 15.1851 L2.22217 16.0493 C2.22217 17.0042 2.99562 17.7777 3.95056 17.7777 L4.81476 17.7777" stroke-width="1.5" stroke-linecap="round" stroke-linejoin="round" style="stroke:#171D23;" /><path d="M17.7778 4.81476 L17.7778 3.95056 C17.7778 2.99562 17.0043 2.22217 16.0494 2.22217 L15.1852 2.22217" stroke-width="1.5" stroke-linecap="round" stroke-linejoin="round" style="stroke:#171D23;" /><path d="M4.81482 5.67896 L5.67902 7.40735 L6.83099 8.19982" stroke-width="1.5" stroke-linecap="round" stroke-linejoin="round" style="stroke:#171D23;" /><path d="M10.3837 14.3211 L9.61542 14.3211 C8.18344 14.3211 7.02283 13.1604 7.02283 11.7285 L7.02283 9.13587 C7.02283 8.18093 7.79628 7.40747 8.75122 7.40747 L11.2479 7.40747 C12.2028 7.40747 12.9763 8.18093 12.9763 9.13587 L12.9763 11.7285 C12.9763 13.1604 11.8157 14.3211 10.3837 14.3211 z" stroke-width="1.5" stroke-linecap="round" stroke-linejoin="round" style="stroke:#171D23;" /><path d="M4.81482 14.3209 L5.67902 12.5925 L6.83099 11.8" stroke-width="1.5" stroke-linecap="round" stroke-linejoin="round" style="stroke:#171D23;" /><path d="M15.1851 14.3209 L14.3209 12.5925 L13.1689 11.8" stroke-width="1.5" stroke-linecap="round" stroke-linejoin="round" style="stroke:#171D23;" /><path d="M11.7283 7.40729 L8.27148 7.40729 L8.27148 5.67889 C8.27148 5.20186 8.65864 4.8147 9.13568 4.8147 L10.8641 4.8147 C11.3411 4.8147 11.7283 5.20186 11.7283 5.67889 L11.7283 7.40729 z" stroke-width="1.5" stroke-linecap="round" stroke-linejoin="round" style="stroke:#171D23;" /></svg>