<svg width="20" height="20" viewBox="0, 0, 20, 20" style="fill:none;" xmlns="http://www.w3.org/2000/svg" xmlns:xlink="http://www.w3.org/1999/xlink" xmlns:xml="http://www.w3.org/XML/1998/namespace" version="1.1"><path d="M13.3334 7.49992 L13.3334 5.83325 L11.6667 5.83325" stroke-width="1.5" stroke-linecap="round" stroke-linejoin="round" style="stroke:#171D23;" /><path d="M4.81504 2.5 L15.185 2.5 C16.0034 2.5 16.6667 3.24583 16.6667 4.16667 L16.6667 15.8333 C16.6667 16.7542 16.0034 17.5 15.185 17.5 L4.81504 17.5 C3.99671 17.5 3.33337 16.7542 3.33337 15.8333 L3.33337 4.16667 C3.33337 3.24583 3.99671 2.5 4.81504 2.5 L4.81504 2.5 z" stroke-width="1.5" stroke-linecap="round" stroke-linejoin="round" style="stroke:#171D23;" /><path d="M6.66675 11.25 L13.3334 11.25" stroke-width="1.5" stroke-linecap="round" stroke-linejoin="round" style="stroke:#171D23;" /><path d="M6.66675 14.1667 L10.0001 14.1667" stroke-width="1.5" stroke-linecap="round" stroke-linejoin="round" style="stroke:#171D23;" /><path d="M13.3334 5.83325 L10.8334 8.33325 L8.57175 6.66659 L6.66675 8.33325" stroke-width="1.5" stroke-linecap="round" stroke-linejoin="round" style="stroke:#171D23;" /></svg>