<svg width="20" height="20" viewBox="0, 0, 20, 20" style="fill:none;" xmlns="http://www.w3.org/2000/svg" xmlns:xlink="http://www.w3.org/1999/xlink" xmlns:xml="http://www.w3.org/XML/1998/namespace" version="1.1"><path d="M16.0493 17.7776 L3.95057 17.7776 C2.99562 17.7776 2.22217 16.9586 2.22217 15.9475 L2.22217 7.71135 C2.22217 6.70013 2.99562 5.8811 3.95057 5.8811 L16.0493 5.8811 C17.0043 5.8811 17.7777 6.70013 17.7777 7.71135 L17.7777 15.9475 C17.7777 16.9586 17.0043 17.7776 16.0493 17.7776 z" stroke-width="1.5" stroke-linecap="round" stroke-linejoin="round" style="stroke:#171D23;" /><path d="M13.607 5.88264 L13.607 4.05241 C13.607 3.0412 12.8335 2.22217 11.8786 2.22217 L8.12109 2.22217 C7.16615 2.22217 6.3927 3.0412 6.3927 4.05241 L6.3927 5.88264" stroke-width="1.5" stroke-linecap="round" stroke-linejoin="round" style="stroke:#171D23;" /><path d="M2.22217 7.71289 L7.71069 11.5482 C7.99328 11.7459 8.32427 11.8511 8.66303 11.8511 L11.3369 11.8511 C11.6756 11.8511 12.0066 11.7459 12.2892 11.5482 L17.7777 7.71289" stroke-width="1.5" stroke-linecap="round" stroke-linejoin="round" style="stroke:#171D23;" /></svg>