<svg width="20" height="20" viewBox="0, 0, 20, 20" style="fill:none;" xmlns="http://www.w3.org/2000/svg" xmlns:xlink="http://www.w3.org/1999/xlink" xmlns:xml="http://www.w3.org/XML/1998/namespace" version="1.1"><path d="M15.1851 6.54316 L15.1851 3.95056 C15.1851 2.99562 14.4117 2.22217 13.4567 2.22217 L3.95056 2.22217 C2.99562 2.22217 2.22217 2.99562 2.22217 3.95056 L2.22217 16.0493 C2.22217 17.0043 2.99562 17.7777 3.95056 17.7777 L6.54316 17.7777" stroke-width="1.5" stroke-linecap="round" stroke-linejoin="round" style="stroke:#171D23;" /><path d="M6.11112 14.3209 C5.39556 14.3209 4.81482 13.7401 4.81482 13.0246 C4.81482 12.309 5.39556 11.7283 6.11112 11.7283 C6.82667 11.7283 7.40741 12.309 7.40741 13.0246 C7.40741 13.7401 6.82667 14.3209 6.11112 14.3209 z" stroke-width="1.5" stroke-linecap="round" stroke-linejoin="round" style="stroke:#171D23;" /><path d="M17.7778 16.5558 L17.7778 15.8083 C17.7778 15.4367 17.5401 15.1057 17.1867 14.9881 L15.1852 14.321 L15.1852 12.5926 L15.7875 12.2072 C16.2309 11.9228 16.4374 11.3819 16.2948 10.8746 C16.1496 10.3569 15.6786 10 15.1411 10 L12.6367 10 C12.1 10 11.6281 10.3569 11.483 10.8746 C11.3404 11.3819 11.5469 11.9228 11.9902 12.2072 L12.5926 12.5926 L12.5926 14.321 L10.5911 14.9881 C10.2377 15.1057 10 15.4358 10 15.8083 L10 16.5558 C10 16.7848 10.0907 17.0052 10.2532 17.1668 L10.611 17.5246 C10.7735 17.687 10.993 17.7778 11.222 17.7778 L16.5558 17.7778 C16.7848 17.7778 17.0052 17.687 17.1668 17.5246 L17.5246 17.1668 C17.687 17.0043 17.7778 16.7848 17.7778 16.5558 z" stroke-width="1.5" stroke-linecap="round" stroke-linejoin="round" style="stroke:#171D23;" /><path d="M4.81482 5.67896 L11.7284 5.67896" stroke-width="1.5" stroke-linecap="round" stroke-linejoin="round" style="stroke:#171D23;" /><path d="M4.81482 8.70361 L8.27161 8.70361" stroke-width="1.5" stroke-linecap="round" stroke-linejoin="round" style="stroke:#171D23;" /></svg>