<svg width="24" height="24" viewBox="0, 0, 24, 24" style="fill:none;" xmlns="http://www.w3.org/2000/svg" xmlns:xlink="http://www.w3.org/1999/xlink" xmlns:xml="http://www.w3.org/XML/1998/namespace" version="1.1"><path d="M16 11 L16 7 C16 5.895 15.105 5 14 5 L5 5 C3.895 5 3 5.895 3 7 L3 12 C3 13.105 3.895 14 5 14 L8 14" stroke-width="1.5" stroke-linecap="round" stroke-linejoin="round" style="stroke:#171D23;" /><path d="M19 20 L10 20 C8.895 20 8 19.105 8 18 L8 13 C8 11.895 8.895 11 10 11 L19 11 C20.105 11 21 11.895 21 13 L21 18 C21 19.105 20.105 20 19 20 z" stroke-width="1.5" stroke-linecap="round" stroke-linejoin="round" style="stroke:#171D23;" /><path d="M16 8 L3 8" stroke-width="1.5" stroke-linecap="round" stroke-linejoin="round" style="stroke:#171D23;" /><path d="M8 14 L21 14" stroke-width="1.5" stroke-linecap="round" stroke-linejoin="round" style="stroke:#171D23;" /></svg>