<svg width="21" height="20" viewBox="0, 0, 21, 20" style="fill:none;" xmlns="http://www.w3.org/2000/svg" xmlns:xlink="http://www.w3.org/1999/xlink" xmlns:xml="http://www.w3.org/XML/1998/namespace" version="1.1"><path d="M12.1718 14.4443 L5.22731 14.4443 C4.18123 14.4443 3.33337 13.605 3.33337 12.5693 L3.33337 6.31934 C3.33337 5.28371 4.18123 4.44434 5.22731 4.44434 L15.3283 4.44434 C16.3744 4.44434 17.2223 5.28371 17.2223 6.31934 L17.2223 9.44434" stroke-width="1.5" stroke-miterlimit="10" style="stroke:#171D23;" /><path d="M2.77783 7.22217 L16.9754 7.22217" stroke-width="1.5" stroke-miterlimit="10" style="stroke:#171D23;" /><path d="M6.11121 11.6665 L9.44454 11.6665" stroke-width="1.5" stroke-linecap="round" stroke-miterlimit="10" style="stroke:#171D23;" /><path d="M15.5556 17.2221 C17.7034 17.2221 19.4445 15.481 19.4445 13.3332 C19.4445 11.1855 17.7034 9.44434 15.5556 9.44434 C13.4079 9.44434 11.6667 11.1855 11.6667 13.3332 C11.6667 15.481 13.4079 17.2221 15.5556 17.2221 z" stroke-width="1.5" stroke-miterlimit="10" style="stroke:#171D23;" /><path d="M17.2223 13.3332 L16.5557 13.3332 C16.0034 13.3332 15.5557 12.8855 15.5557 12.3332 L15.5557 11.6665" stroke-width="1.5" stroke-linecap="round" stroke-linejoin="round" style="stroke:#171D23;" /></svg>