<svg width="20" height="20" viewBox="0, 0, 20, 20" style="fill:none;" xmlns="http://www.w3.org/2000/svg" xmlns:xlink="http://www.w3.org/1999/xlink" xmlns:xml="http://www.w3.org/XML/1998/namespace" version="1.1"><path d="M11.2445 6.57778 L11.2445 3" stroke-width="1.5" stroke-linecap="round" stroke-linejoin="round" style="stroke:#171D23;" /><path d="M8.75558 3 L8.75558 6.57778 C8.75558 7.60833 7.91947 8.44444 6.88892 8.44444 L6.88892 8.44444" stroke-width="1.5" stroke-linecap="round" stroke-linejoin="round" style="stroke:#171D23;" /><path d="M13.1112 8.4443 C12.0806 8.4443 11.2445 7.60819 11.2445 6.57764" stroke-width="1.5" stroke-linecap="round" stroke-linejoin="round" style="stroke:#171D23;" /><path d="M13.1112 10.7778 C11.8715 10.7778 10.7686 10.231 10.0001 9.37622" stroke-width="1.5" stroke-linecap="round" stroke-linejoin="round" style="stroke:#171D23;" /><path d="M6.88892 10.7778 C8.12869 10.7778 9.23158 10.231 10 9.37622" stroke-width="1.5" stroke-linecap="round" stroke-linejoin="round" style="stroke:#171D23;" /><path d="M11.1667 13.1081 L11.1667 14.1721 C11.1667 15.0556 11.6661 15.863 12.4563 16.2581 L13.2753 16.6672 C15.3442 17.7016 17.7779 16.1982 17.7779 13.8859 L17.7779 9.10641 C17.7779 8.40019 17.5375 7.71496 17.0958 7.16352 L15.7105 5.43296 C15.0199 4.56885 13.9784 4.38685 13.1112 4.69641" stroke-width="1.5" stroke-linecap="round" stroke-linejoin="round" style="stroke:#171D23;" /><path d="M8.8334 13.1081 L8.8334 14.1721 C8.8334 15.0556 8.33407 15.863 7.54385 16.2581 L6.72485 16.6672 C4.65596 17.7016 2.22229 16.1982 2.22229 13.8859 L2.22229 9.10641 C2.22229 8.40019 2.46262 7.71496 2.9044 7.16352 L4.28962 5.43296 C4.98029 4.56885 6.02173 4.38685 6.88896 4.69641" stroke-width="1.5" stroke-linecap="round" stroke-linejoin="round" style="stroke:#171D23;" /></svg>