<svg width="20" height="20" viewBox="0, 0, 20, 20" style="fill:none;" xmlns="http://www.w3.org/2000/svg" xmlns:xlink="http://www.w3.org/1999/xlink" xmlns:xml="http://www.w3.org/XML/1998/namespace" version="1.1"><path d="M11.1313 14.8791 L3.72394 14.8791 C2.60811 14.8791 1.70374 14.0033 1.70374 12.9226 L1.70374 6.40086 C1.70374 5.32021 2.60811 4.44434 3.72394 4.44434 L14.4983 4.44434 C15.6142 4.44434 16.5186 5.32021 16.5186 6.40086 L16.5186 9.66173" stroke-width="1.5" stroke-miterlimit="10" style="stroke:#171D23;" /><path d="M1.11108 7.34277 L16.2551 7.34277" stroke-width="1.5" stroke-miterlimit="10" style="stroke:#171D23;" /><path d="M4.66663 11.9805 L8.22218 11.9805" stroke-width="1.5" stroke-linecap="round" stroke-miterlimit="10" style="stroke:#171D23;" /><path d="M14.7407 17.7776 C17.0316 17.7776 18.8888 15.9607 18.8888 13.7196 C18.8888 11.4784 17.0316 9.66162 14.7407 9.66162 C12.4497 9.66162 10.5925 11.4784 10.5925 13.7196 C10.5925 15.9607 12.4497 17.7776 14.7407 17.7776 z" stroke-width="1.5" stroke-miterlimit="10" style="stroke:#171D23;" /><path d="M16.2222 13.7198 L15.8074 13.7198 C15.2183 13.7198 14.7407 13.2422 14.7407 12.6531 L14.7407 12.2705" stroke-width="1.5" stroke-linecap="round" stroke-linejoin="round" style="stroke:#171D23;" /><path d="M13.2592 13.7197 L13.6741 13.7197 C14.2632 13.7197 14.7407 14.1972 14.7407 14.7863 L14.7407 15.1689" stroke-width="1.5" stroke-linecap="round" stroke-linejoin="round" style="stroke:#171D23;" /></svg>