<svg width="20" height="20" viewBox="0, 0, 20, 20" style="fill:none;" xmlns="http://www.w3.org/2000/svg" xmlns:xlink="http://www.w3.org/1999/xlink" xmlns:xml="http://www.w3.org/XML/1998/namespace" version="1.1"><path d="M4.16667 11.6667 C3.24583 11.6667 2.5 10.9208 2.5 10 L2.5 4.16667 C2.5 3.24583 3.24583 2.5 4.16667 2.5 L10 2.5 C10.9208 2.5 11.6667 3.24583 11.6667 4.16667" stroke-width="1.5" stroke-linecap="round" stroke-linejoin="round" style="stroke:#171D23;" /><path d="M10.8441 6.80421 C14.7958 5.92838 18.2391 9.37171 17.3625 13.3225 C16.9208 15.3142 15.3141 16.9209 13.3225 17.3625 C9.37081 18.2384 5.92748 14.795 6.80415 10.8442 C7.24581 8.85255 8.85248 7.24588 10.8441 6.80421 L10.8441 6.80421 z" stroke-width="1.5" stroke-linecap="round" stroke-linejoin="round" style="stroke:#171D23;" /><path d="M11.6667 9.16663 L11.6667 9.99996 C11.6667 10.9208 10.9209 11.6666 10 11.6666 L9.16669 11.6666" stroke-width="1.5" stroke-linecap="round" stroke-linejoin="round" style="stroke:#171D23;" /></svg>