<svg width="20" height="20" viewBox="0, 0, 20, 20" style="fill:none;" xmlns="http://www.w3.org/2000/svg" xmlns:xlink="http://www.w3.org/1999/xlink" xmlns:xml="http://www.w3.org/XML/1998/namespace" version="1.1"><path d="M17.2083 9.79168 C17.9676 10.551 17.9676 11.7822 17.2083 12.5415 C16.4489 13.3009 15.2178 13.3009 14.4584 12.5415 C13.6991 11.7822 13.6991 10.551 14.4584 9.79168 C15.2178 9.03233 16.4489 9.03233 17.2083 9.79168" stroke-width="1.5" stroke-linecap="round" stroke-linejoin="round" style="stroke:#171D23;" /><path d="M5.33328 3 L3.77772 3 C2.91828 3 2.22217 3.69611 2.22217 4.55556 L2.22217 7.66667 C2.22217 10.2442 4.31128 12.3333 6.88883 12.3333 C9.46639 12.3333 11.5555 10.2442 11.5555 7.66667 L11.5555 4.55556 C11.5555 3.69611 10.8594 3 9.99994 3 L8.44439 3" stroke-width="1.5" stroke-linecap="round" stroke-linejoin="round" style="stroke:#171D23;" /><path d="M15.8332 13.111 L15.8332 13.3055 C15.8332 15.7757 13.8312 17.7777 11.361 17.7777 C8.89079 17.7777 6.88879 15.7757 6.88879 13.3055 L6.88879 12.3333" stroke-width="1.5" stroke-linecap="round" stroke-linejoin="round" style="stroke:#171D23;" /><path d="M5.33322 2.22217 L5.33322 3.77772" stroke-width="1.5" stroke-linecap="round" stroke-linejoin="round" style="stroke:#171D23;" /><path d="M8.44443 2.22217 L8.44443 3.77772" stroke-width="1.5" stroke-linecap="round" stroke-linejoin="round" style="stroke:#171D23;" /></svg>