<svg width="20" height="20" viewBox="0, 0, 20, 20" style="fill:none;" xmlns="http://www.w3.org/2000/svg" xmlns:xlink="http://www.w3.org/1999/xlink" xmlns:xml="http://www.w3.org/XML/1998/namespace" version="1.1"><path d="M8.33325 14.4166 L8.33325 11.7347 C7.15268 11.3092 6.31132 10.437 5.77074 9.38207 C4.92092 7.72373 4.41051 5.57816 4.33349 3.34039 C4.32974 3.22942 4.37037 3.12161 4.44608 3.04171 C4.52212 2.96181 4.62655 2.91663 4.73555 2.91663 L15.2644 2.91663 C15.3736 2.91663 15.4779 2.96181 15.5537 3.04171 C15.6294 3.12161 15.6702 3.22942 15.6663 3.34039 C15.5893 5.57816 15.0789 7.72389 14.2291 9.38207 C13.6135 10.5833 12.8472 11.3092 11.6666 11.7347 L11.6666 14.4166" stroke-width="1.5" stroke-miterlimit="10" style="stroke:#171D23;" /><path d="M4.99996 4.91663 L2.01568 4.91663 C1.92037 4.91663 1.82916 4.95455 1.7633 5.02172 C1.69745 5.08875 1.66261 5.17923 1.667 5.27191 C1.73512 6.73817 2.2032 7.99175 3.02067 8.89721 C3.80826 9.76944 5.1854 10.25 6.33329 10.25" stroke-width="1.5" stroke-miterlimit="10" style="stroke:#171D23;" /><path d="M14.9999 4.91663 L17.9842 4.91663 C18.0795 4.91663 18.1707 4.95455 18.2366 5.02172 C18.3024 5.08875 18.3373 5.17923 18.3329 5.27191 C18.2648 6.73817 17.7967 7.99175 16.9792 8.89721 C16.1916 9.76944 14.8145 10.25 13.6666 10.25" stroke-width="1.5" stroke-miterlimit="10" style="stroke:#171D23;" /><path d="M14.1666 14.5833 L5.83325 14.5833 L5.83325 17.0833 L14.1666 17.0833 L14.1666 14.5833 z" stroke-width="1.5" stroke-linejoin="round" stroke-miterlimit="10" style="stroke:#171D23;" /><path d="M13.0833 7.58325 C13.0833 7.16904 12.7475 6.83325 12.3333 6.83325 C11.9191 6.83325 11.5833 7.16904 11.5833 7.58325 L13.0833 7.58325 z M10.6646 8.5791 C10.2941 8.76434 10.1439 9.21484 10.3292 9.58533 C10.5144 9.95581 10.9649 10.106 11.3354 9.92074 L10.6646 8.5791 z M11.5833 7.58325 C11.5833 7.67014 11.5337 7.83589 11.3472 8.05349 C11.168 8.26257 10.9167 8.45302 10.6646 8.5791 L11.3354 9.92074 C11.7499 9.71348 12.1653 9.40393 12.4861 9.02968 C12.7996 8.66395 13.0833 8.16303 13.0833 7.58325 L11.5833 7.58325 z" style="fill:#171D23;" /></svg>