<svg width="20" height="20" viewBox="0, 0, 20, 20" style="fill:none;" xmlns="http://www.w3.org/2000/svg" xmlns:xlink="http://www.w3.org/1999/xlink" xmlns:xml="http://www.w3.org/XML/1998/namespace" version="1.1"><path d="M15.8334 4.16666 L16.6667 4.16666 C17.5875 4.16666 18.3334 4.91249 18.3334 5.83332 L18.3334 15.8333 C18.3334 16.7542 17.5875 17.5 16.6667 17.5 L3.33335 17.5 C2.41252 17.5 1.66669 16.7542 1.66669 15.8333 L1.66669 5.83332 C1.66669 4.91249 2.41252 4.16666 3.33335 4.16666 L4.16669 4.16666" stroke-width="1.5" stroke-linecap="round" stroke-linejoin="round" style="stroke:#171D23;" /><path d="M10 5 C10 3.61917 8.88085 2.5 7.50002 2.5 L5.00002 2.5 C4.54002 2.5 4.16669 2.87333 4.16669 3.33333 L4.16669 14.1667 C4.16669 14.6267 4.54002 15 5.00002 15 L7.50002 15 C8.88085 15 10 16.1192 10 17.5 C10 16.1192 11.1192 15 12.5 15 L15 15 C15.46 15 15.8334 14.6267 15.8334 14.1667 L15.8334 3.33333 C15.8334 2.87333 15.46 2.5 15 2.5 L12.5 2.5 C11.1192 2.5 10 3.61917 10 5 z" stroke-width="1.5" stroke-linecap="round" stroke-linejoin="round" style="stroke:#171D23;" /><path d="M10 5 L10 17.5" stroke-width="1.5" stroke-linecap="round" stroke-linejoin="round" style="stroke:#171D23;" /></svg>