<svg width="28" height="28" viewBox="0, 0, 28, 28" style="fill:none;" xmlns="http://www.w3.org/2000/svg" xmlns:xlink="http://www.w3.org/1999/xlink" xmlns:xml="http://www.w3.org/XML/1998/namespace" version="1.1"><path d="M23 13.5 C23.0034 14.8199 22.6951 16.1219 22.1 17.3 C21.3944 18.7118 20.3098 19.8992 18.9674 20.7293 C17.6251 21.5594 16.0782 21.9994 14.5 22 C13.1801 22.0035 11.8781 21.6951 10.7 21.1 L5 23 L6.9 17.3 C6.30493 16.1219 5.99656 14.8199 6 13.5 C6.00061 11.9218 6.44061 10.3749 7.27072 9.03258 C8.10083 7.69028 9.28825 6.6056 10.7 5.90003 C11.8781 5.30496 13.1801 4.99659 14.5 5.00003 L15 5.00003 C17.0843 5.11502 19.053 5.99479 20.5291 7.47089 C22.0052 8.94699 22.885 10.9157 23 13 L23 13.5 z" stroke-width="2" stroke-linecap="round" stroke-linejoin="round" style="stroke:#171D23;" /></svg>