<svg width="20" height="20" viewBox="0, 0, 20, 20" style="fill:none;" xmlns="http://www.w3.org/2000/svg" xmlns:xlink="http://www.w3.org/1999/xlink" xmlns:xml="http://www.w3.org/XML/1998/namespace" version="1.1"><path d="M11.389 12.5926 C11.389 13.3088 10.7674 13.8889 10.0001 13.8889 C9.23271 13.8889 8.59173 13.3088 8.59173 12.5926 L8.61048 10.9489 C7.78062 10.5003 7.22229 9.66294 7.22229 8.70368 C7.22229 7.27192 8.46604 6.11108 10.0001 6.11108 C11.5341 6.11108 12.7778 7.27192 12.7778 8.70368 C12.7778 9.66294 12.2195 10.5003 11.3897 10.9489 L11.389 12.5926 z" stroke-width="1.5" stroke-miterlimit="10" style="stroke:#171D23;" /><path d="M16.6667 9.34477 C16.6667 13.1196 14.0359 16.6577 10.4334 17.7155 C10.1517 17.7985 9.84837 17.7985 9.56671 17.7155 C5.96421 16.6586 3.33337 13.1196 3.33337 9.34477 L3.33337 5.86373 C3.33337 5.16199 3.74254 4.52939 4.36921 4.26408 L8.42254 2.5443 C9.43421 2.11479 10.5675 2.11479 11.5784 2.5443 L15.6317 4.26408 C16.2575 4.52939 16.6667 5.16199 16.6667 5.86373 L16.6667 9.34477 z" stroke-width="1.5" stroke-linejoin="round" stroke-miterlimit="10" style="stroke:#171D23;" /></svg>