<svg width="21" height="20" viewBox="0, 0, 21, 20" style="fill:none;" xmlns="http://www.w3.org/2000/svg" xmlns:xlink="http://www.w3.org/1999/xlink" xmlns:xml="http://www.w3.org/XML/1998/namespace" version="1.1"><path d="M1.89581 9.55916 C12.2083 3.4375 11.1666 13.3333 18.7708 10" stroke-width="1.5" stroke-linecap="round" stroke-linejoin="round" style="stroke:#171D23;" /><path d="M5.4483 2.5 C11.2708 5.3125 9.3958 14.6875 6.5833 17.5" stroke-width="1.5" stroke-linecap="round" stroke-linejoin="round" style="stroke:#171D23;" /><path d="M11.2708 2.5 C17.0933 5.3125 15.3333 15 13.1458 17.5" stroke-width="1.5" stroke-linecap="round" stroke-linejoin="round" style="stroke:#171D23;" /><path d="M1.89581 15.6583 C11.1666 9.16666 13.1458 17.5 13.1458 17.5" stroke-width="1.5" stroke-linecap="round" stroke-linejoin="round" style="stroke:#171D23;" /><path d="M16.8958 17.5 L3.77081 17.5 C2.73498 17.5 1.89581 16.6608 1.89581 15.625 L1.89581 4.375 C1.89581 3.33917 2.73498 2.5 3.77081 2.5 L16.8958 2.5 C17.9316 2.5 18.7708 3.33917 18.7708 4.375 L18.7708 15.625 C18.7708 16.6608 17.9316 17.5 16.8958 17.5 z" stroke-width="1.5" stroke-linecap="round" stroke-linejoin="round" style="stroke:#171D23;" /></svg>