<svg width="16" height="18" viewBox="0, 0, 16, 18" style="fill:none;" xmlns="http://www.w3.org/2000/svg" xmlns:xlink="http://www.w3.org/1999/xlink" xmlns:xml="http://www.w3.org/XML/1998/namespace" version="1.1"><path d="M13.2275 2.10388 C14.8631 3.72383 14.8631 6.35029 13.2275 7.97025 C11.592 9.5902 8.9403 9.5902 7.30477 7.97025 C5.66924 6.3503 5.66924 3.72383 7.30477 2.10388 C8.9403 0.483928 11.592 0.483928 13.2275 2.10388 z" stroke-width="1.5" stroke-linecap="round" stroke-linejoin="round" style="stroke:#171D23;" /><path d="M4.64844 14.7161 L6.89203 14.7161" stroke-width="1.5" stroke-linecap="round" stroke-linejoin="round" style="stroke:#171D23;" /><path d="M10.7684 9.18533 L10.7684 15.21 C10.7684 16.3013 9.87594 17.1853 8.77409 17.1853 L2.79118 17.1853 C1.68933 17.1853 0.796875 16.3013 0.796875 15.21 L0.796875 3.35812 C0.796875 2.26676 1.68933 1.38281 2.79118 1.38281 L8.17268 1.38281" stroke-width="1.5" stroke-linecap="round" stroke-linejoin="round" style="stroke:#171D23;" /><path d="M9.46436 7.40749 C9.27838 7.40749 9.12761 7.25672 9.12761 7.07074 L9.12761 3.66675 C9.12761 3.11446 9.58333 2.66675 10.1356 2.66675 C10.7892 2.66675 11.2731 2.78405 11.5874 3.01865 C11.9067 3.25325 12.0663 3.59409 12.0663 4.04116 C12.0663 4.34216 11.989 4.60111 11.8343 4.81801 C11.6797 5.03048 11.4502 5.19426 11.1459 5.30935 C10.8465 5.42443 10.4749 5.48198 10.0308 5.48198 L9.80111 5.48198 L9.80111 7.07074 C9.80111 7.25672 9.65034 7.40749 9.46436 7.40749 z M8.69235 6.50449 C8.57318 6.50449 8.47656 6.40788 8.47656 6.2887 C8.47656 6.16952 8.57318 6.07291 8.69235 6.07291 L10.8201 6.07291 C10.9392 6.07291 11.0359 6.16952 11.0359 6.2887 C11.0359 6.40788 10.9392 6.50449 10.8201 6.50449 L8.69235 6.50449 z M8.72887 5.48198 C8.58953 5.48198 8.47656 5.36902 8.47656 5.22967 C8.47656 5.09032 8.58952 4.97736 8.72887 4.97736 L9.79138 4.97736 L9.79138 5.48198 L8.72887 5.48198 z M9.93356 4.97736 C10.127 4.97736 10.4948 4.94859 10.7043 4.89105 C10.9189 4.8335 11.0835 4.73833 11.1982 4.60554 C11.313 4.47274 11.3704 4.29126 11.3704 4.06108 C11.3704 3.76008 11.2656 3.53655 11.0561 3.39047 C10.8465 3.2444 10.5198 3.17136 10.0757 3.17136 L10.0011 3.17136 C9.89065 3.17136 9.80111 3.26091 9.80111 3.37136 L9.80111 4.82673 C9.80111 4.90992 9.85037 4.97736 9.93356 4.97736 z" stroke-width="0.3" stroke-linejoin="round" style="fill:#171D23;stroke:#171D23;" /></svg>