<svg width="20" height="20" viewBox="0, 0, 20, 20" style="fill:none;" xmlns="http://www.w3.org/2000/svg" xmlns:xlink="http://www.w3.org/1999/xlink" xmlns:xml="http://www.w3.org/XML/1998/namespace" version="1.1"><path d="M15.9342 12.3992 C17.015 13.48 16.8992 15.3058 15.5858 16.2267 C14.75 16.8125 13.5833 16.8125 12.7475 16.2267 C11.4342 15.305 11.3175 13.48 12.3992 12.3992 C13.375 11.4225 14.9583 11.4225 15.9342 12.3992 z" stroke-width="1.5" stroke-linecap="round" stroke-linejoin="round" style="stroke:#171D23;" /><path d="M15.9342 15.9342 L17.5 17.5" stroke-width="1.5" stroke-linecap="round" stroke-linejoin="round" style="stroke:#171D23;" /><path d="M6.66667 8.33333 L4.16667 8.33333 C3.24583 8.33333 2.5 7.5875 2.5 6.66667 L2.5 4.16667 C2.5 3.24583 3.24583 2.5 4.16667 2.5 L6.66667 2.5 C7.5875 2.5 8.33333 3.24583 8.33333 4.16667 L8.33333 6.66667 C8.33333 7.5875 7.5875 8.33333 6.66667 8.33333 z" stroke-width="1.5" stroke-linecap="round" stroke-linejoin="round" style="stroke:#171D23;" /><path d="M15.8333 8.33333 L13.3333 8.33333 C12.4125 8.33333 11.6667 7.5875 11.6667 6.66667 L11.6667 4.16667 C11.6667 3.24583 12.4125 2.5 13.3333 2.5 L15.8333 2.5 C16.7542 2.5 17.5 3.24583 17.5 4.16667 L17.5 6.66667 C17.5 7.5875 16.7542 8.33333 15.8333 8.33333 z" stroke-width="1.5" stroke-linecap="round" stroke-linejoin="round" style="stroke:#171D23;" /><path d="M6.66667 17.5 L4.16667 17.5 C3.24583 17.5 2.5 16.7542 2.5 15.8333 L2.5 13.3333 C2.5 12.4125 3.24583 11.6667 4.16667 11.6667 L6.66667 11.6667 C7.5875 11.6667 8.33333 12.4125 8.33333 13.3333 L8.33333 15.8333 C8.33333 16.7542 7.5875 17.5 6.66667 17.5 z" stroke-width="1.5" stroke-linecap="round" stroke-linejoin="round" style="stroke:#171D23;" /></svg>