<svg width="21" height="20" viewBox="0, 0, 21, 20" style="fill:none;" xmlns="http://www.w3.org/2000/svg" xmlns:xlink="http://www.w3.org/1999/xlink" xmlns:xml="http://www.w3.org/XML/1998/namespace" version="1.1"><path d="M16.1666 17.0833 L4.49998 17.0833 C3.57915 17.0833 2.83331 16.3375 2.83331 15.4167 L2.83331 7.91667 C2.83331 6.99583 3.57915 6.25 4.49998 6.25 L16.1666 6.25 C17.0875 6.25 17.8333 6.99583 17.8333 7.91667 L17.8333 15.4167 C17.8333 16.3375 17.0875 17.0833 16.1666 17.0833 z" stroke-width="1.5" stroke-linecap="round" stroke-linejoin="round" style="stroke:#171D23;" /><path d="M13.8116 6.24999 L13.8116 4.58332 C13.8116 3.66249 13.0658 2.91666 12.145 2.91666 L8.52165 2.91666 C7.60081 2.91666 6.85498 3.66249 6.85498 4.58332 L6.85498 6.24999" stroke-width="1.5" stroke-linecap="round" stroke-linejoin="round" style="stroke:#171D23;" /><path d="M2.83331 7.91666 L8.12581 11.4092 C8.39831 11.5892 8.71748 11.685 9.04415 11.685 L11.6225 11.685 C11.9491 11.685 12.2683 11.5892 12.5408 11.4092 L17.8333 7.91666" stroke-width="1.5" stroke-linecap="round" stroke-linejoin="round" style="stroke:#171D23;" /></svg>