<svg viewBox="0, 0, 20, 20" data-qa="Management" style="fill:none;" xmlns="http://www.w3.org/2000/svg" xmlns:xlink="http://www.w3.org/1999/xlink" xmlns:xml="http://www.w3.org/XML/1998/namespace" version="1.1"><path d="M15.357 14.167 L4.643 14.167 A2.142 2.142 0 0 1 2.5 12.024 L2.5 4.643 C2.5 3.459 3.46 2.5 4.643 2.5 L15.357 2.5 C16.541 2.5 17.5 3.46 17.5 4.643 L17.5 12.023 C17.5 13.207 16.54 14.167 15.357 14.167 L15.357 14.167 z M11.667 14.167 L12.083 17.5 M8.333 14.167 L7.917 17.5 M6.783 17.5 L13.217 17.5 M10 5.833 L10 5 M10 10.833 L10 11.667" stroke-width="1.5" stroke-linecap="round" stroke-linejoin="round" style="stroke:currentColor;" /><path d="M8.553 10.238 C8.769 10.592 9.138 10.837 9.583 10.837 L10.497 10.837 A1.17 1.17 0 0 0 10.781 8.532 L9.218 8.14 A1.17 1.17 0 0 1 9.503 5.833 L10.417 5.833 C10.861 5.833 11.228 6.077 11.445 6.428" stroke-width="1.5" stroke-linecap="round" stroke-linejoin="round" style="stroke:currentColor;" /></svg>