<svg width="20" height="20" viewBox="0, 0, 20, 20" style="fill:none;" xmlns="http://www.w3.org/2000/svg" xmlns:xlink="http://www.w3.org/1999/xlink" xmlns:xml="http://www.w3.org/XML/1998/namespace" version="1.1"><g clip-path="url(#clip0_315_11214)"><path d="M6.29501 9.16667 L3.33334 9.16667 C2.41251 9.16667 1.66667 8.42084 1.66667 7.50001 L1.66667 3.33334 C1.66667 2.41251 2.41251 1.66667 3.33334 1.66667 L16.6667 1.66667 C17.5875 1.66667 18.3333 2.41251 18.3333 3.33334 L18.3333 7.50001 C18.3333 8.42084 17.5875 9.16667 16.6667 9.16667 L8.79501 9.16667" stroke-width="1.5" stroke-linecap="round" stroke-linejoin="round" style="stroke:#171D23;" /><path d="M8.795 10.8333 L8.795 7.08334 C8.795 6.39334 8.235 5.83334 7.545 5.83334 C6.855 5.83334 6.295 6.39334 6.295 7.08334 L6.295 9.16668 L6.295 13.3333 L5.54417 12.5825 C5.03833 12.0767 4.21833 12.0767 3.7125 12.5825 C3.27583 13.0192 3.20833 13.7033 3.55083 14.2167 L5.8 17.5908 C6.10917 18.055 6.63 18.3333 7.1875 18.3333 L11.5942 18.3333 C12.435 18.3333 13.1433 17.7075 13.2483 16.8733 L13.7 13.2592 C13.8108 12.37 13.1992 11.5517 12.315 11.4075 L8.795 10.8333 L8.795 10.8333 z" stroke-width="1.5" stroke-linecap="round" stroke-linejoin="round" style="stroke:#171D23;" /><path d="M15.4167 4.58334 L13.3333 6.66668 L12.0833 5.41668" stroke-width="1.5" stroke-linecap="round" stroke-linejoin="round" style="stroke:#171D23;" /></g><defs><clipPath id="clip0_315_11214"><rect width="20" height="20" style="fill:white;" /></clipPath></defs></svg>