<svg width="20" height="20" viewBox="0, 0, 20, 20" style="fill:none;" xmlns="http://www.w3.org/2000/svg" xmlns:xlink="http://www.w3.org/1999/xlink" xmlns:xml="http://www.w3.org/XML/1998/namespace" version="1.1"><path d="M3.33329 6.66664 L1.66663 6.11108" stroke-width="1.5" stroke-linecap="round" stroke-linejoin="round" style="stroke:#171D23;" /><path d="M16.6666 6.66664 L18.3333 6.11108" stroke-width="1.5" stroke-linecap="round" stroke-linejoin="round" style="stroke:#171D23;" /><path d="M6.94439 10.5554 L4.72217 10.5554" stroke-width="1.5" stroke-linecap="round" stroke-linejoin="round" style="stroke:#171D23;" /><path d="M15.2778 10.5554 L13.0555 10.5554" stroke-width="1.5" stroke-linecap="round" stroke-linejoin="round" style="stroke:#171D23;" /><path d="M16.3889 7.22217 L15.6621 3.87883 C15.4517 2.91383 14.5673 2.22217 13.5418 2.22217 L6.54308 2.22217 C5.53745 2.22217 4.66348 2.88883 4.43481 3.83133 L3.61108 7.22217" stroke-width="1.5" stroke-linecap="round" stroke-linejoin="round" style="stroke:#171D23;" /><path d="M3.05551 16.6666 L4.72218 16.6666 C5.41218 16.6666 6.11412 16.0597 6.11412 15.2777 L6.11107 13.8888 L13.8888 13.8888 L13.8888 15.2777 C13.8888 16.0597 14.5877 16.6666 15.2777 16.6666 L16.9444 16.6666 C17.5194 16.6666 18.3333 15.9294 18.3333 15.2777 L18.3333 10.2777 C18.3333 8.71278 17.2141 7.22217 15.8333 7.22217 L4.16663 7.22217 C2.78579 7.22217 1.66663 8.71278 1.66663 10.2777 L1.66663 15.2777 C1.66663 15.9294 2.48051 16.6666 3.05551 16.6666 z" stroke-width="1.5" stroke-linecap="round" stroke-linejoin="round" style="stroke:#171D23;" /><path d="M1.66663 13.8889 L18.3333 13.8889" stroke-width="1.5" stroke-linecap="round" stroke-linejoin="round" style="stroke:#171D23;" /></svg>