<svg width="20" height="20" viewBox="0, 0, 20, 20" style="fill:none;" xmlns="http://www.w3.org/2000/svg" xmlns:xlink="http://www.w3.org/1999/xlink" xmlns:xml="http://www.w3.org/XML/1998/namespace" version="1.1"><path d="M12.5 7.5 L14.1667 7.5" stroke-width="1.5" stroke-linecap="round" stroke-linejoin="round" style="stroke:#171D23;" /><path d="M5.83337 14.1666 L7.50004 14.1666" stroke-width="1.5" stroke-linecap="round" stroke-linejoin="round" style="stroke:#171D23;" /><path d="M10 14.1666 L14.1667 14.1666" stroke-width="1.5" stroke-linecap="round" stroke-linejoin="round" style="stroke:#171D23;" /><path d="M15.8333 3.33337 C16.7542 3.33337 17.5 4.07921 17.5 5.00004 L17.5 15.8334 C17.5 16.7542 16.7542 17.5 15.8333 17.5 L4.16667 17.5 C3.24583 17.5 2.5 16.7542 2.5 15.8334 L2.5 5.00004 C2.5 4.07921 3.24583 3.33337 4.16667 3.33337" stroke-width="1.5" stroke-linecap="round" stroke-linejoin="round" style="stroke:#171D23;" /><path d="M5.83337 10.8334 L7.50004 10.8334" stroke-width="1.5" stroke-linecap="round" stroke-linejoin="round" style="stroke:#171D23;" /><path d="M10 10.8334 L14.1667 10.8334" stroke-width="1.5" stroke-linecap="round" stroke-linejoin="round" style="stroke:#171D23;" /><path d="M8.33337 2.5 L6.66671 2.5 C6.20671 2.5 5.83337 2.87333 5.83337 3.33333 L5.83337 7.5 L7.50004 6.66667 L9.16671 7.5 L9.16671 3.33333 C9.16671 2.87333 8.79337 2.5 8.33337 2.5 z" stroke-width="1.5" stroke-linecap="round" stroke-linejoin="round" style="stroke:#171D23;" /><path d="M4.16663 3.33337 L5.83329 3.33337" stroke-width="1.5" stroke-linecap="round" stroke-linejoin="round" style="stroke:#171D23;" /><path d="M9.16663 3.33337 L15.8333 3.33337" stroke-width="1.5" stroke-linecap="round" stroke-linejoin="round" style="stroke:#171D23;" /></svg>