<svg width="20" height="20" viewBox="0, 0, 20, 20" style="fill:none;" xmlns="http://www.w3.org/2000/svg" xmlns:xlink="http://www.w3.org/1999/xlink" xmlns:xml="http://www.w3.org/XML/1998/namespace" version="1.1"><path d="M0 13.0144 L0 7 L5.97434 7 L5.97434 13.0144 L4.2502 13.0144 L4.2502 8.49158 L1.72414 8.49158 L1.72414 13.0144 L0 13.0144 z M11.0666 9.53408 L8.30794 13.0144 L6.77626 13.0144 L6.77626 7 L8.5004 7 L8.5004 10.4804 L11.259 7 L12.7907 7 L12.7907 13.0144 L11.0666 13.0144 L11.0666 9.53408 z M15.3168 10.5926 L15.3168 13.0144 L13.5926 13.0144 L13.5926 7 L15.3168 7 L15.3168 9.49399 L17.3777 7 L19.3905 7 L16.9366 9.91901 L20 13.0144 L17.6824 13.0144 L15.3168 10.5926 z" style="fill:#FF4114;" /></svg>