<svg width="20" height="20" viewBox="0, 0, 20, 20" style="fill:none;" xmlns="http://www.w3.org/2000/svg" xmlns:xlink="http://www.w3.org/1999/xlink" xmlns:xml="http://www.w3.org/XML/1998/namespace" version="1.1"><path d="M12.5925 10.9668 C12.5925 10.011 13.3669 9.23657 14.3228 9.23657 L17.1794 9.23657 C17.5098 9.23657 17.7777 9.50444 17.7777 9.83486 C17.7777 10.1653 17.5098 10.4332 17.1794 10.4332 L14.3228 10.4332 C14.0278 10.4332 13.7891 10.6718 13.7891 10.9668 L13.7891 11.8938 C13.7891 12.1888 14.0278 12.4275 14.3228 12.4275 L17.1794 12.4275 C17.5098 12.4275 17.7777 12.6953 17.7777 13.0257 C17.7777 13.3562 17.5098 13.624 17.1794 13.624 L14.3228 13.624 C13.3669 13.624 12.5925 12.8496 12.5925 11.8938 L12.5925 10.9668 z" clip-rule="evenodd" fill-rule="evenodd" style="fill:#171D23;" /><path d="M4.4159 6.44463 C3.86485 6.44463 3.41875 6.89072 3.41875 7.44178 L3.41875 15.419 C3.41875 15.97 3.86485 16.4161 4.4159 16.4161 L15.584 16.4161 C16.135 16.4161 16.5811 15.97 16.5811 15.419 L16.5811 7.44178 C16.5811 6.89072 16.135 6.44463 15.584 6.44463 L4.4159 6.44463 z M2.22217 7.44178 C2.22217 6.22987 3.20399 5.24805 4.4159 5.24805 L15.584 5.24805 C16.7959 5.24805 17.7777 6.22987 17.7777 7.44178 L17.7777 15.419 C17.7777 16.6309 16.7959 17.6127 15.584 17.6127 L4.4159 17.6127 C3.20399 17.6127 2.22217 16.6309 2.22217 15.419 L2.22217 7.44178 z" clip-rule="evenodd" fill-rule="evenodd" style="fill:#171D23;" /><path d="M7.41729 2.79657 C7.96249 2.25034 8.84643 2.25123 9.39157 2.79637 L12.0185 5.42327 C12.2521 5.65692 12.2521 6.03573 12.0185 6.26938 C11.7848 6.50303 11.406 6.50303 11.1724 6.26938 L8.54546 3.64248 C8.4669 3.56392 8.34118 3.5647 8.26414 3.64194 L5.6367 6.26938 C5.40306 6.50303 5.02424 6.50303 4.79059 6.26938 C4.55694 6.03573 4.55694 5.65692 4.79059 5.42327 L7.41729 2.79657 C7.4174 2.79646 7.41717 2.79669 7.41729 2.79657 z" clip-rule="evenodd" fill-rule="evenodd" style="fill:#171D23;" /><path d="M11.7357 3.64194 C11.6587 3.5647 11.533 3.56392 11.4544 3.64248 L10.846 4.25088 L11.8432 5.24803 L13.3418 5.24803 L11.7357 3.64194 z M12.5826 2.79657 C12.0374 2.25034 11.1534 2.25123 10.6083 2.79637 L9.57685 3.82783 C9.46465 3.94003 9.40161 4.09221 9.40161 4.25088 C9.40161 4.40956 9.46465 4.56174 9.57685 4.67394 L11.1723 6.26938 C11.2845 6.38158 11.4367 6.44462 11.5953 6.44462 L14.7862 6.44462 C15.0282 6.44462 15.2464 6.29885 15.339 6.07528 C15.4316 5.85171 15.3804 5.59438 15.2093 5.42327 L12.5826 2.79657 z" clip-rule="evenodd" fill-rule="evenodd" style="fill:#171D23;" /></svg>