<svg width="20" height="20" viewBox="0, 0, 20, 20" style="fill:none;" xmlns="http://www.w3.org/2000/svg" xmlns:xlink="http://www.w3.org/1999/xlink" xmlns:xml="http://www.w3.org/XML/1998/namespace" version="1.1"><path d="M16.6667 17.5 L3.33335 17.5 C2.41252 17.5 1.66669 16.7542 1.66669 15.8333 L1.66669 4.16667 C1.66669 3.24583 2.41252 2.5 3.33335 2.5 L16.6667 2.5 C17.5875 2.5 18.3334 3.24583 18.3334 4.16667 L18.3334 15.8333 C18.3334 16.7542 17.5875 17.5 16.6667 17.5 z" stroke-width="1.5" stroke-linecap="round" stroke-linejoin="round" style="stroke:#171D23;" /><path d="M1.66669 6.66666 L18.3334 6.66666" stroke-width="1.5" stroke-linecap="round" stroke-linejoin="round" style="stroke:#171D23;" /><path d="M3.9825 4.57501 C3.98 4.57501 3.97833 4.57668 3.97833 4.57918 C3.97833 4.58168 3.98 4.58335 3.9825 4.58335 C3.985 4.58335 3.98667 4.58168 3.98667 4.57918 C3.98667 4.57668 3.985 4.57501 3.9825 4.57501 z" stroke-width="1.5" stroke-linecap="round" stroke-linejoin="round" style="stroke:#171D23;" /><path d="M6.1017 4.57501 C6.0992 4.57501 6.09753 4.57668 6.09753 4.57918 C6.09753 4.58168 6.10003 4.58335 6.1017 4.58335 C6.1042 4.58335 6.10587 4.58168 6.10587 4.57918 C6.10587 4.57668 6.1042 4.57501 6.1017 4.57501 z" stroke-width="1.5" stroke-linecap="round" stroke-linejoin="round" style="stroke:#171D23;" /><path d="M8.21755 4.57501 C8.21505 4.57501 8.21338 4.57668 8.21338 4.57918 C8.21338 4.58168 8.21505 4.58335 8.21755 4.58335 C8.22005 4.58335 8.22171 4.58168 8.22171 4.57918 C8.22171 4.57668 8.22005 4.57501 8.21755 4.57501 z" stroke-width="1.5" stroke-linecap="round" stroke-linejoin="round" style="stroke:#171D23;" /><path d="M10.65 9.16666 L9.35004 15" stroke-width="1.5" stroke-linecap="round" stroke-linejoin="round" style="stroke:#171D23;" /><path d="M12.7084 10.625 L14.1667 12.0833 L12.7084 13.5417" stroke-width="1.5" stroke-linecap="round" stroke-linejoin="round" style="stroke:#171D23;" /><path d="M7.29171 13.5417 L5.83337 12.0833 L7.29171 10.625" stroke-width="1.5" stroke-linecap="round" stroke-linejoin="round" style="stroke:#171D23;" /></svg>