<svg width="21" height="20" viewBox="0, 0, 21, 20" style="fill:none;" xmlns="http://www.w3.org/2000/svg" xmlns:xlink="http://www.w3.org/1999/xlink" xmlns:xml="http://www.w3.org/XML/1998/namespace" version="1.1"><path d="M10.3333 2.5 C14.485 2.5 17.8333 5.84833 17.8333 10 C17.8333 14.1517 14.485 17.5 10.3333 17.5" stroke-width="1.5" stroke-linecap="round" stroke-linejoin="round" style="stroke:#171D23;" /><path d="M10.3333 17.5 C6.18165 17.5 2.83331 14.1517 2.83331 10 C2.83331 5.84833 6.18165 2.5 10.3333 2.5" stroke-width="1.5" stroke-linecap="round" stroke-linejoin="round" style="stroke:#171D23;" /><path d="M8.80662 3.38334 C6.39828 7.40417 6.39828 12.5967 8.80662 16.6175 C9.51162 17.795 11.1558 17.795 11.8608 16.6175 C14.2691 12.5967 14.2691 7.40417 11.8608 3.38334 C11.1549 2.20584 9.51162 2.20584 8.80662 3.38334 z" stroke-width="1.5" stroke-linecap="round" stroke-linejoin="round" style="stroke:#171D23;" /><path d="M2.83331 10 L17.8333 10" stroke-width="1.5" stroke-linecap="round" stroke-linejoin="round" style="stroke:#171D23;" /></svg>