<svg width="20" height="20" viewBox="0, 0, 20, 20" style="fill:none;" xmlns="http://www.w3.org/2000/svg" xmlns:xlink="http://www.w3.org/1999/xlink" xmlns:xml="http://www.w3.org/XML/1998/namespace" version="1.1"><path d="M7.40735 14.4444 L3.63631 14.4444 C2.855 14.4444 2.22217 13.8367 2.22217 13.0864 L2.22217 3.58019 C2.22217 2.82988 2.855 2.22217 3.63631 2.22217 L16.3636 2.22217 C17.1449 2.22217 17.7777 2.82988 17.7777 3.58019 L17.7777 13.0864 C17.7777 13.8367 17.1449 14.4444 16.3636 14.4444 L12.1212 14.4444" stroke-width="1.5" stroke-linecap="round" stroke-linejoin="round" style="stroke:#171D23;" /><path d="M12.2222 14.4443 L12.2222 17.7777 L7.22217 14.4443" stroke-width="1.5" stroke-linecap="round" stroke-linejoin="round" style="stroke:#171D23;" /><path d="M10.0001 10 L10.0001 9.76961 C10.0001 9.01565 10.5609 8.60656 11.1236 8.29272 C11.6721 7.98479 12.2223 7.58455 12.2223 6.84611 C12.2223 5.82632 11.2276 5 10.0001 5 C8.7725 5 7.77783 5.82632 7.77783 6.84611" stroke-width="1.5" stroke-linecap="round" stroke-linejoin="round" style="stroke:#171D23;" /><path d="M9.99824 11.1111 C9.69158 11.1111 9.44269 11.36 9.44447 11.6666 C9.44447 11.9733 9.69335 12.2222 10 12.2222 C10.3067 12.2222 10.5556 11.9733 10.5556 11.6666 C10.5556 11.36 10.3067 11.1111 9.99824 11.1111 z" style="fill:#171D23;" /></svg>