<svg width="20" height="20" viewBox="0, 0, 20, 20" style="fill:none;" xmlns="http://www.w3.org/2000/svg" xmlns:xlink="http://www.w3.org/1999/xlink" xmlns:xml="http://www.w3.org/XML/1998/namespace" version="1.1"><path d="M16.7171 16.6666 L3.28277 16.6666 C2.80574 16.6666 2.22217 16.1266 2.22217 15.6666 L2.22217 14.3333 C2.22217 13.8733 2.80574 13.3333 3.28277 13.3333 L16.7171 13.3333 C17.1942 13.3333 17.7777 13.8733 17.7777 14.3333 L17.7777 15.6666 C17.7777 16.1266 17.1942 16.6666 16.7171 16.6666 z" stroke-width="1.5" stroke-linecap="round" stroke-linejoin="round" style="stroke:#171D23;" /><path d="M2.5 3.33325 L5.83333 3.33325" stroke-width="1.5" stroke-linecap="round" stroke-linejoin="round" style="stroke:#171D23;" /><path d="M2.5 6.11108 L4.16667 6.11108" stroke-width="1.5" stroke-linecap="round" stroke-linejoin="round" style="stroke:#171D23;" /><path d="M2.5 8.88892 L3.05556 8.88892" stroke-width="1.5" stroke-linecap="round" stroke-linejoin="round" style="stroke:#171D23;" /><path d="M12.1899 13.3342 L16.7325 8.80542 C17.3854 8.15452 17.3854 7.09941 16.7325 6.44851 L14.0984 3.8224 C13.4456 3.1715 12.3872 3.1715 11.7344 3.8224 L6.60075 8.94044 C5.94786 9.59134 5.94786 10.6464 6.60075 11.2973 L8.64382 13.3342" stroke-width="1.5" stroke-linecap="round" stroke-linejoin="round" style="stroke:#171D23;" /><path d="M7.29126 11.9841 L14.7898 4.5083" stroke-width="1.5" stroke-linecap="round" stroke-linejoin="round" style="stroke:#171D23;" /></svg>