<svg width="20" height="20" viewBox="0, 0, 20, 20" style="fill:none;" xmlns="http://www.w3.org/2000/svg" xmlns:xlink="http://www.w3.org/1999/xlink" xmlns:xml="http://www.w3.org/XML/1998/namespace" version="1.1"><path d="M16.3636 17.2223 L3.63631 17.2223 C2.855 17.2223 2.22217 16.5759 2.22217 15.7778 L2.22217 4.22228 C2.22217 3.42422 2.855 2.77783 3.63631 2.77783 L16.3636 2.77783 C17.1449 2.77783 17.7777 3.42422 17.7777 4.22228 L17.7777 15.7778 C17.7777 16.5759 17.1449 17.2223 16.3636 17.2223 z" stroke-width="1.5" stroke-miterlimit="10" style="stroke:#171D23;" /><path d="M14.2829 14.4446 L5.71714 14.4446 C5.32071 14.4446 5 14.112 5 13.7008 L5 6.29937 C5 5.88826 5.32071 5.55566 5.71714 5.55566 L14.2829 5.55566 C14.6793 5.55566 15 5.88826 15 6.29937 L15 13.7008 C15 14.112 14.6793 14.4446 14.2829 14.4446 z" stroke-width="1.5" stroke-miterlimit="10" style="stroke:#171D23;" /><path d="M8.88883 11.6668 C9.80931 11.6668 10.5555 10.9206 10.5555 10.0002 C10.5555 9.07969 9.80931 8.3335 8.88883 8.3335 C7.96836 8.3335 7.22217 9.07969 7.22217 10.0002 C7.22217 10.9206 7.96836 11.6668 8.88883 11.6668 z" stroke-width="1.5" stroke-miterlimit="10" style="stroke:#171D23;" /><path d="M14.1666 8.3335 L15.8333 8.3335" stroke-width="1.5" stroke-linecap="round" stroke-miterlimit="10" style="stroke:#171D23;" /><path d="M14.1666 11.6665 L15.8333 11.6665" stroke-width="1.5" stroke-linecap="round" stroke-miterlimit="10" style="stroke:#171D23;" /><path d="M5 17.2222 L5 18.3333" stroke-width="1.5" stroke-linecap="round" stroke-miterlimit="10" style="stroke:#171D23;" /><path d="M15 17.2222 L15 18.3333" stroke-width="1.5" stroke-linecap="round" stroke-miterlimit="10" style="stroke:#171D23;" /></svg>