<svg width="20" height="20" viewBox="0, 0, 20, 20" style="fill:none;" xmlns="http://www.w3.org/2000/svg" xmlns:xlink="http://www.w3.org/1999/xlink" xmlns:xml="http://www.w3.org/XML/1998/namespace" version="1.1"><path d="M3.06906 16.1112 C0.900674 12.78 1.24679 8.23068 4.10741 5.28835 C7.36178 1.94099 12.6382 1.94099 15.8925 5.28835 C18.7531 8.23069 19.0992 12.78 16.9309 16.1112" stroke-width="1.5" stroke-linecap="round" stroke-linejoin="round" style="stroke:#171D23;" /><path d="M11.1784 10.4882 C11.8293 11.139 11.8293 12.1943 11.1784 12.8452 C10.5276 13.4961 9.47228 13.4961 8.82141 12.8452 C8.17053 12.1943 8.17053 11.139 8.82141 10.4882 C9.47228 9.83728 10.5276 9.83728 11.1784 10.4882" stroke-width="1.5" stroke-linecap="round" stroke-linejoin="round" style="stroke:#171D23;" /><path d="M10 2.77783 L10 4.16672 z" style="fill:#171D23;" /><path d="M10 2.77783 L10 4.16672" stroke-width="1.5" stroke-linecap="round" stroke-linejoin="round" style="stroke:#171D23;" /><path d="M14.4444 4.1665 L13.6111 5.55539" stroke-width="1.5" stroke-linecap="round" stroke-linejoin="round" style="stroke:#171D23;" /><path d="M5.55554 4.1665 L6.38887 5.55539" stroke-width="1.5" stroke-linecap="round" stroke-linejoin="round" style="stroke:#171D23;" /><path d="M2.77771 7.22217 L4.1666 8.0555" stroke-width="1.5" stroke-linecap="round" stroke-linejoin="round" style="stroke:#171D23;" /><path d="M3.05551 11.6665 L1.66663 11.6665" stroke-width="1.5" stroke-linecap="round" stroke-linejoin="round" style="stroke:#171D23;" /><path d="M17.7777 11.6665 L16.3888 11.6665" stroke-width="1.5" stroke-linecap="round" stroke-linejoin="round" style="stroke:#171D23;" /><path d="M11.6666 10.5555 L16.6666 7.22217" stroke-width="1.5" stroke-linecap="round" stroke-linejoin="round" style="stroke:#171D23;" /></svg>