<svg width="20" height="20" viewBox="0, 0, 20, 20" style="fill:none;" xmlns="http://www.w3.org/2000/svg" xmlns:xlink="http://www.w3.org/1999/xlink" xmlns:xml="http://www.w3.org/XML/1998/namespace" version="1.1"><path d="M8.33336 15.0001 L8.33336 12.1496 C7.13083 11.6973 5.90355 10.7705 5.35287 9.64944 C4.4878 7.88672 3.96768 6.51444 3.88892 4.13586 C3.88892 3.45684 4.56793 2.77783 5.24694 2.77783 L14.7531 2.77783 C15.4321 2.77783 16.1111 3.45684 16.1111 4.13586 C16.0331 6.51444 15.5129 7.88672 14.6472 9.64944 C14.0198 10.926 12.8692 11.6973 11.6667 12.1496 L11.6667 15.0001" stroke-width="1.5" stroke-linejoin="round" stroke-miterlimit="10" style="stroke:#171D23;" /><path d="M4.48427 5 L1.46459 5 C1.36811 5 1.27569 5.03953 1.2089 5.10921 C1.14211 5.17956 1.10703 5.27336 1.11175 5.36983 C1.18056 6.89741 1.65416 8.20322 2.48194 9.1459 C3.27802 10.0551 4.67182 10.5556 5.83355 10.5556" stroke-width="1.5" stroke-miterlimit="10" style="stroke:#171D23;" /><path d="M15.5159 4.72217 L18.5356 4.72217 C18.6321 4.72217 18.7245 4.7617 18.7913 4.83139 C18.8581 4.90108 18.8931 4.99556 18.8884 5.09205 C18.8196 6.61981 18.346 7.92578 17.5189 8.86856 C16.7222 9.77718 15.3284 10.2777 14.1666 10.2777" stroke-width="1.5" stroke-miterlimit="10" style="stroke:#171D23;" /><path d="M13.4921 14.4446 L6.50792 14.4446 C6.15745 14.4446 5.55554 15.1029 5.55554 15.4862 L5.55554 16.1807 C5.55554 16.564 6.15745 17.2224 6.50792 17.2224 L13.4921 17.2224 C13.8425 17.2224 14.4444 16.564 14.4444 16.1807 L14.4444 15.4862 C14.4444 15.1029 13.8425 14.4446 13.4921 14.4446 z" stroke-width="1.5" stroke-miterlimit="10" style="stroke:#171D23;" /><path d="M12.5 8.05566 C12.5 8.72233 11.8055 9.389 11.1111 9.72233" stroke-width="1.5" stroke-linecap="round" stroke-linejoin="round" style="stroke:#171D23;" /></svg>