<svg width="20" height="20" viewBox="0, 0, 20, 20" style="fill:none;" xmlns="http://www.w3.org/2000/svg" xmlns:xlink="http://www.w3.org/1999/xlink" xmlns:xml="http://www.w3.org/XML/1998/namespace" version="1.1"><path d="M9.63678 3.28747 C9.77974 2.97752 10.2203 2.97752 10.3632 3.28747 L12.1986 7.26652 C12.2568 7.39284 12.3766 7.47982 12.5147 7.4962 L16.8662 8.01213 C17.2051 8.05232 17.3413 8.47127 17.0907 8.70302 L13.8735 11.6781 C13.7714 11.7726 13.7256 11.9133 13.7528 12.0498 L14.6067 16.3477 C14.6733 16.6825 14.3169 16.9414 14.019 16.7747 L10.1954 14.6344 C10.074 14.5664 9.92601 14.5664 9.80462 14.6344 L5.98096 16.7747 C5.68311 16.9414 5.32673 16.6825 5.39325 16.3477 L6.24724 12.0498 C6.27436 11.9133 6.22863 11.7726 6.12649 11.6781 L2.90935 8.70302 C2.65875 8.47128 2.79488 8.05232 3.13383 8.01213 L7.48529 7.4962 C7.62344 7.47982 7.74315 7.39284 7.80142 7.26652 L9.63678 3.28747 z" stroke-width="1.5" style="stroke:#171D23;" /></svg>