<svg width="108" height="40" viewBox="0 0 108 40" fill="none" xmlns="http://www.w3.org/2000/svg">
<g clip-path="url(#clip0_1521_8067)">
<path fill-rule="evenodd" clip-rule="evenodd" d="M20.1661 0C31.3045 0 40.3322 8.95336 40.3322 20C40.3322 31.0466 31.3045 40 20.1661 40C9.02776 40 0 31.0466 0 20C0 8.95336 9.02776 0 20.1661 0ZM20.1661 2.69556C29.8011 2.69556 37.6143 10.4444 37.6143 20C37.6143 29.5556 29.8011 37.3045 20.1661 37.3045C10.5311 37.3045 2.71794 29.5556 2.71794 20C2.71794 10.4444 10.5311 2.69556 20.1661 2.69556Z" fill="#97C11F"/>
<path fill-rule="evenodd" clip-rule="evenodd" d="M9.65039 9.57071C12.5535 6.69155 16.3601 5.25195 20.1667 5.25195V20.0004L9.65039 9.57071Z" fill="#5C7812"/>
<path fill-rule="evenodd" clip-rule="evenodd" d="M5.29492 20C5.29492 15.931 6.96123 12.2438 9.64953 9.57031L20.1658 20H5.29492Z" fill="#638014"/>
<path fill-rule="evenodd" clip-rule="evenodd" d="M9.64953 30.4219C6.74647 27.5427 5.29492 23.7675 5.29492 19.9922H20.1658L9.64953 30.4219Z" fill="#678815"/>
<path fill-rule="evenodd" clip-rule="evenodd" d="M20.1667 34.7407C16.0638 34.7407 12.3462 33.088 9.65039 30.4219L20.1667 19.9922V34.7407Z" fill="#749717"/>
<path fill-rule="evenodd" clip-rule="evenodd" d="M35.0311 20C35.0311 15.931 33.3648 12.2438 30.6765 9.57031L20.1602 20H35.0311Z" fill="#97C11F"/>
<path fill-rule="evenodd" clip-rule="evenodd" d="M30.6765 30.4219C33.5796 27.5427 35.0311 23.7675 35.0311 19.9922H20.1602L30.6765 30.4219Z" fill="#8BB31E"/>
<path fill-rule="evenodd" clip-rule="evenodd" d="M20.166 34.7407C24.2689 34.7407 27.9866 33.088 30.6823 30.4219L20.166 19.9922V34.7407Z" fill="#80A51A"/>
<path d="M48.5977 28.9244C48.5977 29.1962 48.8124 29.4386 49.1161 29.4386H58.8029C59.0991 29.4386 59.3213 29.1962 59.3213 28.9244V27.4407C59.3213 27.169 59.1065 26.9266 58.8029 26.9266H51.4341V11.0618C51.4341 10.79 51.1897 10.5476 50.9157 10.5476H49.1234C48.8272 10.5476 48.605 10.79 48.605 11.0618V28.9244H48.5977ZM62.7725 28.9244C62.7725 29.1962 63.0168 29.4386 63.2909 29.4386H65.083C65.3571 29.4386 65.6014 29.1962 65.6014 28.9244V11.0618C65.6014 10.79 65.3571 10.5476 65.083 10.5476H63.2909C63.0168 10.5476 62.7725 10.79 62.7725 11.0618V28.9244ZM69.9561 28.8142C69.9042 29.1888 70.0894 29.4312 70.4745 29.4312H72.2445C72.4593 29.4312 72.7037 29.2402 72.7333 29.0566L74.6885 16.9964C74.7181 16.9964 74.7699 16.9964 74.7995 16.9964L79.7244 29.4092C79.7762 29.5707 79.9688 29.703 80.1832 29.703H80.672C80.9168 29.703 81.08 29.5707 81.1312 29.4092L86.0264 16.9964C86.0264 16.9964 86.0784 16.9964 86.108 16.9964L88.1224 29.0566C88.1744 29.2476 88.3968 29.4312 88.6408 29.4312H90.4112C90.7888 29.4312 90.9816 29.1888 90.9 28.8142L87.552 10.6872C87.5008 10.4742 87.2784 10.2832 87.064 10.2832H86.6264C86.4344 10.2832 86.2192 10.4154 86.1672 10.577L80.5096 24.3633H80.3984L74.7106 10.577C74.6588 10.4154 74.4144 10.2832 74.2515 10.2832H73.8145C73.5997 10.2832 73.3776 10.4742 73.3257 10.6872L69.9561 28.8142ZM95.284 28.9244C95.284 29.1962 95.4992 29.4386 95.8024 29.4386H106.682C106.978 29.4386 107.2 29.1962 107.2 28.9244V27.4407C107.2 27.169 106.986 26.9266 106.682 26.9266H98.0832V21.1242H105.349C105.622 21.1242 105.867 20.9112 105.867 20.6101V19.097C105.867 18.8253 105.622 18.5829 105.349 18.5829H98.0832V13.0816H106.682C106.978 13.0816 107.2 12.8392 107.2 12.5674V11.0544C107.2 10.7826 106.986 10.5403 106.682 10.5403H95.8024C95.5064 10.5403 95.284 10.7826 95.284 11.0544V28.917V28.9244Z" fill="#97C11F"/>
</g>
<defs>
<clipPath id="clip0_1521_8067">
<rect width="107.2" height="40" fill="white"/>
</clipPath>
</defs>
</svg>
