<svg width="20" height="20" viewBox="0, 0, 20, 20" style="fill:none;" xmlns="http://www.w3.org/2000/svg" xmlns:xlink="http://www.w3.org/1999/xlink" xmlns:xml="http://www.w3.org/XML/1998/namespace" version="1.1"><path d="M11.844 5.67182 L14.7792 2.73662 C15.4651 2.05068 16.5773 2.05068 17.2633 2.73662 C17.9492 3.42257 17.9492 4.53479 17.2633 5.22073 L14.3281 8.15592 L15.9162 16.0584 C15.9747 16.3491 15.8834 16.6496 15.6743 16.8596 L15.0893 17.4445 C14.6374 17.8965 13.869 17.7352 13.6368 17.1396 L11.3113 11.1726 L8.29285 14.1912 L8.45414 16.1143 C8.47629 16.3739 8.38235 16.6309 8.19802 16.8153 L7.23557 17.7777 L5.35588 14.644 L2.22217 12.7643 L3.18461 11.8019 C3.36895 11.6175 3.62507 11.5236 3.88562 11.5458 L5.80874 11.707 L8.82724 8.68855 L2.86114 6.36308 C2.26471 6.13089 2.10341 5.36341 2.55539 4.91055 L3.1403 4.32564 C3.35034 4.1156 3.65077 4.0252 3.94145 4.08369 L11.844 5.67182 z" stroke-width="1.5" stroke-linecap="round" stroke-linejoin="round" style="stroke:#171D23;" /></svg>