<svg width="21" height="20" viewBox="0, 0, 21, 20" style="fill:none;" xmlns="http://www.w3.org/2000/svg" xmlns:xlink="http://www.w3.org/1999/xlink" xmlns:xml="http://www.w3.org/XML/1998/namespace" version="1.1"><path d="M17 17.5 L3.66665 17.5 C3.20665 17.5 2.83331 17.1267 2.83331 16.6667 L2.83331 13.3333 C2.83331 12.8733 3.20665 12.5 3.66665 12.5 L17 12.5 C17.46 12.5 17.8333 12.8733 17.8333 13.3333 L17.8333 16.6667 C17.8333 17.1267 17.46 17.5 17 17.5 z" stroke-width="1.5" stroke-linecap="round" stroke-linejoin="round" style="stroke:#171D23;" /><path d="M17 9.16667 L12 9.16667 C11.54 9.16667 11.1666 8.79333 11.1666 8.33333 L11.1666 3.33333 C11.1666 2.87333 11.54 2.5 12 2.5 L17 2.5 C17.46 2.5 17.8333 2.87333 17.8333 3.33333 L17.8333 8.33333 C17.8333 8.79333 17.46 9.16667 17 9.16667 z" stroke-width="1.5" stroke-linecap="round" stroke-linejoin="round" style="stroke:#171D23;" /><path d="M7.83331 2.5 L2.83331 2.5" stroke-width="1.5" stroke-linecap="round" stroke-linejoin="round" style="stroke:#171D23;" /><path d="M7.83331 5.83334 L2.83331 5.83334" stroke-width="1.5" stroke-linecap="round" stroke-linejoin="round" style="stroke:#171D23;" /><path d="M7.83331 9.16666 L2.83331 9.16666" stroke-width="1.5" stroke-linecap="round" stroke-linejoin="round" style="stroke:#171D23;" /></svg>